<svg width="21" height="20" viewBox="0 0 21 20" fill="none" xmlns="http://www.w3.org/2000/svg">
<path d="M4.10804 8.65556C5.74218 11.8 8.37496 14.3667 11.5865 15.9778L14.0831 13.5333C14.3895 13.2333 14.8434 13.1333 15.2406 13.2667C16.5116 13.6778 17.8847 13.9 19.2919 13.9C19.9161 13.9 20.4267 14.4 20.4267 15.0111V18.8889C20.4267 19.5 19.9161 20 19.2919 20C8.63596 20 0 11.5444 0 1.11111C0 0.5 0.510668 0 1.13482 0H5.10668C5.73083 0 6.2415 0.5 6.2415 1.11111C6.2415 2.5 6.46846 3.83333 6.88834 5.07778C7.01317 5.46667 6.92239 5.9 6.60464 6.21111L4.10804 8.65556Z" fill="black"/>
</svg>
