<svg width="46" height="46" viewBox="0 0 46 46" fill="none" xmlns="http://www.w3.org/2000/svg">
<path d="M38.7205 35.5637C36.6792 32.2747 32.1856 28.75 23 28.75C13.8144 28.75 9.32361 32.2719 7.27948 35.5637C9.16284 37.9248 11.5544 39.8308 14.2761 41.1399C16.9979 42.449 19.9798 43.1275 23 43.125C26.0202 43.1275 29.0021 42.449 31.7238 41.1399C34.4456 39.8308 36.8371 37.9248 38.7205 35.5637Z" fill="#707070"/>
<path fill-rule="evenodd" clip-rule="evenodd" d="M23 25.875C25.2875 25.875 27.4813 24.9663 29.0988 23.3488C30.7163 21.7313 31.625 19.5375 31.625 17.25C31.625 14.9625 30.7163 12.7687 29.0988 11.1512C27.4813 9.5337 25.2875 8.625 23 8.625C20.7125 8.625 18.5187 9.5337 16.9012 11.1512C15.2837 12.7687 14.375 14.9625 14.375 17.25C14.375 19.5375 15.2837 21.7313 16.9012 23.3488C18.5187 24.9663 20.7125 25.875 23 25.875Z" fill="#707070"/>
<path fill-rule="evenodd" clip-rule="evenodd" d="M23 2.875C17.6625 2.875 12.5436 4.99531 8.76948 8.76948C4.99531 12.5436 2.875 17.6625 2.875 23C2.875 28.3375 4.99531 33.4564 8.76948 37.2305C12.5436 41.0047 17.6625 43.125 23 43.125C28.3375 43.125 33.4564 41.0047 37.2305 37.2305C41.0047 33.4564 43.125 28.3375 43.125 23C43.125 17.6625 41.0047 12.5436 37.2305 8.76948C33.4564 4.99531 28.3375 2.875 23 2.875ZM0 23C0 16.9 2.42321 11.0499 6.73654 6.73654C11.0499 2.42321 16.9 0 23 0C29.1 0 34.9501 2.42321 39.2635 6.73654C43.5768 11.0499 46 16.9 46 23C46 29.1 43.5768 34.9501 39.2635 39.2635C34.9501 43.5768 29.1 46 23 46C16.9 46 11.0499 43.5768 6.73654 39.2635C2.42321 34.9501 0 29.1 0 23Z" fill="#707070"/>
</svg>
