<?xml version="1.0" encoding="utf-8"?>
<!-- Generator: Adobe Illustrator 23.0.1, SVG Export Plug-In . SVG Version: 6.00 Build 0)  -->
<svg version="1.1" id="Layer_1" xmlns="http://www.w3.org/2000/svg" xmlns:xlink="http://www.w3.org/1999/xlink" x="0px" y="0px"
	 viewBox="0 0 512 512" style="enable-background:new 0 0 512 512;" xml:space="preserve">
<style type="text/css">
	.st0{fill:#FFFFFF;}
</style>
<g>
	<polygon class="st0" points="0,111.9 31.7,111.9 31.7,31.7 111.9,31.7 111.9,0 0,0 	"/>
	<polygon class="st0" points="400.1,0 400.1,31.7 480.3,31.7 480.3,111.9 512,111.9 512,0 	"/>
	<polygon class="st0" points="480.3,480.3 400.1,480.3 400.1,512 512,512 512,400.1 480.3,400.1 	"/>
	<polygon class="st0" points="31.7,400.1 0,400.1 0,512 111.9,512 111.9,480.3 31.7,480.3 	"/>
</g>
<g>
	<path class="st0" d="M246.8,198.4c0,23.9,19,43.4,42.2,43.4c23.3,0,42.3-19.5,42.3-43.4c0-23.9-19-43.4-42.3-43.4
		C265.7,155,246.8,174.5,246.8,198.4z M313.4,198.4c0,13.8-10.9,25-24.4,25c-13.4,0-24.4-11.2-24.4-25c0-13.8,10.9-25,24.4-25
		C302.5,173.4,313.4,184.6,313.4,198.4z"/>
	<path class="st0" d="M352.7,259.9l-61.1,40.8l-120.4-84.9c-2.9-2-6.6-2.1-9.6-0.4L56,279v21.3l109.8-66l120.7,85
		c3,2.1,6.9,2.1,9.9,0.1l60.7-40.6L456,357v-23.2l-93-73.5C360,257.9,355.9,257.8,352.7,259.9z"/>
</g>
</svg>
