<?xml version="1.0" encoding="utf-8"?>
<!-- Generator: Adobe Illustrator 23.0.1, SVG Export Plug-In . SVG Version: 6.00 Build 0)  -->
<svg version="1.1" id="Layer_1" xmlns="http://www.w3.org/2000/svg" xmlns:xlink="http://www.w3.org/1999/xlink" x="0px" y="0px"
	 viewBox="0 0 572 572" style="enable-background:new 0 0 572 572;" xml:space="preserve">
<style type="text/css">
	.st0{fill:#FFFFFF;}
</style>
<g>
	<path class="st0" d="M549.5,174.7c-14.4-34.1-35-64.6-61.3-90.9c-26.3-26.3-56.8-46.9-90.9-61.3C362.1,7.6,324.6,0,286,0
		s-76.1,7.6-111.3,22.5c-34.1,14.4-64.6,35-90.9,61.3c-26.3,26.3-46.9,56.8-61.3,90.9C7.6,209.9,0,247.4,0,286
		c0,38.6,7.6,76.1,22.5,111.3c14.4,34.1,35,64.6,61.3,90.9c26.3,26.3,56.8,46.9,90.9,61.3C209.9,564.4,247.4,572,286,572
		s76.1-7.6,111.3-22.5c34.1-14.4,64.6-35,90.9-61.3c26.3-26.3,46.9-56.8,61.3-90.9C564.4,362.1,572,324.6,572,286
		C572,247.4,564.4,209.9,549.5,174.7z M286,542C144.6,542,30,427.4,30,286S144.6,30,286,30c141.4,0,256,114.6,256,256
		S427.4,542,286,542z"/>
	<path class="st0" d="M286,78.1C171.4,78.1,78.1,171.4,78.1,286S171.4,493.9,286,493.9S493.9,400.6,493.9,286S400.6,78.1,286,78.1z
		 M286,478.9c-106.4,0-192.9-86.5-192.9-192.9S179.6,93.1,286,93.1S478.9,179.6,478.9,286S392.4,478.9,286,478.9z"/>
	<path class="st0" d="M333.5,255.1c-3.7,1.8-5.3,6.3-3.6,10c3.1,6.5,4.7,13.5,4.7,20.8c0,26.8-21.8,48.6-48.6,48.6
		s-48.6-21.8-48.6-48.6s21.8-48.6,48.6-48.6c7.3,0,14.3,1.6,20.8,4.7c3.7,1.8,8.2,0.2,10-3.6c1.8-3.8,0.2-8.2-3.6-10
		c-8.5-4.1-17.7-6.1-27.2-6.1c-35.1,0-63.6,28.5-63.6,63.6s28.5,63.6,63.6,63.6c35.1,0,63.6-28.5,63.6-63.6c0-9.6-2.1-18.7-6.1-27.3
		C341.7,255,337.2,253.4,333.5,255.1z"/>
	<path class="st0" d="M293.6,141.4c7.7,0.4,15.4,1.4,22.9,3c0.5,0.1,1.1,0.2,1.6,0.2c3.5,0,6.6-2.4,7.3-5.9c0.9-4.1-1.7-8.1-5.8-8.9
		c-8.3-1.8-16.8-2.9-25.2-3.3c-4.1-0.2-7.7,3-7.9,7.1C286.3,137.7,289.5,141.2,293.6,141.4z"/>
	<path class="st0" d="M361.7,145.2c-3.7-2-8.2-0.6-10.2,3.1c-2,3.7-0.6,8.2,3.1,10.2c27.4,14.8,49.7,38.4,62.8,66.6
		c1.3,2.7,4,4.4,6.8,4.4c1.1,0,2.1-0.2,3.2-0.7c3.8-1.7,5.4-6.2,3.7-10C416.6,187.6,391.9,161.5,361.7,145.2z"/>
	<path class="st0" d="M247.9,425.7c-46.5-12.7-83.6-47.5-99-93.2c-1.3-3.9-5.6-6-9.5-4.7c-3.9,1.3-6,5.6-4.7,9.5
		c17.1,50.5,58,88.9,109.3,102.9c0.7,0.2,1.3,0.3,2,0.3c3.3,0,6.3-2.2,7.2-5.5C254.3,430.9,251.9,426.8,247.9,425.7z"/>
	<path class="st0" d="M286,246.4c-21.8,0-39.6,17.8-39.6,39.6s17.8,39.6,39.6,39.6c21.8,0,39.6-17.8,39.6-39.6
		S307.8,246.4,286,246.4z M286,310.5c-13.5,0-24.5-11-24.5-24.5c0-13.5,11-24.5,24.5-24.5c13.5,0,24.5,11,24.5,24.5
		C310.5,299.5,299.5,310.5,286,310.5z"/>
</g>
</svg>
