<?xml version="1.0" encoding="utf-8"?>
<!-- Generator: Adobe Illustrator 23.0.1, SVG Export Plug-In . SVG Version: 6.00 Build 0)  -->
<svg version="1.1" id="Layer_1" xmlns="http://www.w3.org/2000/svg" xmlns:xlink="http://www.w3.org/1999/xlink" x="0px" y="0px"
	 viewBox="0 0 512 512" style="enable-background:new 0 0 512 512;" xml:space="preserve">
<style type="text/css">
	.st0{fill:#FFFFFF;}
</style>
<g>
	<g>
		<path class="st0" d="M224.4,153.1c-2.3,0-4.4,1.1-5.7,2.9c-2.8,3.9-69.2,95.7-69.2,135.1c0,41.3,33.6,75,75,75
			c41.3,0,75-33.6,75-75c0-39.3-66.4-131.2-69.2-135.1C228.9,154.2,226.7,153.1,224.4,153.1z M224.4,351.8
			c-33.5,0-60.8-27.3-60.8-60.8c0-26.2,39.6-88.4,60.8-118.6c21.1,30.2,60.8,92.4,60.8,118.6C285.2,324.6,257.9,351.8,224.4,351.8z"
			/>
		<path class="st0" d="M189,290.4c0-3.9-3.2-7.1-7.1-7.1c-3.9,0-7.1,3.2-7.1,7.1c0,27.2,22.1,49.3,49.3,49.3c3.9,0,7.1-3.2,7.1-7.1
			c0-3.9-3.2-7.1-7.1-7.1C204.7,325.4,189,309.7,189,290.4z"/>
		<path class="st0" d="M329.2,148.9c-1.3-1.8-3.5-2.9-5.7-2.9c-2.3,0-4.4,1.1-5.7,2.9c-5.6,7.7-33.3,46.8-33.3,65.9
			c0,21.5,17.5,39.1,39.1,39.1c21.5,0,39.1-17.5,39.1-39.1C362.5,195.8,334.7,156.6,329.2,148.9z M323.4,239.7
			c-13.7,0-24.9-11.2-24.9-24.9c0-9.5,13.5-32.6,24.9-49.3c11.3,16.7,24.9,39.8,24.9,49.3C348.3,228.5,337.2,239.7,323.4,239.7z"/>
	</g>
</g>
<g>
	<path class="st0" d="M511.8,100.6c-0.2-6.5-6-12.2-14.2-13.1C387.4,75.5,259.9,0,256.1,0c-3.8,0-136.7,76-241,87.5
		C6.9,88.4,1.2,94,0.3,100.6c-3.6,124.2,30.3,225.9,101.6,304.9c38.8,43,87.4,78,146,104.6c4.5,2.7,11.6,2.5,16.9,0
		C323,483,371.5,448.3,410.2,405.5C481.5,326.5,515.2,224.8,511.8,100.6z M383,390.2c-33.7,37.2-75.9,68.3-127,93.2
		c-51.1-24.9-93.5-55.9-127-93.2c-64.8-72.4-96.4-164.9-95.2-277.8c29.5-3.1,66-9.5,106.4-22.8c49.1-16.1,87.9-37.1,115.9-55
		c27.7,17.9,66.4,38.9,115.4,55c40.6,13.3,77.3,19.7,106.7,22.8C479.4,226,447.6,318.7,383,390.2z"/>
</g>
</svg>
