<?xml version="1.0" encoding="utf-8"?>
<!-- Generator: Adobe Illustrator 23.0.1, SVG Export Plug-In . SVG Version: 6.00 Build 0)  -->
<svg version="1.1" id="Layer_1" xmlns="http://www.w3.org/2000/svg" xmlns:xlink="http://www.w3.org/1999/xlink" x="0px" y="0px"
	 viewBox="0 0 542 542" style="enable-background:new 0 0 542 542;" xml:space="preserve">
<style type="text/css">
	.st0{fill:#FFFFFF;}
</style>
<path class="st0" d="M462.6,79.4C411.4,28.2,343.4,0,271,0S130.6,28.2,79.4,79.4S0,198.6,0,271s28.2,140.4,79.4,191.6
	S198.6,542,271,542s140.4-28.2,191.6-79.4S542,343.4,542,271S513.8,130.6,462.6,79.4z M34.4,305.8c-1.7-11.4-2.5-23-2.5-34.8
	c0-69.5,29.8-132.1,77.2-175.8l145,83.7L34.4,305.8z M182.8,239.6v253.7c-72.6-28.9-127.7-92.3-145.2-169.9L182.8,239.6z
	 M342.3,210.3L122.7,83.6C163.5,51.2,215,31.9,271,31.9c24.8,0,48.8,3.8,71.3,10.9V210.3z M342.3,229.8v82.3L271,353.3l-71.3-41.2
	v-82.3l71.3-41.2L342.3,229.8z M199.7,331.7l67.1,38.7c0,0,0,0,0,0l152.4,88c-40.8,32.3-92.3,51.7-148.3,51.7
	c-24.8,0-48.8-3.8-71.3-10.9V331.7z M287.9,363.1l219.7-126.8c1.7,11.4,2.5,23,2.5,34.8c0,69.5-29.8,132.1-77.2,175.8L287.9,363.1z
	 M359.2,302.4V48.7c72.6,28.9,127.7,92.3,145.2,169.9L359.2,302.4z"/>
</svg>
