<svg xmlns="http://www.w3.org/2000/svg" xmlns:xlink="http://www.w3.org/1999/xlink" viewBox="0 0 82 71" fill="#fff" fill-rule="evenodd" stroke="#000" stroke-linecap="round" stroke-linejoin="round"><use xlink:href="#A" x=".5" y=".5"/><symbol id="A" overflow="visible"><g stroke="none"><path d="M79.046 31.42L62.606 3.578C61.348 1.405 59.002.044 56.44 0H23.56c-2.56.042-4.908 1.403-6.166 3.577L.955 31.364C-.318 33.52-.318 36.17.953 38.325l16.44 27.97c1.245 2.203 3.585 3.61 6.165 3.705h32.88c2.58-.087 4.92-1.488 6.166-3.69l16.44-27.845c1.273-2.185 1.274-4.86.002-7.046z" fill="#4285f4"/><path d="M49.147 17.947l-.538 4.87-2.644 2.19-7.22-7.06-13.694 19.6.044 4.748 6.187 6.026-.437 3.713L49.3 70h7.14c2.58-.087 4.92-1.488 6.166-3.69L75.82 43.926z" fill="#000" opacity=".07"/><path d="M49.147 26.073l2.406-4.06-2.406-4.06h-5.213l2.406 4.06-2.406 4.06h5.213zm-10.43-8.12H30.16l-9.756 16.453 4.694 7.913 9.625-16.246h3.994l2.406-4.06-2.406-4.06zm-7.87 25.955l-2.406 4.06 2.406 4.066h5.213l-2.406-4.066 2.406-4.06h-5.213zm24.05-16.246l-9.625 16.246h-3.994l-2.406 4.06 2.406 4.066h8.563l9.75-16.46-4.694-7.913z"/></g></symbol></svg>