<?xml version="1.0" encoding="utf-8"?>
<!-- Generator: Adobe Illustrator 24.0.2, SVG Export Plug-In . SVG Version: 6.00 Build 0)  -->
<svg version="1.1" id="Layer_1" xmlns="http://www.w3.org/2000/svg" xmlns:xlink="http://www.w3.org/1999/xlink" x="0px" y="0px"
	 viewBox="0 0 220 62" style="enable-background:new 0 0 220 62;" xml:space="preserve">
<style type="text/css">
	.st0{fill:#FFFFFF;}
	.st1{fill:#384F7F;}
	.st2{display:none;}
</style>
<g>
	<g>
		<g id="g885_1_">
			<path id="path8_1_" class="st0" d="M101.7,14.6H90.1V18h8.2c-0.4,4.8-4.4,6.9-8.2,6.9c-5,0-9.1-4-9.1-9c0,0,0,0,0,0l0,0v-0.2
				c-0.1-5,3.9-9.1,8.9-9.2c0.1,0,0.1,0,0.2,0c2.3,0,4.5,0.9,6.2,2.5l2.4-2.5c-2.3-2.3-5.5-3.5-8.7-3.4C83,3,77.2,8.5,77.1,15.5
				c-0.2,7,5.4,12.8,12.3,12.9c0.3,0,0.5,0,0.8,0c6.8,0,11.7-4.6,11.7-11.5C101.9,16.1,101.9,15.4,101.7,14.6L101.7,14.6L101.7,14.6
				z"/>
			<path id="path10_1_" class="st0" d="M111.2,12.1c-4.4-0.1-8.1,3.4-8.2,7.9c0,0,0,0,0,0l0,0v0.2c0,4.5,3.6,8.2,8.1,8.2
				c4.5,0,8.2-3.6,8.2-8.1C119.4,14.9,115.1,12.1,111.2,12.1z M111.3,15.3c2.3,0,4.6,1.9,4.6,5s-2.2,4.9-4.6,4.9
				c-2.6,0-4.6-2.1-4.6-5S108.6,15.3,111.3,15.3L111.3,15.3z"/>
			<path id="path12_1_" class="st0" d="M129,12.1c-4.4-0.1-8.1,3.5-8.2,7.9c0,0,0,0,0,0l0,0v0.2c0,4.5,3.6,8.2,8.1,8.2
				c4.5,0,8.2-3.6,8.2-8.1C137.1,14.9,132.9,12.1,129,12.1L129,12.1L129,12.1z M129,15.3c2.3,0,4.6,1.9,4.6,5s-2.2,4.9-4.6,4.9
				c-2.6,0-4.6-2.1-4.6-5S126.4,15.3,129,15.3L129,15.3z"/>
			<path id="path14_1_" class="st0" d="M146.4,12.1c-4.3,0-7.8,3.8-7.8,8.1c-0.1,4.4,3.4,8,7.7,8.1c1.7,0.1,3.4-0.6,4.5-2V28
				c0,2.8-1.7,4.5-4.3,4.5c-1.8,0-3.5-1.2-4.2-2.9l-3.1,1.3c1.1,2.3,3.3,4.8,7.3,4.8c4.3,0,7.7-2.7,7.7-8.5V12.6h-3.4V14
				C149.7,12.8,148.1,12.1,146.4,12.1z M146.7,15.3c2.1,0,4.3,1.8,4.3,5s-2.2,4.9-4.4,4.9c-2.3,0-4.5-1.9-4.5-4.9
				C142.2,17.2,144.4,15.3,146.7,15.3L146.7,15.3L146.7,15.3z"/>
			<path id="path16_1_" class="st0" d="M169.3,12.1c-4.1,0-7.6,3.3-7.6,8.1c-0.2,4.3,3.2,8,7.6,8.1c0.1,0,0.3,0,0.4,0
				c2.7,0,5.3-1.3,6.8-3.6l-2.8-1.9c-0.8,1.4-2.3,2.3-4,2.2c-1.7,0.1-3.3-0.9-4-2.5l10.9-4.5l-0.6-1.3
				C175.1,14,172.4,12.2,169.3,12.1L169.3,12.1L169.3,12.1z M169.5,15.2c1.3-0.1,2.4,0.6,3,1.7l-7.3,3.1
				C164.9,17.7,167.1,15.2,169.5,15.2L169.5,15.2L169.5,15.2z"/>
			<path id="path18_1_" class="st0" d="M156.6,27.9h3.6V3.9h-3.6V27.9z"/>
		</g>
		<g>
			<path class="st0" d="M81.9,54.8c-1.2-0.7-2.1-1.6-2.8-2.8c-0.7-1.2-1-2.5-1-4s0.3-2.8,1-4s1.6-2.1,2.8-2.8s2.5-1,4-1
				c1.1,0,2.2,0.2,3.1,0.6c0.9,0.4,1.8,1,2.5,1.8l-1.7,1.6c-0.5-0.6-1.1-1.1-1.7-1.4c-0.6-0.3-1.4-0.5-2.2-0.5c-1,0-1.9,0.2-2.8,0.7
				s-1.5,1.1-2,2c-0.5,0.8-0.7,1.8-0.7,3s0.2,2.1,0.7,3c0.5,0.8,1.2,1.5,2,2c0.8,0.5,1.8,0.7,2.8,0.7c1.7,0,3.1-0.7,4.3-2.1l1.7,1.6
				c-0.7,0.9-1.6,1.5-2.6,2c-1,0.5-2.1,0.7-3.4,0.7C84.4,55.8,83.1,55.5,81.9,54.8z"/>
			<path class="st0" d="M93.9,40.4h2.3v15h-2.3V40.4z"/>
			<path class="st0" d="M100.9,55.1c-0.9-0.5-1.5-1.2-2-2c-0.5-0.9-0.7-1.8-0.7-2.9c0-1.1,0.2-2,0.7-2.9c0.5-0.9,1.1-1.6,2-2
				c0.9-0.5,1.8-0.7,2.9-0.7c1.1,0,2,0.3,2.9,0.8c0.9,0.5,1.5,1.2,2,2.1c0.5,0.9,0.7,1.8,0.7,2.9c0,1.1-0.2,2-0.7,2.9
				c-0.5,0.9-1.1,1.6-2,2c-0.9,0.5-1.8,0.7-2.9,0.7C102.8,55.8,101.8,55.6,100.9,55.1z M105.5,53.3c0.5-0.3,0.9-0.7,1.2-1.2
				c0.3-0.5,0.5-1.2,0.5-1.9c0-0.7-0.2-1.4-0.5-1.9c-0.3-0.5-0.7-0.9-1.2-1.2c-0.5-0.3-1.1-0.4-1.6-0.4s-1.1,0.1-1.6,0.4
				c-0.5,0.3-0.9,0.7-1.2,1.2s-0.5,1.2-0.5,1.9c0,0.7,0.2,1.4,0.5,1.9s0.7,1,1.2,1.2c0.5,0.3,1.1,0.4,1.6,0.4S105,53.5,105.5,53.3z"
				/>
			<path class="st0" d="M112.4,54.6c-0.7-0.8-1-1.9-1-3.2v-6.6h2.3v6.3c0,0.9,0.2,1.5,0.6,2c0.4,0.4,1,0.7,1.6,0.7
				c0.5,0,1-0.1,1.4-0.4c0.4-0.3,0.7-0.7,1-1.1c0.2-0.5,0.3-1,0.3-1.5v-5.8h2.3v10.7h-2.2v-1.4h-0.1c-0.3,0.5-0.7,0.9-1.4,1.2
				c-0.6,0.3-1.3,0.5-2,0.5C114.1,55.8,113.1,55.4,112.4,54.6z"/>
			<path class="st0" d="M125.5,55.1c-0.8-0.5-1.4-1.2-1.9-2c-0.5-0.9-0.7-1.8-0.7-2.9c0-1.1,0.2-2.1,0.7-2.9c0.5-0.9,1.1-1.5,1.9-2
				c0.8-0.5,1.7-0.7,2.6-0.7c0.8,0,1.4,0.2,2,0.5s1.1,0.7,1.4,1.2h0.1l-0.1-1.5v-4.2h2.3v15h-2.2v-1.4h-0.1
				c-0.3,0.5-0.8,0.9-1.4,1.2s-1.3,0.5-2,0.5C127.2,55.8,126.3,55.6,125.5,55.1z M130.1,53.2c0.5-0.3,0.9-0.7,1.2-1.3
				s0.4-1.2,0.4-1.9c0-0.7-0.1-1.3-0.4-1.9c-0.3-0.5-0.7-1-1.2-1.2c-0.5-0.3-1-0.4-1.6-0.4c-0.6,0-1.1,0.1-1.6,0.4
				c-0.5,0.3-0.9,0.7-1.2,1.2c-0.3,0.5-0.4,1.2-0.4,1.9c0,0.7,0.1,1.3,0.4,1.9c0.3,0.5,0.7,1,1.2,1.3c0.5,0.3,1,0.4,1.6,0.4
				C129.1,53.7,129.6,53.5,130.1,53.2z"/>
			<path class="st0" d="M141.9,40.4h5.7c0.8,0,1.5,0.2,2.2,0.5c0.7,0.3,1.2,0.8,1.6,1.4s0.6,1.3,0.6,2c0,0.7-0.2,1.4-0.6,1.9
				c-0.4,0.5-0.9,1-1.5,1.2v0.1c0.8,0.3,1.4,0.7,1.8,1.3c0.5,0.6,0.7,1.3,0.7,2.2s-0.2,1.6-0.6,2.2c-0.4,0.6-1,1.1-1.7,1.5
				c-0.7,0.4-1.5,0.5-2.4,0.5h-5.9V40.4z M147.4,46.7c0.7,0,1.2-0.2,1.6-0.6c0.4-0.4,0.6-0.9,0.6-1.4c0-0.5-0.2-1-0.6-1.4
				c-0.4-0.4-0.9-0.6-1.6-0.6h-3.3v4.1H147.4z M147.8,53.3c0.7,0,1.3-0.2,1.7-0.7c0.4-0.4,0.6-1,0.6-1.6c0-0.6-0.2-1.1-0.7-1.6
				c-0.4-0.4-1-0.7-1.8-0.7h-3.5v4.5H147.8z"/>
			<path class="st0" d="M154.9,42.8c-0.3-0.3-0.5-0.7-0.5-1.1c0-0.4,0.2-0.8,0.5-1.1c0.3-0.3,0.7-0.5,1.1-0.5c0.4,0,0.8,0.2,1.1,0.5
				c0.3,0.3,0.5,0.7,0.5,1.1c0,0.4-0.2,0.8-0.5,1.1c-0.3,0.3-0.7,0.5-1.1,0.5C155.6,43.2,155.2,43.1,154.9,42.8z M154.8,44.8h2.3
				v10.7h-2.3V44.8z"/>
			<path class="st0" d="M161.5,59.4c-0.9-0.6-1.4-1.3-1.7-2.1l2.2-0.9c0.2,0.6,0.6,1,1.1,1.4s1.1,0.5,1.8,0.5c1,0,1.7-0.3,2.3-0.9
				c0.6-0.6,0.8-1.4,0.8-2.4v-1h-0.1c-0.4,0.5-0.8,0.9-1.4,1.2c-0.6,0.3-1.3,0.4-2,0.4c-0.9,0-1.7-0.2-2.5-0.7
				c-0.8-0.5-1.4-1.1-1.8-2c-0.5-0.8-0.7-1.8-0.7-2.9s0.2-2.1,0.7-2.9c0.5-0.8,1.1-1.5,1.8-2c0.8-0.5,1.6-0.7,2.5-0.7
				c0.7,0,1.4,0.1,2,0.4c0.6,0.3,1.1,0.7,1.4,1.2h0.1v-1.3h2.2v10.1c0,1.2-0.2,2.2-0.7,3c-0.4,0.8-1.1,1.4-1.9,1.9
				c-0.8,0.4-1.7,0.6-2.8,0.6C163.4,60.3,162.4,60,161.5,59.4z M166.3,53.1c0.5-0.3,0.9-0.7,1.1-1.2s0.4-1.1,0.4-1.9
				c0-1.1-0.3-1.9-0.9-2.6c-0.6-0.6-1.3-0.9-2.2-0.9c-0.6,0-1.1,0.1-1.6,0.4c-0.5,0.3-0.9,0.7-1.1,1.2c-0.3,0.5-0.4,1.1-0.4,1.9
				c0,0.7,0.1,1.4,0.4,1.9s0.7,0.9,1.1,1.2c0.5,0.3,1,0.4,1.6,0.4C165.3,53.5,165.9,53.3,166.3,53.1z"/>
			<path class="st0" d="M175.7,55.4c-0.4-0.2-0.8-0.4-1-0.6c-0.6-0.6-0.9-1.4-0.9-2.5v-5.5h-1.9v-2h1.9v-3h2.3v3h2.6v2h-2.6v5
				c0,0.6,0.1,1,0.3,1.2c0.2,0.3,0.6,0.4,1.1,0.4c0.2,0,0.4,0,0.6-0.1c0.2-0.1,0.4-0.2,0.6-0.3v2.2c-0.5,0.2-1,0.3-1.7,0.3
				C176.6,55.6,176.2,55.6,175.7,55.4z"/>
			<path class="st0" d="M182,55.4c-0.6-0.3-1.1-0.7-1.4-1.3c-0.3-0.6-0.5-1.2-0.5-1.9c0-1.1,0.4-2,1.3-2.6c0.8-0.6,1.9-1,3.2-1
				c0.6,0,1.2,0.1,1.7,0.2s0.9,0.2,1.2,0.4v-0.5c0-0.7-0.2-1.2-0.7-1.6c-0.5-0.4-1.1-0.6-1.9-0.6c-0.5,0-1.1,0.1-1.5,0.4
				c-0.5,0.2-0.9,0.6-1.2,1l-1.6-1.2c0.5-0.7,1.1-1.2,1.8-1.5s1.6-0.5,2.5-0.5c1.6,0,2.8,0.4,3.6,1.1s1.3,1.8,1.3,3.2v6.7h-2.3v-1.3
				h-0.1c-0.3,0.5-0.7,0.8-1.3,1.2c-0.6,0.3-1.2,0.5-1.9,0.5C183.3,55.8,182.6,55.7,182,55.4z M186,53.5c0.4-0.3,0.8-0.6,1.1-1.1
				c0.3-0.4,0.4-0.9,0.4-1.4c-0.3-0.2-0.7-0.3-1.1-0.4c-0.4-0.1-0.9-0.2-1.3-0.2c-0.9,0-1.5,0.2-1.9,0.5c-0.4,0.3-0.6,0.8-0.6,1.3
				c0,0.5,0.2,0.9,0.6,1.2c0.4,0.3,0.9,0.5,1.5,0.5C185,53.9,185.5,53.8,186,53.5z"/>
			<path class="st0" d="M195.9,55.3c-0.6-0.3-1.1-0.7-1.4-1.2h-0.1v1.4h-2.2v-15h2.3v4.2l-0.1,1.5h0.1c0.3-0.5,0.8-0.9,1.4-1.2
				s1.3-0.5,2-0.5c1,0,1.8,0.2,2.6,0.7c0.8,0.5,1.4,1.2,1.9,2c0.5,0.9,0.7,1.8,0.7,2.9c0,1.1-0.2,2.1-0.7,2.9
				c-0.5,0.9-1.1,1.5-1.9,2c-0.8,0.5-1.7,0.7-2.6,0.7C197.2,55.8,196.5,55.6,195.9,55.3z M199.2,53.2c0.5-0.3,0.9-0.7,1.2-1.3
				c0.3-0.5,0.4-1.2,0.4-1.9c0-0.7-0.1-1.3-0.4-1.9c-0.3-0.5-0.7-1-1.2-1.2c-0.5-0.3-1-0.4-1.6-0.4c-0.6,0-1.1,0.1-1.6,0.4
				s-0.9,0.7-1.2,1.2c-0.3,0.5-0.4,1.2-0.4,1.9c0,0.7,0.1,1.3,0.4,1.9c0.3,0.5,0.7,1,1.2,1.3s1,0.4,1.6,0.4
				C198.1,53.7,198.7,53.5,199.2,53.2z"/>
			<path class="st0" d="M205.1,40.4h2.3v15h-2.3V40.4z"/>
			<path class="st0" d="M212.1,55.1c-0.8-0.5-1.5-1.2-2-2c-0.5-0.9-0.7-1.8-0.7-2.9c0-1,0.2-2,0.7-2.8c0.5-0.9,1.1-1.6,1.9-2.1
				c0.8-0.5,1.7-0.8,2.8-0.8c1.1,0,2,0.2,2.8,0.7c0.8,0.5,1.4,1.1,1.8,2c0.4,0.8,0.6,1.8,0.6,2.8c0,0.2,0,0.4-0.1,0.7h-8.2
				c0.1,1,0.4,1.8,1.1,2.3c0.6,0.5,1.3,0.8,2.2,0.8c0.7,0,1.2-0.2,1.7-0.5c0.5-0.3,0.9-0.7,1.2-1.2l2,0.9c-0.5,0.9-1.2,1.6-2,2.1
				c-0.8,0.5-1.8,0.8-2.9,0.8C213.8,55.8,212.9,55.6,212.1,55.1z M217.6,48.9c0-0.4-0.1-0.8-0.4-1.1s-0.5-0.7-1-0.9
				c-0.4-0.3-0.9-0.4-1.6-0.4c-0.7,0-1.4,0.2-1.9,0.7c-0.5,0.4-0.9,1-1.1,1.8H217.6z"/>
		</g>
	</g>
	<g>
		<g id="BASE">
			<path class="st0" d="M15.2,58.9L0.8,34.1c-1.1-1.9-1.1-4.3,0-6.3L15.2,3.1C16.3,1.2,18.4,0,20.6,0h28.7c2.2,0,4.3,1.2,5.4,3.1
				l14.4,24.7c1.1,1.9,1.1,4.3,0,6.3L54.8,58.9c-1.1,1.9-3.2,3.1-5.4,3.1H20.6C18.4,62,16.3,60.8,15.2,58.9z"/>
		</g>
		<g id="shadow">
			<g>
				<g>
					<defs>
						<path id="SVGID_5_" d="M15.2,58.9L0.8,34.1c-1.1-1.9-1.1-4.3,0-6.3L15.2,3.1C16.3,1.2,18.4,0,20.6,0h28.7
							c2.2,0,4.3,1.2,5.4,3.1l14.4,24.7c1.1,1.9,1.1,4.3,0,6.3L54.8,58.9c-1.1,1.9-3.2,3.1-5.4,3.1H20.6
							C18.4,62,16.3,60.8,15.2,58.9z"/>
					</defs>
					<clipPath id="SVGID_1_">
						<use xlink:href="#SVGID_5_"  style="overflow:visible;"/>
					</clipPath>
				</g>
			</g>
		</g>
		<g id="art">
			<g>
				<g>
					<g>
						<path class="st1" d="M45.8,21l0,11.3c0,0.2-0.1,0.5-0.3,0.6l-1.8,1.1l0-11.6c0-0.5-0.3-0.9-0.7-1.2l-9.1-5.2
							c-1.4-0.8-2.3-2.3-2.5-3.9l13.8,7.9C45.5,20.1,45.8,20.5,45.8,21z"/>
					</g>
					<g>
						<path class="st1" d="M49.1,35.3l-9.8,5.6c-0.2,0.1-0.5,0.1-0.7,0l-1.8-1.1L46.9,34c0.4-0.2,0.7-0.7,0.7-1.2l0-10.5
							c0-1.6,0.8-3.2,2.2-4.1l0,15.8C49.8,34.6,49.5,35,49.1,35.3z"/>
					</g>
					<g>
						<path class="st1" d="M38.3,45.3l-9.8-5.6c-0.2-0.1-0.3-0.3-0.3-0.6V37l10.1,5.8c0.4,0.2,0.9,0.2,1.4,0l9.1-5.2
							c1.4-0.8,3.2-0.9,4.6-0.2l-13.7,7.9C39.3,45.5,38.7,45.5,38.3,45.3z"/>
					</g>
					<g>
						<path class="st1" d="M24.2,41l0-11.3c0-0.2,0.1-0.5,0.3-0.6l1.8-1.1l0,11.6c0,0.5,0.3,0.9,0.7,1.2l9.1,5.2
							c1.4,0.8,2.3,2.3,2.5,3.9l-13.8-7.9C24.5,41.9,24.2,41.5,24.2,41z"/>
					</g>
					<g>
						<path class="st1" d="M20.9,26.7l9.8-5.6c0.2-0.1,0.5-0.1,0.7,0l1.8,1.1L23.1,28c-0.4,0.2-0.7,0.7-0.7,1.2l0,10.5
							c0,1.6-0.8,3.2-2.2,4.1l0-15.8C20.3,27.4,20.5,27,20.9,26.7z"/>
					</g>
					<g>
						<path class="st1" d="M31.7,16.7l9.8,5.6c0.2,0.1,0.3,0.3,0.3,0.6V25l-10.1-5.8c-0.4-0.2-0.9-0.2-1.4,0l-9.1,5.2
							c-1.4,0.8-3.2,0.9-4.6,0.2l13.7-7.9C30.8,16.5,31.3,16.5,31.7,16.7z"/>
					</g>
				</g>
				<g>
					<path class="st1" d="M35,33.9c-0.1,0-0.3,0-0.4-0.1l-6.5-3.7v1.6l6.8,3.9l6.8-3.9v-1.6l-6.5,3.7C35.3,33.9,35.1,33.9,35,33.9z"
						/>
					<path class="st1" d="M35.4,37.1c-0.1,0.1-0.2,0.1-0.4,0.1c-0.1,0-0.3,0-0.4-0.1l-6.5-3.7v1.2c0,0.3,0.1,0.5,0.4,0.6l6.1,3.5
						c0.2,0.1,0.5,0.1,0.7,0l6.1-3.5c0.2-0.1,0.4-0.4,0.4-0.6v-1.2L35.4,37.1z"/>
					<path class="st1" d="M35,32.3l6.8-3.9v-0.8c0-0.3-0.1-0.5-0.4-0.6l-6.1-3.5c-0.2-0.1-0.5-0.1-0.7,0L28.5,27
						c-0.2,0.1-0.4,0.4-0.4,0.6v0.8L35,32.3z"/>
				</g>
			</g>
		</g>
		<g id="Guides" class="st2">
		</g>
	</g>
</g>
</svg>
