<svg width="283" height="254" viewBox="0 0 283 254" fill="none" xmlns="http://www.w3.org/2000/svg">
<path d="M61.3781 238.927L3.40243 138.51C-1.13414 130.653 -1.13414 120.972 3.40243 113.114L61.3781 12.698C65.9146 4.84047 74.2987 0 83.3718 0H199.323C208.396 0 216.78 4.84047 221.317 12.698L279.293 113.114C283.829 120.972 283.829 130.653 279.293 138.51L221.317 238.927C216.78 246.784 208.396 251.625 199.323 251.625H83.3718C74.2987 251.625 65.9146 246.785 61.3781 238.927Z" fill="url(#paint0_linear)"/>
<path opacity="0.07" d="M275.517 149.186L200.799 74.4686L198.041 96.2652L183.207 81.4304L131.524 60.2666L160.409 89.1517L125.428 72.6232L67.0843 100.045L82.9132 115.874L81.8367 177.281L158.234 253.678L215.703 254L275.517 149.186Z" fill="black"/>
<path d="M184.831 85.3023L184.875 130.967C184.876 131.951 184.351 132.862 183.498 133.354L176.088 137.632L176.059 90.3685C176.058 88.402 175.008 86.5855 173.305 85.6022L136.44 64.3182C130.715 61.0143 127.01 55.0457 126.533 48.5079L182.074 80.5365C183.778 81.5191 184.829 83.3356 184.831 85.3023Z" fill="white"/>
<path d="M198.173 143.215L158.648 166.085C157.796 166.578 156.745 166.579 155.892 166.086L148.482 161.808L189.399 138.151C191.102 137.167 192.15 135.35 192.15 133.383L192.15 90.8156C192.149 84.2054 195.465 78.0129 200.889 74.3308L200.922 138.445C200.923 140.412 199.875 142.23 198.173 143.215Z" fill="white"/>
<path d="M154.69 183.725L115.122 160.931C114.268 160.44 113.742 159.53 113.742 158.545V149.989L154.688 173.595C156.392 174.577 158.49 174.577 160.193 173.594L197.058 152.31C202.782 149.003 209.803 148.779 215.703 151.635L160.195 183.721C158.493 184.705 156.394 184.707 154.69 183.725Z" fill="white"/>
<path d="M97.8657 166.324L97.8215 120.659C97.8206 119.675 98.3456 118.764 99.1983 118.272L106.608 113.994L106.638 161.258C106.639 163.224 107.688 165.041 109.391 166.024L146.256 187.308C151.981 190.612 155.686 196.58 156.163 203.118L100.622 171.089C98.9181 170.107 97.8677 168.29 97.8657 166.324Z" fill="white"/>
<path d="M84.5236 108.411L124.048 85.541C124.9 85.0478 125.951 85.0474 126.804 85.5397L134.214 89.8178L93.297 113.475C91.5947 114.459 90.5463 116.276 90.5463 118.243L90.5461 160.81C90.5474 167.421 87.2308 173.613 81.8073 177.295L81.7744 113.181C81.7735 111.214 82.8212 109.396 84.5236 108.411Z" fill="white"/>
<path d="M128.006 67.9006L167.575 90.6943C168.428 91.186 168.954 92.0957 168.954 93.0804V101.637L128.008 78.0303C126.304 77.0482 124.206 77.0488 122.503 78.0321L85.6383 99.3158C79.9144 102.622 72.8932 102.846 66.9926 99.9903L122.501 67.9046C124.203 66.9205 126.302 66.9189 128.006 67.9006Z" fill="white"/>
<path d="M141.332 137.531C140.81 137.531 140.285 137.396 139.818 137.125L113.72 122.059V128.631L141.332 144.573L168.944 128.63V122.058L142.846 137.126C142.378 137.396 141.853 137.531 141.332 137.531Z" fill="white"/>
<path d="M142.846 150.694C142.378 150.964 141.853 151.1 141.332 151.1C140.81 151.1 140.285 150.964 139.818 150.694L113.72 135.626V140.488C113.72 141.531 114.277 142.495 115.18 143.016L139.872 157.272C140.776 157.793 141.889 157.793 142.792 157.272L167.485 143.016C168.388 142.495 168.944 141.531 168.944 140.488V135.625L142.846 150.694Z" fill="white"/>
<path d="M141.332 131.005L168.944 115.063V111.975C168.944 110.932 168.388 109.968 167.485 109.447L142.792 95.191C141.889 94.6693 140.776 94.6693 139.872 95.191L115.18 109.447C114.277 109.968 113.72 110.932 113.72 111.975V115.064L141.332 131.005Z" fill="white"/>
<defs>
<linearGradient id="paint0_linear" x1="141.347" y1="0" x2="141.347" y2="251.235" gradientUnits="userSpaceOnUse">
<stop stop-color="#4387FD"/>
<stop offset="1" stop-color="#4683EA"/>
</linearGradient>
</defs>
</svg>
