<?xml version="1.0" encoding="utf-8"?>
<!-- Generator: Adobe Illustrator 24.0.2, SVG Export Plug-In . SVG Version: 6.00 Build 0)  -->
<svg version="1.1" id="Layer_1" xmlns="http://www.w3.org/2000/svg" xmlns:xlink="http://www.w3.org/1999/xlink" x="0px" y="0px"
	 viewBox="0 0 228 62" style="enable-background:new 0 0 228 62;" xml:space="preserve">
<style type="text/css">
	.st0{fill:#FFFFFF;}
	.st1{fill-rule:evenodd;clip-rule:evenodd;fill:#FFFFFF;}
	.st2{fill-rule:evenodd;clip-rule:evenodd;fill:#384F7F;}
</style>
<g>
	<g id="g885_2_">
		<path id="path8_2_" class="st0" d="M101.7,15H90.1v3.4h8.2c-0.4,4.8-4.4,6.9-8.2,6.9c-5,0-9.1-4-9.1-9l0,0l0,0v-0.2
			c0-4.9,4-9.1,9-9.1c0.1,0,0.1,0,0.2,0c2.3,0,4.5,0.9,6.2,2.5L98.7,7c-2.3-2.3-5.5-3.5-8.7-3.4C83,3.4,77.2,9,77.1,15.9
			c-0.2,7,5.4,12.8,12.3,12.9c0.3,0,0.5,0,0.8,0c6.7,0,11.7-4.6,11.7-11.5C101.9,16.6,101.8,15.8,101.7,15L101.7,15L101.7,15z"/>
		<path id="path10_2_" class="st0" d="M111.2,12.5c-4.4-0.1-8.1,3.4-8.2,7.9l0,0l0,0v0.2c0,4.5,3.6,8.2,8.1,8.2s8.2-3.6,8.2-8.1
			C119.3,15.3,115.1,12.5,111.2,12.5z M111.2,15.7c2.3,0,4.5,1.9,4.5,5s-2.2,4.9-4.6,4.9c-2.6,0-4.6-2.1-4.6-5
			S108.6,15.8,111.2,15.7L111.2,15.7z"/>
		<path id="path12_2_" class="st0" d="M128.9,12.5c-4.4-0.1-8.1,3.5-8.2,7.9l0,0l0,0v0.2c0,4.5,3.6,8.2,8.1,8.2
			c4.5,0,8.2-3.6,8.2-8.1C137.1,15.3,132.8,12.6,128.9,12.5L128.9,12.5L128.9,12.5z M129,15.7c2.3,0,4.5,1.9,4.5,5s-2.2,4.9-4.6,4.9
			c-2.6,0-4.6-2.1-4.6-5S126.3,15.8,129,15.7L129,15.7z"/>
		<path id="path14_2_" class="st0" d="M146.3,12.5c-4.3,0-7.8,3.8-7.8,8.1c-0.1,4.4,3.4,8,7.7,8.1c1.7,0.1,3.4-0.6,4.4-2v1.6
			c0,2.8-1.7,4.5-4.3,4.5c-1.8,0-3.5-1.2-4.1-2.9l-3.1,1.3c1.1,2.3,3.3,4.8,7.3,4.8c4.3,0,7.6-2.7,7.6-8.5V13h-3.4v1.4
			C149.6,13.2,148,12.5,146.3,12.5z M146.6,15.7c2.1,0,4.3,1.8,4.3,5s-2.2,4.9-4.4,4.9c-2.3,0-4.5-1.9-4.5-4.9
			C142.1,17.6,144.3,15.7,146.6,15.7L146.6,15.7L146.6,15.7z"/>
		<path id="path16_2_" class="st0" d="M169.2,12.5c-4.1,0-7.6,3.3-7.6,8.1c-0.2,4.3,3.2,8,7.6,8.1c0.1,0,0.3,0,0.4,0
			c2.7,0,5.3-1.3,6.8-3.6l-2.8-1.9c-0.8,1.4-2.3,2.3-4,2.2c-1.7,0.1-3.3-0.9-4-2.5l10.9-4.5l-0.6-1.3
			C174.9,14.5,172.2,12.6,169.2,12.5L169.2,12.5L169.2,12.5z M169.3,15.6c1.3-0.1,2.4,0.6,3,1.7l-7.3,3.1
			C164.8,18.1,167,15.7,169.3,15.6L169.3,15.6L169.3,15.6z"/>
		<path id="path18_2_" class="st0" d="M156.4,28.3h3.6V4.4h-3.6V28.3z"/>
	</g>
	<g>
		<path class="st0" d="M81.9,55.2c-1.2-0.7-2.1-1.6-2.8-2.8c-0.7-1.2-1-2.5-1-4s0.3-2.8,1-4s1.6-2.1,2.8-2.8c1.2-0.7,2.5-1,4-1
			c1.1,0,2.2,0.2,3.1,0.6s1.8,1,2.5,1.8l-1.7,1.6c-0.5-0.6-1.1-1.1-1.7-1.4c-0.6-0.3-1.3-0.5-2.2-0.5c-1,0-1.9,0.2-2.8,0.7
			c-0.8,0.5-1.5,1.1-2,2c-0.5,0.8-0.7,1.8-0.7,3s0.2,2.1,0.7,3c0.5,0.8,1.1,1.5,2,2c0.8,0.5,1.8,0.7,2.8,0.7c1.7,0,3.1-0.7,4.3-2.1
			l1.7,1.6c-0.7,0.9-1.6,1.5-2.6,2s-2.1,0.7-3.4,0.7C84.5,56.2,83.1,55.9,81.9,55.2z"/>
		<path class="st0" d="M93.9,40.9h2.3v15h-2.3V40.9z"/>
		<path class="st0" d="M100.9,55.5c-0.9-0.5-1.5-1.2-2-2c-0.5-0.9-0.7-1.8-0.7-2.9c0-1.1,0.2-2,0.7-2.9s1.1-1.6,2-2
			c0.9-0.5,1.8-0.7,2.9-0.7s2,0.3,2.9,0.8s1.5,1.2,2,2.1c0.5,0.9,0.7,1.8,0.7,2.9c0,1.1-0.2,2-0.7,2.9s-1.1,1.6-2,2
			c-0.9,0.5-1.8,0.7-2.9,0.7C102.8,56.2,101.8,56,100.9,55.5z M105.5,53.7c0.5-0.3,0.9-0.7,1.2-1.2c0.3-0.5,0.5-1.2,0.5-1.9
			s-0.2-1.4-0.5-1.9s-0.7-0.9-1.2-1.2s-1-0.4-1.6-0.4s-1.1,0.1-1.6,0.4c-0.5,0.3-0.9,0.7-1.2,1.2c-0.3,0.5-0.5,1.2-0.5,1.9
			s0.2,1.4,0.5,1.9s0.7,1,1.2,1.2c0.5,0.3,1,0.4,1.6,0.4C104.4,54.1,105,54,105.5,53.7z"/>
		<path class="st0" d="M112.4,55.1c-0.7-0.8-1-1.9-1-3.2v-6.6h2.3v6.3c0,0.9,0.2,1.5,0.6,2c0.4,0.4,1,0.7,1.6,0.7
			c0.5,0,1-0.1,1.4-0.4c0.4-0.3,0.7-0.7,1-1.1c0.2-0.5,0.3-1,0.3-1.5v-5.8h2.3v10.7h-2.2v-1.4h-0.1c-0.3,0.5-0.7,0.9-1.4,1.2
			c-0.6,0.3-1.3,0.5-1.9,0.5C114,56.2,113.1,55.8,112.4,55.1z"/>
		<path class="st0" d="M125.5,55.5c-0.8-0.5-1.4-1.2-1.9-2c-0.5-0.9-0.7-1.8-0.7-2.9c0-1.1,0.2-2.1,0.7-2.9c0.5-0.9,1.1-1.5,1.9-2
			s1.7-0.7,2.6-0.7c0.8,0,1.4,0.2,2,0.5s1.1,0.7,1.4,1.2h0.1l-0.1-1.5V41h2.3v15h-2.2v-1.4h-0.1c-0.3,0.5-0.8,0.9-1.4,1.2
			c-0.6,0.3-1.3,0.5-2,0.5C127.1,56.2,126.3,56,125.5,55.5z M130,53.7c0.5-0.3,0.9-0.7,1.2-1.3c0.3-0.5,0.4-1.2,0.4-1.9
			s-0.1-1.3-0.4-1.9c-0.3-0.5-0.7-1-1.2-1.2c-0.5-0.3-1-0.4-1.6-0.4c-0.6,0-1.1,0.1-1.6,0.4c-0.5,0.3-0.9,0.7-1.2,1.2
			c-0.3,0.5-0.4,1.2-0.4,1.9s0.1,1.3,0.4,1.9c0.3,0.5,0.7,1,1.2,1.3s1,0.4,1.6,0.4C129,54.1,129.5,54,130,53.7z"/>
		<path class="st0" d="M141.8,40.9h4.8c1.6,0,2.9,0.3,4.1,0.9c1.2,0.6,2.1,1.5,2.7,2.7c0.6,1.1,0.9,2.4,0.9,3.9s-0.3,2.8-0.9,3.9
			c-0.6,1.1-1.5,2-2.7,2.7c-1.2,0.6-2.5,0.9-4.1,0.9h-4.8V40.9z M146.5,53.7c1.7,0,3-0.5,3.9-1.4s1.4-2.2,1.4-3.9
			c0-1.6-0.5-2.9-1.4-3.9c-0.9-0.9-2.3-1.4-3.9-1.4h-2.4v10.5h2.4V53.7z"/>
		<path class="st0" d="M157.8,55.8c-0.6-0.3-1.1-0.7-1.4-1.3c-0.3-0.6-0.5-1.2-0.5-1.9c0-1.1,0.4-2,1.2-2.6s1.9-1,3.2-1
			c0.6,0,1.2,0.1,1.7,0.2c0.5,0.1,0.9,0.2,1.2,0.4v-0.5c0-0.7-0.2-1.2-0.7-1.6c-0.5-0.4-1.1-0.6-1.9-0.6c-0.5,0-1.1,0.1-1.5,0.4
			c-0.5,0.2-0.9,0.6-1.2,1l-1.6-1.2c0.5-0.7,1.1-1.2,1.8-1.5s1.6-0.5,2.5-0.5c1.6,0,2.7,0.4,3.6,1.1c0.8,0.8,1.3,1.8,1.3,3.2v6.7
			h-2.3v-1.3h-0.1c-0.3,0.5-0.7,0.8-1.3,1.2c-0.6,0.3-1.2,0.5-1.9,0.5C159.1,56.2,158.4,56.1,157.8,55.8z M161.8,53.9
			c0.4-0.3,0.8-0.6,1-1.1c0.3-0.4,0.4-0.9,0.4-1.4c-0.3-0.2-0.7-0.3-1.1-0.4c-0.4-0.1-0.9-0.2-1.3-0.2c-0.9,0-1.5,0.2-1.9,0.5
			s-0.6,0.8-0.6,1.3s0.2,0.9,0.6,1.2c0.4,0.3,0.9,0.5,1.5,0.5C160.9,54.3,161.4,54.2,161.8,53.9z"/>
		<path class="st0" d="M170.8,55.8c-0.4-0.2-0.8-0.4-1-0.6c-0.6-0.6-0.9-1.4-0.9-2.5v-5.5H167v-2h1.9v-3h2.3v3h2.6v2h-2.6v5
			c0,0.6,0.1,1,0.3,1.2c0.2,0.3,0.6,0.4,1.1,0.4c0.2,0,0.4,0,0.6-0.1c0.2-0.1,0.4-0.2,0.6-0.3v2.2c-0.5,0.2-1,0.3-1.7,0.3
			C171.7,56.1,171.3,56,170.8,55.8z"/>
		<path class="st0" d="M177.1,55.8c-0.6-0.3-1.1-0.7-1.4-1.3c-0.3-0.6-0.5-1.2-0.5-1.9c0-1.1,0.4-2,1.2-2.6s1.9-1,3.2-1
			c0.6,0,1.2,0.1,1.7,0.2c0.5,0.1,0.9,0.2,1.2,0.4v-0.5c0-0.7-0.2-1.2-0.7-1.6c-0.5-0.4-1.1-0.6-1.9-0.6c-0.5,0-1.1,0.1-1.5,0.4
			c-0.5,0.2-0.9,0.6-1.2,1l-1.6-1.2c0.5-0.7,1.1-1.2,1.8-1.5s1.6-0.5,2.5-0.5c1.6,0,2.7,0.4,3.6,1.1c0.8,0.8,1.3,1.8,1.3,3.2v6.7
			h-2.3v-1.3h-0.1c-0.3,0.5-0.7,0.8-1.3,1.2c-0.6,0.3-1.2,0.5-1.9,0.5C178.4,56.2,177.7,56.1,177.1,55.8z M181.1,53.9
			c0.4-0.3,0.8-0.6,1-1.1c0.3-0.4,0.4-0.9,0.4-1.4c-0.3-0.2-0.7-0.3-1.1-0.4c-0.4-0.1-0.9-0.2-1.3-0.2c-0.9,0-1.5,0.2-1.9,0.5
			s-0.6,0.8-0.6,1.3s0.2,0.9,0.6,1.2c0.4,0.3,0.9,0.5,1.5,0.5C180.1,54.3,180.6,54.2,181.1,53.9z"/>
		<path class="st0" d="M188.3,47.2h-1.9v-2h1.9v-0.6c0-1.2,0.3-2.1,1-2.8s1.6-1,2.9-1h5.3v15.1h-2.3v-13h-3c-0.5,0-0.9,0.1-1.2,0.4
			s-0.4,0.7-0.4,1.3v0.6h2.6v2h-2.6v8.7h-2.3V47.2z"/>
		<path class="st0" d="M202.2,55.5c-0.9-0.5-1.5-1.2-2-2c-0.5-0.9-0.7-1.8-0.7-2.9c0-1.1,0.2-2,0.7-2.9s1.1-1.6,2-2
			c0.9-0.5,1.8-0.7,2.9-0.7c1.1,0,2,0.3,2.9,0.8s1.5,1.2,2,2.1c0.5,0.9,0.7,1.8,0.7,2.9c0,1.1-0.2,2-0.7,2.9s-1.1,1.6-2,2
			c-0.9,0.5-1.8,0.7-2.9,0.7C204,56.2,203.1,56,202.2,55.5z M206.7,53.7c0.5-0.3,0.9-0.7,1.2-1.2s0.5-1.2,0.5-1.9s-0.2-1.4-0.5-1.9
			s-0.7-0.9-1.2-1.2s-1-0.4-1.6-0.4s-1.1,0.1-1.6,0.4s-0.9,0.7-1.2,1.2s-0.5,1.2-0.5,1.9s0.2,1.4,0.5,1.9s0.7,1,1.2,1.2
			c0.5,0.3,1,0.4,1.6,0.4C205.7,54.1,206.2,54,206.7,53.7z"/>
		<path class="st0" d="M211.4,45.2h2.5l2.2,7.7h0.1l2.4-7.7h2.4l2.4,7.7h0.1l2.2-7.7h2.5l-3.4,10.7h-2.4l-2.5-7.7h-0.1l-2.4,7.7H215
			L211.4,45.2z"/>
	</g>
</g>
<g>
	<path class="st1" d="M69.3,28.8c0.9,1.5,0.9,2.9,0,4.4L53.7,59.8c-0.9,1.1-2,1.7-3.5,1.7H19.6c-1.5,0-2.6-0.6-3.5-1.7L0.6,33.2
		c-0.9-1.5-0.9-2.9,0-4.4L16.1,2.2c0.9-1.1,2-1.7,3.5-1.7h30.6c1.5,0,2.6,0.6,3.5,1.7L69.3,28.8z"/>
	<path class="st2" d="M33.4,21.8v3.1h3.5v-3.1l7,3.9v1.7h3.3v-3.3L38.3,19l5.9-3.3l-2.9-2l-6.1,3.5L29,13.7l-2.9,2L32,19L23,24.2
		v3.3h3.3v-1.7L33.4,21.8z M33.4,40.2v-3.1h3.5v3.1l7-3.9v-1.7h3.3v3.3L38.3,43l5.9,3.3l-2.9,2l-6.1-3.5L29,48.3l-2.9-2L32,43
		L23,37.8v-3.3h3.3v1.7L33.4,40.2z"/>
	<circle class="st2" cx="24.9" cy="31" r="2"/>
	<circle class="st2" cx="35.2" cy="33.9" r="2"/>
	<circle class="st2" cx="35.2" cy="28.1" r="2"/>
	<circle class="st2" cx="45.4" cy="31" r="2"/>
</g>
</svg>
