<svg xmlns="http://www.w3.org/2000/svg" xmlns:xlink="http://www.w3.org/1999/xlink" viewBox="0 0 81 71" fill="#fff" fill-rule="evenodd" stroke="#000" stroke-linecap="round" stroke-linejoin="round"><use xlink:href="#B" x=".5"/><defs><linearGradient id="A" x1="50%" y1="0%" x2="50%" y2="100%"><stop offset="0%" stop-color="#4387fd"/><stop offset="100%" stop-color="#4683ea"/></linearGradient></defs><symbol id="B" overflow="visible"><g stroke="none"><path d="M79.25 37.5q1.5-2.5 0-5L61.5 2q-1.5-2-4-2h-35q-2.5 0-4 2L.75 32.5q-1.5 2.5 0 5L18.5 68q1.5 2 4 2h35q2.5 0 4-2z" fill="url(#A)"/><path d="M57.47 70q2.5 0 4-2L76 43.03 50.47 17.5 40.22 21l-10.25-3.5 6.25 6.25L26.47 31l3.5 3.5-2.75 2.5 2.5 2.5-3.25 3.25 9 9-5.5.75L47.47 70z" fill="#000" fill-opacity=".07"/><path d="M38.25 45.543V42h4v3.543l8-4.543v-2H54v3.75l-10.24 5.922L50.5 52.5l-3.25 2.25-7-4.048-7 4.048L30 52.5l6.74-3.828L26.5 42.75V39h3.75v2zm0-21.086V28h4v-3.543l8 4.543v2H54v-3.75l-10.24-5.922L50.5 17.5l-3.25-2.25-7 4.048-7-4.048L30 17.5l6.74 3.828L26.5 27.25V31h3.75v-2z"/><circle cx="28.5" cy="35" r="2.25"/><circle cx="40.25" cy="31.75" r="2.25"/><circle cx="40.25" cy="38.25" r="2.25"/><circle cx="52" cy="35" r="2.25"/></g></symbol></svg>