<svg width="283" height="248" viewBox="0 0 283 248" fill="none" xmlns="http://www.w3.org/2000/svg">
<path fill-rule="evenodd" clip-rule="evenodd" d="M280.04 114.843C283.573 120.85 283.573 126.504 280.04 132.511L217.141 240.286C213.608 244.88 209.014 247.354 203.007 247.354H79.3299C73.3227 247.354 68.729 244.88 65.1954 240.286L2.65022 132.511C-0.883406 126.504 -0.883406 120.85 2.65022 114.843L65.1954 7.06725C68.729 2.47354 73.3227 0 79.3299 0H203.007C209.014 0 213.608 2.47354 217.141 7.06725L280.04 114.843Z" fill="url(#paint0_linear)"/>
<path fill-rule="evenodd" clip-rule="evenodd" d="M217.142 238.52L260.252 165.02L188.873 93.641H166.611V107.069L153.183 93.641L131.981 95.4078L130.921 107.069L116.787 92.9343L94.5248 116.963L106.892 129.331L96.2916 130.391L93.4647 151.592L188.166 245.94H202.3C209.014 245.587 213.608 243.467 217.142 238.52Z" fill="black" fill-opacity="0.07"/>
<path fill-rule="evenodd" clip-rule="evenodd" d="M186.399 91.8743C188.166 91.8743 189.226 92.9344 189.226 94.7012V114.136C189.226 115.903 188.166 116.963 186.399 116.963H166.964C165.197 116.963 164.137 115.903 164.137 114.136V94.7012C164.137 92.9344 165.197 91.8743 166.964 91.8743H186.399ZM169.438 111.309H183.572V97.1747H169.438V111.309ZM115.726 127.211C117.493 127.211 118.553 128.271 118.553 130.037V149.472C118.553 151.239 117.493 152.299 115.726 152.299H96.2915C94.5247 152.299 93.4646 151.239 93.4646 149.472V130.037C93.4646 128.271 94.5247 127.211 96.2915 127.211H115.726ZM98.7651 146.645H112.9V132.511H98.7651V146.645Z" fill="white"/>
<path fill-rule="evenodd" clip-rule="evenodd" d="M115.726 91.8743C117.493 91.8743 118.553 92.9344 118.553 94.7012V114.136C118.553 115.903 117.493 116.963 115.726 116.963H96.2915C94.5247 116.963 93.4646 115.903 93.4646 114.136V94.7012C93.4646 92.9344 94.5247 91.8743 96.2915 91.8743H115.726Z" fill="white"/>
<path fill-rule="evenodd" clip-rule="evenodd" d="M151.063 127.211C152.83 127.211 153.89 128.271 153.89 130.037V149.472C153.89 151.239 152.83 152.299 151.063 152.299H131.628C129.861 152.299 128.801 151.239 128.801 149.472V130.037C128.801 128.271 129.861 127.211 131.628 127.211H151.063Z" fill="white"/>
<path fill-rule="evenodd" clip-rule="evenodd" d="M151.063 91.8743C152.83 91.8743 153.89 92.9344 153.89 94.7012V114.136C153.89 115.903 152.83 116.963 151.063 116.963H131.628C129.861 116.963 128.801 115.903 128.801 114.136V94.7012C128.801 92.9344 129.861 91.8743 131.628 91.8743H151.063ZM134.101 111.309H148.236V97.1747H134.101V111.309Z" fill="white"/>
<path fill-rule="evenodd" clip-rule="evenodd" d="M186.399 127.211C188.166 127.211 189.226 128.271 189.226 130.037V149.472C189.226 151.239 188.166 152.299 186.399 152.299H166.964C165.197 152.299 164.137 151.239 164.137 149.472V130.037C164.137 128.271 165.197 127.211 166.964 127.211H186.399Z" fill="white"/>
<defs>
<linearGradient id="paint0_linear" x1="141.239" y1="247.407" x2="141.239" y2="0.0530174" gradientUnits="userSpaceOnUse">
<stop stop-color="#4387FD"/>
<stop offset="1" stop-color="#4683EA"/>
</linearGradient>
</defs>
</svg>
