<?xml version="1.0" encoding="utf-8"?>
<!-- Generator: Adobe Illustrator 24.0.2, SVG Export Plug-In . SVG Version: 6.00 Build 0)  -->
<svg version="1.1" id="Layer_1" xmlns="http://www.w3.org/2000/svg" xmlns:xlink="http://www.w3.org/1999/xlink" x="0px" y="0px"
	 viewBox="0 0 221 70" style="enable-background:new 0 0 221 70;" xml:space="preserve">
<style type="text/css">
	.st0{fill:#D1D1D1;}
	.st1{fill:#EDEDED;}
	.st2{fill:#FFFFFF;}
</style>
<g transform="matrix(.090203 0 0 .090203 11.921255 15.418666)">
	<g>
		<g>
			<g>
				<path id="D_9_" class="st0" d="M-112.7,451.8l3.6-7L111.6,24.7l-98.1-186c-8.2-15.4-28.9-11.4-31.6,5.7L-112.7,451.8z"/>
			</g>
		</g>
	</g>
	<g>
		<g>
			<g>
				<path id="C_9_" class="st0" d="M183.3,158.1L254.5,85l-71.2-136c-6.8-12.9-23.2-14.3-29.9-1.3l-39.4,76l-1.2,3.9L183.3,158.1z"
					/>
			</g>
		</g>
	</g>
	<path class="st1" d="M112.3,20.3l-227.9,436.5l2.1-2.2l7.8-3.2L180,166.3l3.6-9.9L112.3,20.3z"/>
	<path class="st2" d="M449.9,454.9L376.6,2.7c-2.3-14.2-16.8-20-26.9-9.9l-462.3,463.1l254.2,142.4c16.1,9,35.7,9,51.9,0
		L449.9,454.9z"/>
</g>
<path class="st2" d="M70.2,51.3h-4.1V19.7h18.5v3.9H70.2V34h13v3.8h-13V51.3z M91.8,24.2c-0.6,0.6-1.2,0.8-2,0.8
	c-0.8,0-1.5-0.3-2-0.8c-0.5-0.5-0.9-1.3-0.8-2c0-0.8,0.3-1.5,0.8-2c0.5-0.5,1.3-0.9,2-0.8c0.8,0,1.5,0.3,2,0.8
	c0.5,0.5,0.9,1.3,0.8,2C92.6,23,92.3,23.7,91.8,24.2z M91.8,51.3h-4.1V29.7h4.1V51.3z M100.6,51.3h-4.1V29.7h3.9v3.5h0.2
	c0.4-1.2,1.3-2.2,2.5-2.9c1.3-0.8,2.5-1.2,3.7-1.2c1.2,0,2.2,0.2,3.1,0.5l-1.5,3.8c-0.5-0.2-1.3-0.3-2.2-0.3c-1.5,0-2.8,0.6-3.9,1.7
	c-1.1,1.2-1.7,2.7-1.7,4.6L100.6,51.3L100.6,51.3z M120.6,52c-3.3,0-5.9-1.1-8-3.3s-3.1-4.9-3.1-8.3c0-3.2,1-5.9,3-8.1
	s4.6-3.4,7.6-3.4c3.2,0,5.8,1,7.7,3.1c1.9,2.1,2.9,4.9,2.9,8.4l0,0.8h-17.1c0.1,2.2,0.8,3.9,2.2,5.2c1.3,1.2,3,1.9,4.7,1.9
	c2.9,0,4.9-1.2,5.9-3.7l3.6,1.5c-0.7,1.7-1.9,3.1-3.5,4.2C124.9,51.5,123,52,120.6,52L120.6,52z M126.4,37.9
	c-0.1-1.2-0.7-2.4-1.7-3.5c-1-1.1-2.6-1.7-4.7-1.7c-1.5,0-2.8,0.5-3.9,1.4c-1.1,0.9-1.9,2.2-2.3,3.8L126.4,37.9L126.4,37.9z
	 M145.5,52c-1.7,0-3.1-0.4-4.4-1.1s-2.3-1.6-3-2.7h-0.2v3H134V19.7h4.1v10l-0.2,3h0.2c0.6-1.1,1.6-1.9,3-2.7
	c1.3-0.7,2.8-1.1,4.4-1.1c2.8,0,5.2,1.1,7.3,3.3c2,2.2,3.1,5,3.1,8.2s-1,6-3.1,8.2C150.7,50.9,148.3,52,145.5,52L145.5,52z
	 M144.8,48.3c1.9,0,3.5-0.7,4.9-2.1c1.4-1.4,2-3.3,2-5.7s-0.7-4.3-2-5.7c-1.4-1.4-3-2.1-4.9-2.1c-1.9,0-3.6,0.7-4.9,2.1
	c-1.3,1.4-2,3.3-2,5.7s0.7,4.3,2,5.7S142.9,48.3,144.8,48.3L144.8,48.3z M166.5,52c-2.3,0-4.2-0.7-5.8-2c-1.5-1.3-2.3-3.1-2.3-5.2
	c0-2.4,0.9-4.2,2.7-5.6c1.8-1.3,4.1-2,6.8-2c2.4,0,4.3,0.4,5.9,1.3v-0.6c0-1.6-0.5-2.9-1.6-3.8c-1.1-1-2.4-1.4-4-1.4
	c-1.2,0-2.2,0.3-3.2,0.8c-0.9,0.5-1.6,1.3-2,2.3l-3.7-1.6c0.5-1.3,1.5-2.5,3-3.6s3.4-1.7,5.8-1.7c2.8,0,5.1,0.8,6.9,2.4
	c1.8,1.6,2.7,3.9,2.7,6.9v13.1h-3.9v-3h-0.2C172,50.8,169.6,52.1,166.5,52L166.5,52z M167.2,48.3c1.7,0,3.2-0.6,4.6-1.9
	s2.1-2.7,2.1-4.4c-1.1-0.9-2.9-1.4-5.2-1.4c-2,0-3.5,0.4-4.5,1.3c-1,0.9-1.5,1.9-1.5,3c0,1.1,0.5,1.9,1.4,2.5
	C164.9,48,166,48.3,167.2,48.3L167.2,48.3z M189.5,52c-2.4,0-4.4-0.6-6-1.8c-1.5-1.1-2.7-2.7-3.5-4.4l3.6-1.5
	c1.1,2.7,3.1,4.1,5.9,4.1c1.3,0,2.3-0.3,3.1-0.8s1.2-1.3,1.2-2.2c0-1.4-1-2.4-3-2.9l-4.4-1.1c-1.4-0.4-2.7-1-3.9-2
	c-1.2-1-1.9-2.3-1.9-4c0-1.9,0.8-3.5,2.5-4.7c1.7-1.2,3.7-1.8,6-1.8c1.9,0,3.6,0.5,5.1,1.3s2.6,2.1,3.2,3.7l-3.5,1.5
	c-0.8-1.9-2.4-2.9-5-2.9c-1.2,0-2.2,0.2-3.1,0.8c-0.8,0.5-1.2,1.2-1.2,2c0,1.2,1,2.1,2.9,2.5l4.3,1c2,0.5,3.5,1.3,4.5,2.4
	c1,1.1,1.5,2.4,1.5,3.9c0,1.9-0.8,3.6-2.4,4.9C194.1,51.4,192,52,189.5,52L189.5,52z M211.2,52c-3.3,0-5.9-1.1-8-3.3
	s-3.1-4.9-3.1-8.3c0-3.2,1-5.9,3-8.1s4.6-3.4,7.6-3.4c3.2,0,5.8,1,7.7,3.1c1.9,2.1,2.9,4.9,2.9,8.4v0.8h-17.1
	c0.1,2.2,0.8,3.9,2.2,5.2c1.3,1.2,2.9,1.9,4.7,1.9c2.9,0,4.9-1.2,5.9-3.7l3.6,1.5c-0.7,1.7-1.9,3.1-3.5,4.2
	C215.6,51.5,213.6,52,211.2,52L211.2,52z M217,37.9c-0.1-1.2-0.7-2.4-1.7-3.5c-1-1.1-2.6-1.7-4.7-1.7c-1.4,0-2.8,0.5-3.9,1.4
	c-1.1,0.9-1.9,2.2-2.3,3.8L217,37.9L217,37.9z"/>
</svg>
