<?xml version="1.0" encoding="utf-8"?>
<!-- Generator: Adobe Illustrator 24.0.2, SVG Export Plug-In . SVG Version: 6.00 Build 0)  -->
<svg version="1.1" id="Layer_1" xmlns="http://www.w3.org/2000/svg" xmlns:xlink="http://www.w3.org/1999/xlink" x="0px" y="0px"
	 viewBox="0 0 150 62" style="enable-background:new 0 0 150 62;" xml:space="preserve">
<style type="text/css">
	.st0{fill:none;}
	.st1{fill:#FEBB22;}
	.st2{fill:#311E0F;}
</style>
<g>
	<path class="st0" d="M10.3,48.6c-0.7,0-1.2,0.2-1.5,0.7c-0.4,0.5-0.6,1.2-0.6,2V52c0,0.9,0.2,1.6,0.6,2.1c0.4,0.5,0.9,0.8,1.6,0.8
		c0.7,0,1.2-0.2,1.5-0.7c0.4-0.5,0.6-1.2,0.6-2.1v-0.6c0-0.9-0.2-1.6-0.6-2.1C11.5,48.9,11,48.6,10.3,48.6z"/>
	<path class="st0" d="M64.2,12.3c-5.9,0-10.7,4.8-10.7,10.7c0,5.9,4.8,10.7,10.7,10.7c5.9,0,10.7-4.8,10.7-10.7
		C74.9,17.1,70.1,12.3,64.2,12.3z"/>
	<path class="st0" d="M96.8,12.3C90.8,12.3,86,17.1,86,23c0,5.9,4.8,10.7,10.7,10.7c5.9,0,10.7-4.8,10.7-10.7
		C107.5,17.1,102.7,12.3,96.8,12.3z"/>
	<polygon class="st0" points="48.4,52.7 51,52.7 49.7,49.1 	"/>
	<path class="st1" d="M37.2,32.3c-1.3-1.4-2.6-2.7-3.9-3.8c-2.3-1.8-3.9-0.2-4.7,0.5c-2.6,2.3-6,3.8-9.7,3.8
		c-7.9,0-14.3-6.4-14.3-14.2c0-7.9,6.4-14.2,14.3-14.2c7.9,0,14.3,6.4,14.3,14.2c0,2.5-0.9,4.4,1.4,5.3c2.4,0.8,2.9-2,3-5.3
		C37.6,8.3,29.2,0,18.9,0C8.5,0,0.1,8.3,0.1,18.6c0,10.3,8.4,18.6,18.8,18.6c4,0,7.9-1,10.8-3.4c1.3-1.1,2.3-0.6,3.7,1
		c1.5,1.5,2.5,2.1,3.9,0.6C38.3,34.3,37.9,33.1,37.2,32.3z"/>
	<path class="st2" d="M44.5,37.3L44.5,37.3c1,0,1.8-0.8,1.8-1.8V1.8c0-1-0.8-1.8-1.8-1.8h0c-1,0-1.8,0.8-1.8,1.8v33.7
		C42.7,36.5,43.5,37.3,44.5,37.3z"/>
	<path class="st2" d="M116.8,8.8L116.8,8.8c-1,0-1.8,0.8-1.8,1.8v25.6c0,1,0.8,1.8,1.8,1.8h0c1,0,1.8-0.8,1.8-1.8V10.6
		C118.6,9.6,117.8,8.8,116.8,8.8z"/>
	<path class="st1" d="M116.8,3.6L116.8,3.6c1,0,1.8-0.8,1.8-1.8v0c0-1-0.8-1.8-1.8-1.8h0c-1,0-1.8,0.8-1.8,1.8v0
		C115,2.8,115.8,3.6,116.8,3.6z"/>
	<path class="st2" d="M148.8,25.3c-1.1-0.3-2,0.2-2.1,0.8c-1.4,4.3-5.4,7.5-10.3,7.5c-5.9,0-10.7-4.8-10.7-10.7
		c0-5.9,4.8-10.7,10.7-10.7c4.6,0,8.5,2.9,10,6.9c0.5,0.8,1.3,1.2,2.2,1c0.9-0.2,1.3-1.2,1.1-2c-2-5.5-7.2-9.3-13.4-9.3
		c-7.9,0-14.3,6.3-14.3,14.2c0,7.8,6.4,14.2,14.3,14.2c6.3,0,11.7-4.1,13.5-9.7C150.2,26.5,149.7,25.5,148.8,25.3z"/>
	<path class="st2" d="M111,23c0-7.8-6.4-14.2-14.3-14.2c-7.9,0-14.3,6.3-14.3,14.2c0,7.8,6.4,14.2,14.3,14.2
		c5.9,0,10.7,4.8,10.7,10.7s-4.8,10.7-10.7,10.7c-4.7,0-8.7-3-10.1-7.1c-0.1-0.5-1.1-1.3-2.2-1c-1.1,0.3-1.5,1.2-1.3,1.8
		c1.9,5.7,7.2,9.8,13.6,9.8c7.9,0,14.3-6.3,14.3-14.2c0-5.3-3-10-7.4-12.4C108,33,111,28.4,111,23z M96.8,33.7
		C90.8,33.7,86,28.9,86,23c0-5.9,4.8-10.7,10.7-10.7c5.9,0,10.7,4.8,10.7,10.7C107.5,28.9,102.7,33.7,96.8,33.7z"/>
	<path class="st2" d="M64.2,8.8C56.3,8.8,50,15.2,50,23c0,7.8,6.4,14.2,14.3,14.2c7.9,0,14.3-6.3,14.3-14.2
		C78.5,15.2,72.1,8.8,64.2,8.8z M64.2,33.7c-5.9,0-10.7-4.8-10.7-10.7c0-5.9,4.8-10.7,10.7-10.7c5.9,0,10.7,4.8,10.7,10.7
		C74.9,28.9,70.1,33.7,64.2,33.7z"/>
	<path class="st2" d="M1.6,49.3c0.4-0.5,0.9-0.7,1.5-0.7c0.5,0,1,0.1,1.3,0.4c0.3,0.3,0.5,0.7,0.6,1.3h1c-0.1-0.8-0.4-1.4-0.9-1.9
		c-0.5-0.5-1.2-0.7-2-0.7c-0.6,0-1.2,0.1-1.7,0.4c-0.5,0.3-0.8,0.7-1.1,1.3C0.1,50,0,50.6,0,51.4v0.7c0,1.1,0.3,2,0.8,2.6
		c0.6,0.7,1.3,1,2.2,1c0.9,0,1.5-0.2,2-0.7C5.6,54.6,5.9,54,6,53.1H5c-0.1,0.6-0.3,1.1-0.6,1.3c-0.3,0.3-0.7,0.4-1.3,0.4
		c-0.6,0-1.1-0.2-1.5-0.7S1,53,1,52.1v-0.7C1,50.5,1.2,49.8,1.6,49.3z"/>
	<path class="st2" d="M11.9,48.2c-0.5-0.3-1-0.4-1.7-0.4c-0.6,0-1.2,0.2-1.6,0.5c-0.5,0.3-0.8,0.7-1.1,1.3s-0.4,1.2-0.4,2v0.6
		c0,0.7,0.1,1.4,0.4,1.9c0.3,0.6,0.6,1,1.1,1.3c0.5,0.3,1,0.4,1.6,0.4c0.6,0,1.2-0.1,1.7-0.4c0.5-0.3,0.8-0.7,1.1-1.3
		c0.3-0.6,0.4-1.2,0.4-2v-0.5c0-0.8-0.1-1.4-0.4-2C12.8,48.9,12.4,48.5,11.9,48.2z M12.4,52.1c0,0.9-0.2,1.6-0.6,2.1
		c-0.4,0.5-0.9,0.7-1.5,0.7c-0.7,0-1.2-0.3-1.6-0.8c-0.4-0.5-0.6-1.2-0.6-2.1v-0.6c0-0.9,0.2-1.5,0.6-2c0.4-0.5,0.9-0.7,1.5-0.7
		c0.7,0,1.2,0.2,1.6,0.7c0.4,0.5,0.6,1.2,0.6,2.1V52.1z"/>
	<polygon class="st2" points="20,53.9 16,47.9 15,47.9 15,55.6 16,55.6 16,49.6 19.9,55.6 21,55.6 21,47.9 20,47.9 	"/>
	<path class="st2" d="M26.9,51.8c-0.4-0.2-0.9-0.4-1.5-0.6c-0.6-0.2-1.1-0.4-1.4-0.6c-0.3-0.2-0.4-0.5-0.4-0.8
		c0-0.4,0.1-0.7,0.4-0.9c0.3-0.2,0.7-0.3,1.2-0.3c0.5,0,1,0.1,1.3,0.4c0.3,0.3,0.5,0.6,0.5,1.1h1c0-0.4-0.1-0.8-0.3-1.2
		c-0.2-0.4-0.6-0.6-1-0.8c-0.4-0.2-0.9-0.3-1.4-0.3c-0.8,0-1.4,0.2-1.9,0.6c-0.5,0.4-0.7,0.9-0.7,1.5c0,0.5,0.2,1,0.6,1.4
		c0.4,0.4,1,0.7,1.9,0.9c0.7,0.2,1.2,0.4,1.5,0.6c0.3,0.2,0.4,0.5,0.4,0.9c0,0.4-0.1,0.7-0.4,0.9c-0.3,0.2-0.7,0.3-1.3,0.3
		c-0.6,0-1-0.1-1.4-0.4c-0.3-0.3-0.5-0.6-0.5-1.1h-1c0,0.4,0.1,0.9,0.4,1.2c0.3,0.4,0.6,0.6,1.1,0.8c0.5,0.2,1,0.3,1.5,0.3
		c0.8,0,1.5-0.2,2-0.6c0.5-0.4,0.7-0.9,0.7-1.5c0-0.4-0.1-0.7-0.3-1C27.6,52.3,27.3,52.1,26.9,51.8z"/>
	<path class="st2" d="M33.8,53.1c0,0.6-0.2,1-0.5,1.3c-0.3,0.3-0.8,0.5-1.3,0.5c-0.6,0-1-0.2-1.3-0.5c-0.3-0.3-0.5-0.7-0.5-1.3v-5.2
		h-1v5.3c0,0.8,0.3,1.4,0.8,1.9c0.5,0.5,1.2,0.7,2,0.7l0.3,0c0.8-0.1,1.4-0.3,1.9-0.8c0.5-0.5,0.7-1.1,0.7-1.8v-5.3h-1V53.1z"/>
	<polygon class="st2" points="37.5,47.9 36.5,47.9 36.5,55.6 41.2,55.6 41.2,54.8 37.5,54.8 	"/>
	<polygon class="st2" points="46.3,47.9 40.3,47.9 40.3,48.7 42.8,48.7 42.8,55.6 43.8,55.6 43.8,48.7 46.3,48.7 	"/>
	<path class="st2" d="M49.3,47.9l-3,7.7h1.1l0.7-2h3.3l0.7,2h1.1l-3-7.7H49.3z M48.4,52.7l1.3-3.6l1.3,3.6H48.4z"/>
	<polygon class="st2" points="59.2,53.9 55.2,47.9 54.2,47.9 54.2,55.6 55.2,55.6 55.2,49.6 59.2,55.6 60.2,55.6 60.2,47.9 
		59.2,47.9 	"/>
	<polygon class="st2" points="61.2,48.7 63.7,48.7 63.7,55.6 64.8,55.6 64.8,48.7 67.3,48.7 67.3,47.9 61.2,47.9 	"/>
	<path class="st2" d="M72.5,51.8c-0.4-0.2-0.9-0.4-1.5-0.6c-0.6-0.2-1.1-0.4-1.4-0.6c-0.3-0.2-0.4-0.5-0.4-0.8
		c0-0.4,0.1-0.7,0.4-0.9c0.3-0.2,0.7-0.3,1.2-0.3c0.5,0,1,0.1,1.3,0.4c0.3,0.3,0.5,0.6,0.5,1.1h1c0-0.4-0.1-0.8-0.3-1.2
		c-0.2-0.4-0.6-0.6-1-0.8c-0.4-0.2-0.9-0.3-1.4-0.3c-0.8,0-1.4,0.2-1.9,0.6c-0.5,0.4-0.7,0.9-0.7,1.5c0,0.5,0.2,1,0.6,1.4
		c0.4,0.4,1,0.7,1.9,0.9c0.7,0.2,1.2,0.4,1.5,0.6c0.3,0.2,0.4,0.5,0.4,0.9c0,0.4-0.1,0.7-0.4,0.9c-0.3,0.2-0.7,0.3-1.3,0.3
		c-0.6,0-1-0.1-1.4-0.4c-0.3-0.3-0.5-0.6-0.5-1.1h-1c0,0.4,0.1,0.9,0.4,1.2c0.3,0.4,0.6,0.6,1.1,0.8c0.5,0.2,1,0.3,1.5,0.3
		c0.8,0,1.5-0.2,2-0.6c0.5-0.4,0.7-0.9,0.7-1.5c0-0.4-0.1-0.7-0.3-1C73.1,52.3,72.8,52.1,72.5,51.8z"/>
</g>
</svg>
