<?xml version="1.0" encoding="utf-8"?>
<!-- Generator: Adobe Illustrator 24.0.2, SVG Export Plug-In . SVG Version: 6.00 Build 0)  -->
<svg version="1.1" id="Layer_1" xmlns="http://www.w3.org/2000/svg" xmlns:xlink="http://www.w3.org/1999/xlink" x="0px" y="0px"
	 viewBox="0 0 265 70" style="enable-background:new 0 0 265 70;" xml:space="preserve">
<style type="text/css">
	.st0{fill:#FFFFFF;}
	.st1{fill-rule:evenodd;clip-rule:evenodd;fill:#FFFFFF;}
	.st2{fill-rule:evenodd;clip-rule:evenodd;fill:#EDEDED;}
	.st3{fill-rule:evenodd;clip-rule:evenodd;fill:#D1D1D1;}
</style>
<g>
	<g>
		<path class="st0" d="M78.3,44.9h3.2l4.4,11.4H86l4.4-11.4h3.2v15h-2.4v-8.4l0.1-2.7h-0.1l-4.3,11.1H85l-4.3-11.1h-0.1l0.1,2.7v8.4
			h-2.4V44.9z"/>
		<path class="st0" d="M97.6,59.8c-0.6-0.3-1.1-0.7-1.4-1.3c-0.3-0.6-0.5-1.2-0.5-1.9c0-1.1,0.4-2,1.3-2.6c0.8-0.6,1.9-1,3.2-1
			c0.6,0,1.2,0.1,1.7,0.2c0.5,0.1,0.9,0.2,1.2,0.4v-0.5c0-0.7-0.2-1.2-0.7-1.6c-0.5-0.4-1.1-0.6-1.9-0.6c-0.6,0-1.1,0.1-1.6,0.4
			s-0.9,0.6-1.2,1L96.1,51c0.5-0.7,1.1-1.2,1.9-1.5c0.8-0.4,1.6-0.5,2.5-0.5c1.6,0,2.8,0.4,3.6,1.1s1.3,1.8,1.3,3.2v6.7h-2.3v-1.3
			H103c-0.3,0.5-0.7,0.8-1.3,1.2s-1.2,0.5-1.9,0.5C98.9,60.3,98.3,60.1,97.6,59.8z M101.7,58c0.5-0.3,0.8-0.6,1.1-1.1
			c0.3-0.4,0.4-0.9,0.4-1.4c-0.3-0.2-0.7-0.3-1.1-0.4c-0.4-0.1-0.9-0.2-1.3-0.2c-0.9,0-1.5,0.2-1.9,0.5c-0.4,0.3-0.6,0.8-0.6,1.3
			c0,0.5,0.2,0.9,0.6,1.2s0.9,0.5,1.5,0.5C100.7,58.4,101.2,58.2,101.7,58z"/>
		<path class="st0" d="M107.9,49.2h2.2v1.6h0.1c0.2-0.5,0.7-1,1.3-1.4c0.6-0.4,1.2-0.5,1.9-0.5c0.5,0,1,0.1,1.3,0.2v2.4
			c-0.6-0.2-1.2-0.3-1.7-0.3c-0.5,0-1,0.1-1.4,0.4c-0.4,0.3-0.7,0.7-1,1.1s-0.4,1-0.4,1.5v5.7h-2.3V49.2z"/>
		<path class="st0" d="M116.6,44.9h2.3v8.8h0.1l4.4-4.4h2.9v0.1l-4.2,4.1l4.3,6.3v0.1h-2.8l-3.2-4.9l-1.6,1.5v3.3h-2.3V44.9z"/>
		<path class="st0" d="M129.7,59.5c-0.8-0.5-1.5-1.2-2-2c-0.5-0.9-0.7-1.8-0.7-2.9c0-1,0.2-2,0.7-2.8c0.5-0.9,1.1-1.6,1.9-2.1
			c0.8-0.5,1.8-0.8,2.8-0.8c1.1,0,2,0.2,2.8,0.7c0.8,0.5,1.4,1.1,1.8,2c0.4,0.8,0.6,1.8,0.6,2.8c0,0.2,0,0.4-0.1,0.7h-8.3
			c0.1,1,0.4,1.8,1.1,2.3c0.6,0.5,1.4,0.8,2.2,0.8c0.7,0,1.2-0.1,1.7-0.5s0.9-0.7,1.2-1.2l2,0.9c-0.5,0.9-1.2,1.6-2,2.1
			s-1.8,0.8-2.9,0.8C131.5,60.3,130.5,60,129.7,59.5z M135.3,53.3c0-0.4-0.1-0.8-0.4-1.1s-0.5-0.7-1-0.9s-1-0.4-1.6-0.4
			c-0.7,0-1.4,0.2-1.9,0.7c-0.5,0.4-0.9,1-1.1,1.8H135.3z"/>
		<path class="st0" d="M142.6,59.9c-0.4-0.2-0.8-0.4-1-0.6c-0.6-0.6-0.9-1.4-0.9-2.5v-5.5h-1.9v-2h1.9v-3h2.3v3h2.6v2h-2.6v5
			c0,0.6,0.1,1,0.3,1.2c0.2,0.3,0.6,0.4,1.1,0.4c0.2,0,0.5,0,0.6-0.1c0.2-0.1,0.4-0.2,0.6-0.3v2.2c-0.5,0.2-1,0.3-1.7,0.3
			C143.4,60.1,143,60,142.6,59.9z"/>
		<path class="st0" d="M148.1,47.2c-0.3-0.3-0.5-0.7-0.5-1.1s0.2-0.8,0.5-1.1c0.3-0.3,0.7-0.5,1.1-0.5c0.4,0,0.8,0.2,1.1,0.5
			c0.3,0.3,0.5,0.7,0.5,1.1s-0.2,0.8-0.5,1.1s-0.7,0.5-1.1,0.5C148.8,47.7,148.4,47.5,148.1,47.2z M148.1,49.2h2.3v10.7h-2.3V49.2z"
			/>
		<path class="st0" d="M153.3,49.2h2.2v1.4h0.1c0.3-0.5,0.8-0.9,1.4-1.2c0.6-0.3,1.3-0.5,2-0.5c1.3,0,2.3,0.4,3,1.1s1,1.8,1,3.1v6.8
			h-2.3v-6.5c0-0.8-0.2-1.5-0.6-1.8c-0.4-0.4-1-0.6-1.7-0.6c-0.5,0-1,0.1-1.4,0.4c-0.4,0.3-0.7,0.7-1,1.1c-0.2,0.5-0.3,1-0.3,1.5
			v5.8h-2.3V49.2z"/>
		<path class="st0" d="M167.1,63.9c-0.9-0.6-1.5-1.3-1.7-2.1l2.2-0.9c0.2,0.6,0.6,1,1.1,1.4s1.1,0.5,1.8,0.5c1,0,1.8-0.3,2.3-0.9
			c0.6-0.6,0.8-1.4,0.8-2.4v-1h-0.1c-0.4,0.5-0.8,0.9-1.4,1.2c-0.6,0.3-1.3,0.4-2,0.4c-0.9,0-1.7-0.2-2.5-0.7s-1.4-1.1-1.9-2
			c-0.5-0.8-0.7-1.8-0.7-2.9s0.2-2.1,0.7-2.9c0.5-0.8,1.1-1.5,1.9-2s1.6-0.7,2.5-0.7c0.7,0,1.4,0.1,2,0.4c0.6,0.3,1.1,0.7,1.4,1.2
			h0.1v-1.3h2.2v10.1c0,1.2-0.2,2.2-0.7,3c-0.5,0.8-1.1,1.4-1.9,1.9c-0.8,0.4-1.7,0.6-2.8,0.6C169.1,64.8,168,64.5,167.1,63.9z
			 M172,57.5c0.5-0.3,0.9-0.7,1.1-1.2c0.3-0.5,0.4-1.1,0.4-1.9c0-1.1-0.3-1.9-0.9-2.6c-0.6-0.6-1.3-0.9-2.2-0.9
			c-0.6,0-1.1,0.1-1.6,0.4c-0.5,0.3-0.9,0.7-1.1,1.2c-0.3,0.5-0.4,1.1-0.4,1.9s0.1,1.4,0.4,1.9s0.7,0.9,1.1,1.2
			c0.5,0.3,1,0.4,1.6,0.4C171,57.9,171.5,57.8,172,57.5z"/>
		<path class="st0" d="M183.9,44.9h5.3c0.9,0,1.7,0.2,2.5,0.6c0.8,0.4,1.4,0.9,1.8,1.6c0.4,0.7,0.7,1.5,0.7,2.4s-0.2,1.7-0.7,2.4
			c-0.4,0.7-1,1.2-1.8,1.6c-0.8,0.4-1.6,0.6-2.5,0.6h-2.9v5.8h-2.4V44.9z M189.1,51.9c0.5,0,1-0.1,1.4-0.3s0.7-0.5,0.9-0.9
			c0.2-0.4,0.3-0.7,0.3-1.1c0-0.4-0.1-0.8-0.3-1.1s-0.5-0.7-0.9-0.9c-0.4-0.2-0.8-0.3-1.4-0.3h-2.9v4.7H189.1z"/>
		<path class="st0" d="M196.2,44.9h2.3v15h-2.3V44.9z"/>
		<path class="st0" d="M202.5,59.8c-0.6-0.3-1.1-0.7-1.4-1.3c-0.3-0.6-0.5-1.2-0.5-1.9c0-1.1,0.4-2,1.3-2.6c0.8-0.6,1.9-1,3.2-1
			c0.6,0,1.2,0.1,1.7,0.2c0.5,0.1,0.9,0.2,1.2,0.4v-0.5c0-0.7-0.2-1.2-0.7-1.6c-0.5-0.4-1.1-0.6-1.9-0.6c-0.6,0-1.1,0.1-1.6,0.4
			s-0.9,0.6-1.2,1l-1.6-1.2c0.5-0.7,1.1-1.2,1.9-1.5c0.8-0.4,1.6-0.5,2.5-0.5c1.6,0,2.8,0.4,3.6,1.1s1.3,1.8,1.3,3.2v6.7h-2.3v-1.3
			h-0.1c-0.3,0.5-0.7,0.8-1.3,1.2s-1.2,0.5-1.9,0.5C203.8,60.3,203.1,60.1,202.5,59.8z M206.5,58c0.5-0.3,0.8-0.6,1.1-1.1
			c0.3-0.4,0.4-0.9,0.4-1.4c-0.3-0.2-0.7-0.3-1.1-0.4c-0.4-0.1-0.9-0.2-1.3-0.2c-0.9,0-1.5,0.2-1.9,0.5c-0.4,0.3-0.6,0.8-0.6,1.3
			c0,0.5,0.2,0.9,0.6,1.2s0.9,0.5,1.5,0.5C205.5,58.4,206,58.2,206.5,58z"/>
		<path class="st0" d="M215.6,59.9c-0.4-0.2-0.8-0.4-1-0.6c-0.6-0.6-0.9-1.4-0.9-2.5v-5.5h-1.9v-2h1.9v-3h2.3v3h4.7v-0.8
			c0-1.1,0.3-2,1-2.7s1.6-1,2.7-1c0.6,0,1.2,0.1,1.8,0.3l-0.3,2.2c-0.3-0.1-0.5-0.2-0.7-0.2c-0.2,0-0.4-0.1-0.7-0.1
			c-0.4,0-0.8,0.1-1.1,0.4S223,48,223,48.6v0.7h2.7v2H223v8.7h-2.3v-8.7H216v5c0,0.6,0.1,1,0.3,1.2c0.2,0.3,0.6,0.4,1.1,0.4
			c0.4,0,0.7-0.1,1.1-0.4v2.2c-0.2,0.1-0.5,0.2-0.7,0.2s-0.5,0.1-0.9,0.1C216.5,60.1,216,60,215.6,59.9z"/>
		<path class="st0" d="M229.5,59.5c-0.9-0.5-1.5-1.2-2-2c-0.5-0.9-0.7-1.8-0.7-2.9s0.2-2,0.7-2.9c0.5-0.9,1.2-1.6,2-2
			c0.9-0.5,1.8-0.7,2.9-0.7s2.1,0.3,2.9,0.8c0.9,0.5,1.5,1.2,2,2.1c0.5,0.9,0.7,1.8,0.7,2.9c0,1.1-0.2,2-0.7,2.9
			c-0.5,0.9-1.2,1.6-2,2c-0.9,0.5-1.8,0.7-2.9,0.7S230.4,60,229.5,59.5z M234.1,57.7c0.5-0.3,0.9-0.7,1.2-1.2
			c0.3-0.5,0.5-1.2,0.5-1.9s-0.2-1.4-0.5-1.9c-0.3-0.5-0.7-0.9-1.2-1.2c-0.5-0.3-1.1-0.4-1.7-0.4s-1.1,0.1-1.7,0.4
			c-0.5,0.3-0.9,0.7-1.2,1.2c-0.3,0.5-0.5,1.2-0.5,1.9s0.2,1.4,0.5,1.9c0.3,0.5,0.7,1,1.2,1.2c0.5,0.3,1.1,0.4,1.7,0.4
			S233.6,58,234.1,57.7z"/>
		<path class="st0" d="M240,49.2h2.2v1.6h0.1c0.2-0.5,0.7-1,1.3-1.4c0.6-0.4,1.2-0.5,1.9-0.5c0.5,0,1,0.1,1.3,0.2v2.4
			c-0.6-0.2-1.2-0.3-1.7-0.3c-0.5,0-1,0.1-1.4,0.4c-0.4,0.3-0.7,0.7-1,1.1s-0.4,1-0.4,1.5v5.7H240V49.2z"/>
		<path class="st0" d="M248.6,49.2h2.2v1.4h0.1c0.3-0.5,0.8-0.9,1.4-1.3c0.6-0.3,1.2-0.5,1.9-0.5c0.8,0,1.5,0.2,2,0.5
			c0.6,0.4,1,0.8,1.3,1.4c0.4-0.6,0.9-1.1,1.5-1.4c0.6-0.4,1.3-0.5,2.2-0.5c1.2,0,2.2,0.4,2.8,1.1c0.6,0.7,1,1.8,1,3.1v6.9h-2.3
			v-6.5c0-1.6-0.7-2.4-2.1-2.4c-0.7,0-1.4,0.3-1.8,0.9c-0.5,0.6-0.7,1.3-0.7,2.2v5.8h-2.3v-6.5c0-1.6-0.7-2.4-2.2-2.4
			c-0.7,0-1.3,0.3-1.8,0.9c-0.5,0.6-0.7,1.3-0.7,2.2v5.8h-2.3V49.2z"/>
	</g>
	<g>
		<path class="st1" d="M11.6,9C18,3.2,26.5,0,35.2,0s17.1,3.3,23.4,9.1c0.7,0.7,1.5,1.3,2.1,2.1c1.5,2.1,2.1,4.9,1.4,7.4
			c-0.8,3.5-4.1,6.3-7.7,6.6c-2.6,0.3-5.2-0.7-7-2.5c-2.6-2.6-6-4.4-9.6-4.9c-4.3-0.7-8.8,0.3-12.4,2.7c-3.6,2.4-6.2,6.1-7.2,10.3
			c-1.4,5.5,0.1,11.7,4,15.9c-1.5-1-3.2-1.8-5-1.9c-2.6-0.2-5.2,0.8-7,2.7c-2,2.1-2.9,5.3-2.1,8.2c0.3,1.2,0.9,2.2,1.5,3.2
			c-6.4-6.8-9.9-16.3-9.4-25.7C0.5,24,4.7,15.1,11.6,9z"/>
		<path class="st2" d="M60.8,11.2c6.3,6.7,9.7,16,9.3,25.2c-0.3,8.1-3.6,16.1-9,22.1c-0.7,0.8-1.4,1.7-2.3,2.3
			c-1.7,1-3.7,1.7-5.7,1.5c-3-0.2-5.7-2-7.1-4.6c-1.1-2.1-1.3-4.6-0.6-6.8c0.3-1,0.9-1.9,1.4-2.9c2.6-2.4,4.6-5.5,5.4-8.9
			c1.4-5.8-0.3-12.2-4.6-16.4c1.8,1.8,4.5,2.7,7,2.5c3.6-0.3,6.8-3.1,7.7-6.6C62.8,16,62.2,13.3,60.8,11.2z"/>
		<path class="st2" d="M10.1,47.5c1.8-1.9,4.4-2.9,7-2.7c1.8,0.1,3.5,0.9,5,1.9c0.4,0.4,0.9,0.8,1.3,1.3c1.8,2.4,2.4,5.6,1.5,8.4
			c-1.1,3.4-4.6,6-8.2,5.9c-2.1,0.1-4.1-0.7-5.7-2c-0.5-0.4-1-0.9-1.4-1.4c-0.6-1-1.2-2.1-1.5-3.2C7.2,52.8,8.1,49.6,10.1,47.5z"/>
		<path class="st3" d="M23.3,47.9c3.4,3.1,8.1,4.8,12.8,4.5c3.9-0.2,7.7-1.8,10.5-4.4c-0.5,0.9-1.1,1.8-1.4,2.9
			c-0.7,2.2-0.5,4.7,0.6,6.8c1.4,2.6,4.1,4.4,7.1,4.6c2,0.2,4-0.5,5.7-1.5c-6.8,6.4-16.4,9.7-25.7,9.1c-8.2-0.4-16.1-3.9-22.1-9.6
			c1.6,1.2,3.6,2,5.7,2c3.7,0.1,7.1-2.5,8.2-5.9C25.8,53.5,25.1,50.2,23.3,47.9z"/>
	</g>
	<g id="g885_2_">
		<path id="path8_2_" class="st0" d="M101.9,19H90.3v3.4h8.2c-0.4,4.8-4.4,6.9-8.2,6.9c-5,0-9.1-4-9.1-9l0,0l0,0v-0.2
			c0-4.9,4-9.1,9-9.1c0.1,0,0.1,0,0.2,0c2.3,0,4.5,0.9,6.2,2.5l2.3-2.5c-2.3-2.3-5.5-3.5-8.7-3.4c-7-0.2-12.8,5.4-12.9,12.3
			c-0.2,7,5.4,12.8,12.3,12.9c0.3,0,0.5,0,0.8,0c6.7,0,11.7-4.6,11.7-11.5C102.1,20.6,102,19.8,101.9,19L101.9,19L101.9,19z"/>
		<path id="path10_2_" class="st0" d="M111.4,16.5c-4.4-0.1-8.1,3.4-8.2,7.9l0,0l0,0v0.2c0,4.5,3.6,8.2,8.1,8.2s8.2-3.6,8.2-8.1
			C119.5,19.3,115.3,16.5,111.4,16.5z M111.4,19.7c2.3,0,4.5,1.9,4.5,5s-2.2,4.9-4.6,4.9c-2.6,0-4.6-2.1-4.6-5
			S108.8,19.8,111.4,19.7L111.4,19.7z"/>
		<path id="path12_2_" class="st0" d="M129.1,16.5c-4.4-0.1-8.1,3.5-8.2,7.9l0,0l0,0v0.2c0,4.5,3.6,8.2,8.1,8.2s8.2-3.6,8.2-8.1
			C137.3,19.3,133,16.6,129.1,16.5L129.1,16.5L129.1,16.5z M129.2,19.7c2.3,0,4.5,1.9,4.5,5s-2.2,4.9-4.6,4.9c-2.6,0-4.6-2.1-4.6-5
			S126.5,19.8,129.2,19.7L129.2,19.7z"/>
		<path id="path14_2_" class="st0" d="M146.5,16.5c-4.3,0-7.8,3.8-7.8,8.1c-0.1,4.4,3.4,8,7.7,8.1c1.7,0.1,3.4-0.6,4.4-2v1.6
			c0,2.8-1.7,4.5-4.3,4.5c-1.8,0-3.5-1.2-4.1-2.9l-3.1,1.3c1.1,2.3,3.3,4.8,7.3,4.8c4.3,0,7.6-2.7,7.6-8.5V17h-3.4v1.4
			C149.8,17.2,148.2,16.5,146.5,16.5z M146.8,19.7c2.1,0,4.3,1.8,4.3,5s-2.2,4.9-4.4,4.9c-2.3,0-4.5-1.9-4.5-4.9
			C142.3,21.6,144.5,19.7,146.8,19.7L146.8,19.7L146.8,19.7z"/>
		<path id="path16_2_" class="st0" d="M169.4,16.5c-4.1,0-7.6,3.3-7.6,8.1c-0.2,4.3,3.2,8,7.6,8.1c0.1,0,0.3,0,0.4,0
			c2.7,0,5.3-1.3,6.8-3.6l-2.8-1.9c-0.8,1.4-2.3,2.3-4,2.2c-1.7,0.1-3.3-0.9-4-2.5l10.9-4.5l-0.6-1.3
			C175.1,18.5,172.4,16.6,169.4,16.5L169.4,16.5L169.4,16.5z M169.5,19.6c1.3-0.1,2.4,0.6,3,1.7l-7.3,3.1
			C165,22.1,167.2,19.7,169.5,19.6L169.5,19.6L169.5,19.6z"/>
		<path id="path18_2_" class="st0" d="M156.6,32.3h3.6V8.4h-3.6V32.3z"/>
	</g>
</g>
</svg>
