<svg width="401" height="296" viewBox="0 0 401 296" fill="none" xmlns="http://www.w3.org/2000/svg">
<path fill-rule="evenodd" clip-rule="evenodd" d="M248.731 230.713L211.32 296H219.533L389.15 0H380.937L296.44 147.457C296.459 146.25 296.469 145.03 296.469 143.797V108.359C296.188 79.7656 290.516 58.2969 279.453 43.9531C268.484 29.6094 251.797 22.4375 229.391 22.4375C206.797 22.4375 189.969 29.7969 178.906 44.5156C167.938 59.2344 162.453 81.3125 162.453 110.75V146.188C162.734 174.781 168.453 196.391 179.609 211.016C190.859 225.547 207.547 232.812 229.672 232.812C236.566 232.812 242.92 232.113 248.731 230.713ZM314.219 7.125C310.328 11.1094 308.383 16.1719 308.383 22.3125V27.2344C308.383 33.75 310.375 38.9766 314.359 42.9141C318.344 46.8047 323.383 48.75 329.477 48.75C335.523 48.75 340.492 46.8047 344.383 42.9141C348.32 38.9766 350.289 33.9141 350.289 27.7266V22.7344C350.289 16.3594 348.344 11.1797 344.453 7.19531C340.609 3.16406 335.57 1.14844 329.336 1.14844C323.195 1.14844 318.156 3.14062 314.219 7.125ZM321.18 36.7969C319.117 34.4062 318.086 31.3828 318.086 27.7266V22.5938C318.086 18.75 319.094 15.6328 321.109 13.2422C323.125 10.8516 325.867 9.65625 329.336 9.65625C332.805 9.65625 335.547 10.8516 337.562 13.2422C339.578 15.6328 340.586 18.6562 340.586 22.3125V27.4453C340.586 31.4297 339.555 34.5703 337.492 36.8672C335.477 39.1641 332.805 40.3125 329.477 40.3125C326.008 40.3125 323.242 39.1406 321.18 36.7969ZM364.07 64.7812C360.18 68.7188 358.234 73.7578 358.234 79.8984V84.9609C358.234 91.4766 360.227 96.7031 364.211 100.641C368.195 104.531 373.234 106.477 379.328 106.477C385.422 106.477 390.414 104.508 394.305 100.57C398.242 96.5859 400.211 91.5234 400.211 85.3828V80.3906C400.211 73.875 398.242 68.6484 394.305 64.7109C390.367 60.7734 385.328 58.8047 379.188 58.8047C373.047 58.8047 368.008 60.7969 364.07 64.7812ZM371.031 94.5234C368.969 92.1328 367.938 89.0859 367.938 85.3828V80.1797C367.938 76.2422 368.969 73.125 371.031 70.8281C373.141 68.4844 375.859 67.3125 379.188 67.3125C382.609 67.3125 385.328 68.4844 387.344 70.8281C389.406 73.1719 390.438 76.1953 390.438 79.8984V85.1016C390.438 89.0859 389.43 92.25 387.414 94.5938C385.398 96.8906 382.703 98.0391 379.328 98.0391C375.859 98.0391 373.094 96.8672 371.031 94.5234ZM254.422 63.3594C259.672 72.2656 262.297 86.3281 262.297 105.547V151.812C262.016 170.281 259.25 183.875 254 192.594C248.75 201.219 240.641 205.531 229.672 205.531C218.234 205.531 209.844 200.844 204.5 191.469C199.156 182.094 196.484 167.844 196.484 148.719V102.312C196.766 84.3125 199.531 71.0938 204.781 62.6562C210.031 54.125 218.234 49.8594 229.391 49.8594C240.828 49.8594 249.172 54.3594 254.422 63.3594ZM105.641 52.5312V24.2656H102.125C69.3125 24.2656 44.1406 34.4375 26.6094 54.7812C9.17188 75.125 0.453125 103.25 0.453125 139.156V150.828C0.453125 175.297 6.78125 195.078 19.4375 210.172C32.1875 225.266 48.7812 232.812 69.2188 232.812C89.0938 232.812 105.125 226.391 117.312 213.547C129.594 200.609 135.734 183.734 135.734 162.922C135.734 142.766 130.484 126.312 119.984 113.562C109.578 100.812 95.3281 94.4375 77.2344 94.4375C60.1719 94.4375 46.1562 100.203 35.1875 111.734C37.3438 92.9844 44.1406 78.5 55.5781 68.2812C67.0156 58.0625 82.2969 52.8125 101.422 52.5312H105.641ZM48.2656 128.328C54.5469 124.109 61.4375 122 68.9375 122C78.875 122 86.8438 125.891 92.8438 133.672C98.8438 141.453 101.844 151.531 101.844 163.906C101.844 176.281 98.8906 186.266 92.9844 193.859C87.0781 201.453 79.0625 205.25 68.9375 205.25C58.8125 205.25 50.5625 200.797 44.1875 191.891C37.8125 182.891 34.625 170.797 34.625 155.609V145.203C37.5312 138.172 42.0781 132.547 48.2656 128.328Z" fill="#498AF5"/>
</svg>
