<svg xmlns="http://www.w3.org/2000/svg" xmlns:xlink="http://www.w3.org/1999/xlink" viewBox="0 0 81 71" fill="#fff" fill-rule="evenodd" stroke="#000" stroke-linecap="round" stroke-linejoin="round"><use xlink:href="#B" x=".5"/><defs><linearGradient id="A" x1="50%" y1="0%" x2="50%" y2="100%"><stop offset="0%" stop-color="#4387fd"/><stop offset="100%" stop-color="#4683ea"/></linearGradient></defs><symbol id="B" overflow="visible"><g stroke="none"><path d="M79.25 37.5q1.5-2.5 0-5L61.5 2q-1.5-2-4-2h-35q-2.5 0-4 2L.75 32.5q-1.5 2.5 0 5L18.5 68q1.5 2 4 2h35q2.5 0 4-2z" fill="url(#A)"/><path d="M57.547 70h-9l-24.25-24.25 8.75-7.5-8-8 4.5-5 7.25 7.25 4-2.25-2.25-2.25 4.5-11.25 9.5 9.5 3.5-1L75.25 44.453 61.547 68q-1.5 2-4 2z" fill="#000" fill-opacity=".07"/><circle cx="40" cy="35" r="5.5"/><path d="M41.5 23.21v4.948c-.483-.105-.985-.16-1.5-.16s-1.017.055-1.5.16V23.21A3.99 3.99 0 0 1 36 19.5a3.99 3.99 0 1 1 8 0 3.99 3.99 0 0 1-2.5 3.711z"/><circle cx="26.75" cy="27.25" r="3.25"/><circle cx="53.25" cy="27.25" r="3.25"/><path d="M29.542 39.63l3.77-2.64a6.97 6.97 0 0 0 1.437 2.656l-4 2.8c.001 2.27-1.783 4.053-4 4.053a4 4 0 1 1 0-8 3.99 3.99 0 0 1 2.792 1.13zm19.978 2.476l-4.352-2.513a6.97 6.97 0 0 0 1.459-2.622l4.285 2.474a3.99 3.99 0 0 1 2.59-.946 4 4 0 1 1 0 8 3.99 3.99 0 0 1-4-4l.02-.394z"/><circle cx="40" cy="50.25" r="3.25"/></g></symbol></svg>