<svg width="229" height="80" viewBox="0 0 229 80" fill="none" xmlns="http://www.w3.org/2000/svg">
<path d="M20.3607 77.0548L0.784545 42.9452C0.270579 42.0498 0 41.034 0 40C0 38.966 0.270579 37.9502 0.784545 37.0548L20.3607 2.94524C20.874 2.05099 21.6119 1.30817 22.5006 0.791242C23.3892 0.274317 24.3973 0.00145083 25.4239 0H64.5973C65.6202 0.00516746 66.624 0.279792 67.5086 0.796531C68.3932 1.31327 69.1278 2.0541 69.6393 2.94524L89.2154 37.0548C89.7294 37.9502 90 38.966 90 40C90 41.034 89.7294 42.0498 89.2154 42.9452L69.6393 77.0548C69.126 77.949 68.3881 78.6918 67.4994 79.2088C66.6108 79.7257 65.6027 79.9986 64.5761 80H25.4133C24.3885 79.9967 23.3826 79.7229 22.496 79.2061C21.6093 78.6893 20.8731 77.9474 20.3607 77.0548Z" fill="white"/>
<path opacity="0.1" d="M57.2298 29.0164C57.2298 29.0164 62.6735 42.1477 55.2532 49.5905C47.8328 57.0334 34.324 52.2699 34.324 52.2699C34.324 52.2699 54.4075 72.7378 61.8067 79.9892H64.5973C65.6238 79.9878 66.6319 79.7149 67.5206 79.198C68.4092 78.6811 69.1472 77.9383 69.6604 77.044L82.6196 54.4709L57.2298 29.0164Z" fill="white"/>
<path d="M63.6566 55.8849L57.6421 49.8349C57.5769 49.7674 57.5021 49.7101 57.4201 49.6648C59.9651 46.3523 61.1587 42.1884 60.7577 38.0214C60.3567 33.8545 58.3913 29.9981 55.2619 27.2382C52.1325 24.4783 48.0747 23.0225 43.9153 23.1675C39.756 23.3124 35.8081 25.0473 32.8761 28.0185C29.9441 30.9897 28.2488 34.9736 28.1355 39.1585C28.0222 43.3433 29.4994 47.4142 32.2663 50.5415C35.0331 53.6688 38.8813 55.6172 43.0267 55.9897C47.172 56.3622 51.3026 55.1307 54.5767 52.5462C54.6193 52.6243 54.6727 52.6958 54.7352 52.7589L60.7497 58.8088C60.8371 58.8969 60.9409 58.9668 61.0552 59.0145C61.1694 59.0622 61.2919 59.0867 61.4157 59.0867C61.5394 59.0867 61.6619 59.0622 61.7761 59.0145C61.8904 58.9668 61.9942 58.8969 62.0816 58.8088L63.6566 57.2246C63.7441 57.1367 63.8136 57.0323 63.861 56.9173C63.9084 56.8024 63.9328 56.6792 63.9328 56.5547C63.9328 56.4303 63.9084 56.3071 63.861 56.1921C63.8136 56.0772 63.7441 55.9728 63.6566 55.8849ZM44.4926 51.9721C42.0592 51.9721 39.6804 51.2462 37.657 49.8863C35.6337 48.5263 34.0567 46.5934 33.1254 44.3319C32.1942 42.0704 31.9505 39.582 32.4253 37.1812C32.9 34.7804 34.0718 32.5751 35.7926 30.8443C37.5133 29.1134 39.7056 27.9347 42.0923 27.4571C44.479 26.9796 46.9529 27.2247 49.2011 28.1614C51.4493 29.0981 53.3709 30.6845 54.7229 32.7197C56.0748 34.755 56.7964 37.1479 56.7964 39.5957C56.7964 41.221 56.4782 42.8303 55.8599 44.3319C55.2416 45.8335 54.3353 47.1978 53.1927 48.3471C52.0502 49.4964 50.6939 50.408 49.2011 51.03C47.7083 51.6519 46.1084 51.9721 44.4926 51.9721Z" fill="#384F7F"/>
<path d="M36.6284 38.9369V44.0512C37.4118 45.4421 38.5456 46.6009 39.9157 47.411V38.905L36.6284 38.9369Z" fill="white"/>
<path d="M36.6284 38.9369V44.0512C37.4118 45.4421 38.5456 46.6009 39.9157 47.411V38.905L36.6284 38.9369Z" fill="#384F7F"/>
<path d="M42.7802 34.6942V48.5165C43.8668 48.718 44.9809 48.718 46.0675 48.5165V34.6942H42.7802Z" fill="white"/>
<path d="M42.7802 34.6942V48.5165C43.8668 48.718 44.9809 48.718 46.0675 48.5165V34.6942H42.7802Z" fill="#384F7F"/>
<path d="M52.2935 44.0403V41.01H49.0061V47.3897C50.3749 46.5825 51.5086 45.4274 52.2935 44.0403Z" fill="white"/>
<path d="M52.2935 44.0403V41.01H49.0061V47.3897C50.3749 46.5825 51.5086 45.4274 52.2935 44.0403Z" fill="#384F7F"/>
<path d="M134.463 17.7469H119.873V22.1826H130.246C129.73 28.4119 124.668 31.0541 119.897 31.0541C118.397 31.0647 116.909 30.772 115.52 30.193C114.131 29.614 112.867 28.7599 111.8 27.6798C110.734 26.5997 109.887 25.3149 109.307 23.8989C108.727 22.4829 108.426 20.9637 108.421 19.4283V19.2281C108.395 17.6735 108.672 16.1292 109.236 14.6857C109.8 13.2421 110.64 11.9282 111.707 10.821C112.773 9.71377 114.045 8.83542 115.447 8.23738C116.849 7.63933 118.354 7.3336 119.873 7.33809C122.794 7.34186 125.599 8.50752 127.696 10.5888L130.731 7.38613C129.272 5.94362 127.55 4.80943 125.663 4.04833C123.776 3.28723 121.76 2.91415 119.732 2.95039C117.598 2.89928 115.476 3.28732 113.491 4.09147C111.507 4.89563 109.7 6.09953 108.178 7.63178C106.657 9.16403 105.451 10.9934 104.633 13.0115C103.815 15.0295 103.402 17.1951 103.417 19.3799C103.432 21.5646 103.876 23.7239 104.722 25.7299C105.568 27.7358 106.798 29.5474 108.341 31.0574C109.884 32.5673 111.707 33.7447 113.703 34.5199C115.699 35.295 117.826 35.6521 119.959 35.5699C128.478 35.5539 134.736 29.5729 134.736 20.7254C134.755 19.7362 134.666 18.7479 134.47 17.7789L134.463 17.7469Z" fill="white"/>
<path d="M146.47 14.5445C145.138 14.5169 143.814 14.7587 142.574 15.256C141.333 15.7533 140.201 16.4964 139.241 17.4426C138.282 18.3887 137.515 19.5194 136.983 20.7698C136.452 22.0202 136.167 23.3657 136.144 24.729V24.9532C136.129 27.7467 137.198 30.432 139.117 32.4184C141.036 34.4049 143.647 35.5298 146.376 35.5458C149.106 35.5617 151.729 34.4673 153.67 32.5034C155.611 30.5394 156.71 27.8668 156.726 25.0733C156.726 18.1235 151.399 14.5445 146.47 14.5445V14.5445ZM146.525 18.676C149.474 18.676 152.267 21.078 152.267 25.0813C152.267 29.0847 149.482 31.4387 146.509 31.4387C143.24 31.4387 140.658 28.7564 140.658 25.0333C140.658 21.3102 143.2 18.692 146.517 18.692L146.525 18.676Z" fill="white"/>
<path d="M168.843 14.5445C167.514 14.5212 166.193 14.7661 164.956 15.2653C163.719 15.7646 162.591 16.5083 161.635 17.4541C160.679 18.3998 159.914 19.5291 159.385 20.7774C158.855 22.0256 158.571 23.3684 158.549 24.7291V24.9532C158.534 27.746 159.604 30.4303 161.523 32.4159C163.441 34.4015 166.052 35.5259 168.781 35.5418C171.509 35.5577 174.132 34.4639 176.073 32.5008C178.014 30.5377 179.113 27.8661 179.13 25.0733C179.13 18.1315 173.795 14.5525 168.851 14.5525L168.843 14.5445ZM168.906 18.676C171.855 18.676 174.648 21.078 174.648 25.0814C174.648 29.0847 171.863 31.4387 168.89 31.4387C165.62 31.4387 163.039 28.7564 163.039 25.0333C163.039 21.3102 165.581 18.692 168.898 18.692L168.906 18.676Z" fill="white"/>
<path d="M190.81 14.5445C185.334 14.5445 180.976 19.4767 180.976 25.0254C180.936 27.7312 181.933 30.3456 183.753 32.3079C185.574 34.2702 188.073 35.4241 190.716 35.5223C191.783 35.5796 192.849 35.3773 193.825 34.9319C194.801 34.4866 195.66 33.8109 196.332 32.9601V35.0339C196.332 38.6529 194.189 40.8308 190.95 40.8308C189.812 40.816 188.705 40.4526 187.771 39.7876C186.837 39.1226 186.119 38.1863 185.709 37.0996L181.798 38.765C183.167 41.7676 185.975 44.9703 190.982 44.9703C196.458 44.9703 200.643 41.4393 200.643 34.041V15.185H196.332V16.9465C195.633 16.1655 194.778 15.547 193.825 15.1326C192.873 14.7183 191.844 14.5177 190.81 14.5445ZM191.208 18.6359C193.907 18.6359 196.684 20.9979 196.684 25.0414C196.684 29.0848 193.915 31.3587 191.146 31.3587C188.212 31.3587 185.482 28.9567 185.482 25.0494C185.482 21.046 188.322 18.644 191.216 18.644L191.208 18.6359Z" fill="white"/>
<path d="M219.73 14.5444C214.536 14.5444 210.171 18.772 210.171 25.0173C210.123 26.3917 210.349 27.7617 210.834 29.0441C211.32 30.3265 212.055 31.4945 212.995 32.477C213.935 33.4595 215.061 34.2361 216.303 34.7596C217.546 35.2831 218.879 35.5425 220.223 35.5221C221.915 35.5301 223.584 35.1148 225.083 34.3125C226.583 33.5101 227.868 32.3449 228.828 30.9182L225.284 28.5162C224.773 29.4048 224.041 30.1393 223.164 30.6455C222.286 31.1517 221.293 31.4115 220.286 31.3986C219.231 31.4414 218.189 31.1589 217.293 30.5878C216.398 30.0167 215.691 29.1834 215.263 28.1959L229 22.367L228.288 20.6616C227.627 18.8834 226.459 17.3495 224.936 16.2588C223.413 15.168 221.604 14.5708 219.746 14.5444H219.73ZM219.91 18.5478C220.685 18.5149 221.453 18.7083 222.125 19.1052C222.797 19.5021 223.344 20.0863 223.704 20.7897L214.528 24.729C214.129 21.6865 216.945 18.5638 219.91 18.5638V18.5478Z" fill="white"/>
<path d="M203.623 34.8976H208.137V3.99951H203.623V34.8976Z" fill="white"/>
<path d="M104.322 70.4833V50.2264H111.487C112.985 50.2032 114.433 50.7775 115.524 51.8277C116.071 52.3173 116.505 52.924 116.797 53.6048C117.089 54.2855 117.231 55.0237 117.214 55.767C117.26 56.6704 117.025 57.5656 116.543 58.3239C116.061 59.0821 115.356 59.6642 114.53 59.9865V60.0986C115.504 60.4096 116.356 61.0292 116.963 61.8681C117.569 62.6969 117.891 63.7074 117.879 64.7425C117.898 65.5202 117.751 66.2929 117.449 67.0066C117.146 67.7202 116.695 68.3575 116.126 68.874C114.975 69.9547 113.455 70.5297 111.894 70.4753H104.33L104.322 70.4833ZM106.864 52.7085V58.9056H111.48C111.9 58.9162 112.318 58.8386 112.709 58.6775C113.099 58.5164 113.452 58.2752 113.748 57.9689C114.312 57.4184 114.639 56.6617 114.658 55.8646C114.677 55.0675 114.386 54.2953 113.85 53.7173L113.772 53.6372C113.492 53.3341 113.153 53.0942 112.777 52.9329C112.401 52.7716 111.997 52.6924 111.589 52.7004H106.895L106.864 52.7085ZM106.864 61.3477V67.9932H111.98C112.844 68.0018 113.676 67.6593 114.293 67.0409C114.911 66.4224 115.263 65.5786 115.274 64.6945C115.274 64.2604 115.188 63.8307 115.022 63.4315C114.855 63.0324 114.611 62.6721 114.304 62.3725C113.986 62.0459 113.606 61.7894 113.187 61.6186C112.769 61.4479 112.321 61.3666 111.871 61.3797H106.856L106.864 61.3477Z" fill="white"/>
<path d="M123.604 51.8286C123.602 52.2525 123.457 52.6625 123.193 52.9889C122.929 53.3154 122.562 53.5381 122.156 53.6192C121.749 53.7002 121.328 53.6347 120.963 53.4337C120.599 53.2327 120.314 52.9086 120.156 52.5166C119.999 52.1246 119.979 51.6888 120.1 51.2835C120.221 50.8782 120.476 50.5283 120.82 50.2934C121.165 50.0585 121.578 49.953 121.99 49.995C122.403 50.0369 122.788 50.2237 123.08 50.5235C123.25 50.6929 123.384 50.8961 123.474 51.1206C123.565 51.345 123.609 51.586 123.604 51.8286ZM123.08 56.6327V70.5002H120.538V56.6327H123.08Z" fill="white"/>
<path d="M132.264 77.0484C131.545 77.0536 130.828 76.9538 130.137 76.7521C129.497 76.5758 128.886 76.3062 128.322 75.9514C127.786 75.5977 127.31 75.1569 126.914 74.6463C126.531 74.1686 126.232 73.6269 126.03 73.045L128.439 72.0201C128.702 72.8125 129.206 73.4975 129.878 73.9737C130.567 74.4632 131.387 74.7207 132.225 74.7104C132.822 74.746 133.42 74.6508 133.979 74.4313C134.537 74.2118 135.043 73.8729 135.464 73.4373C136.282 72.4673 136.7 71.2098 136.629 69.9303V68.5611H136.52C136.031 69.305 135.359 69.9042 134.572 70.2986C133.745 70.7258 132.831 70.9454 131.904 70.9392C131.038 70.9439 130.182 70.7567 129.393 70.3904C128.605 70.0242 127.903 69.4875 127.336 68.8174C126.084 67.3716 125.411 65.4961 125.451 63.5649C125.403 61.6385 126.074 59.7659 127.328 58.3284C127.89 57.6503 128.59 57.1062 129.38 56.7342C130.169 56.3621 131.028 56.1711 131.897 56.1746C132.823 56.1681 133.737 56.3877 134.564 56.8151C135.351 57.2096 136.023 57.8087 136.512 58.5526H136.622V56.631H139.054V69.9063C139.107 70.862 138.97 71.8188 138.651 72.7188C138.333 73.6188 137.839 74.4433 137.2 75.1427C136.545 75.7829 135.77 76.2815 134.922 76.6089C134.074 76.9362 133.17 77.0857 132.264 77.0484ZM132.35 68.5531C132.93 68.5693 133.506 68.4534 134.036 68.2138C134.566 67.9742 135.038 67.617 135.417 67.1679C136.219 66.1467 136.657 64.8755 136.657 63.5649C136.657 62.2543 136.219 60.983 135.417 59.9618C135.041 59.5069 134.571 59.1436 134.04 58.8985C133.51 58.6533 132.932 58.5324 132.35 58.5446C131.769 58.5363 131.193 58.659 130.663 58.9039C130.133 59.1488 129.662 59.51 129.284 59.9618C128.433 60.9583 127.988 62.2507 128.04 63.5729C127.986 64.8905 128.432 66.1785 129.284 67.1679C129.663 67.6183 130.134 67.978 130.664 68.2215C131.194 68.465 131.77 68.5864 132.35 68.5771V68.5531Z" fill="white"/>
<path d="M165.479 70.5152L163.477 71.8444L162.116 69.7786C160.639 70.535 159.011 70.9323 157.36 70.9396C156.01 70.9695 154.67 70.7124 153.423 70.1845C152.176 69.6566 151.05 68.8695 150.116 67.873C148.232 65.8397 147.183 63.1445 147.183 60.3427C147.183 57.5408 148.232 54.8456 150.116 52.8123C151.067 51.8379 152.197 51.0649 153.441 50.5375C154.684 50.0101 156.017 49.7386 157.363 49.7386C158.71 49.7386 160.042 50.0101 161.286 50.5375C162.53 51.0649 163.66 51.8379 164.611 52.8123C165.572 53.7935 166.328 54.9647 166.832 56.2545C167.336 57.5443 167.579 58.9258 167.545 60.3146C167.554 61.8416 167.248 63.3534 166.645 64.7504C166.061 66.1271 165.197 67.3608 164.111 68.3694L165.479 70.5152ZM157.375 68.4495C158.531 68.4493 159.672 68.1753 160.708 67.6488L158.361 64.0778L160.363 62.6926L162.655 66.2316C163.414 65.4673 164.008 64.5488 164.399 63.5352C164.79 62.5215 164.969 61.4354 164.924 60.3467C164.962 59.2796 164.788 58.2156 164.413 57.2192C164.038 56.2228 163.469 55.3147 162.742 54.5498C162.05 53.8032 161.213 53.2136 160.284 52.8191C159.356 52.4247 158.357 52.2341 157.352 52.2598C156.342 52.2351 155.339 52.4259 154.405 52.8202C153.472 53.2145 152.629 53.8035 151.931 54.5498C150.542 56.1464 149.775 58.2093 149.775 60.3467C149.775 62.484 150.542 64.5469 151.931 66.1435C152.63 66.8957 153.477 67.4895 154.414 67.8866C155.352 68.2838 156.361 68.4755 157.375 68.4495Z" fill="white"/>
<path d="M182.017 70.4828H179.584V68.5612H179.474C179.044 69.2863 178.427 69.8762 177.691 70.2666C176.927 70.7095 176.065 70.9438 175.187 70.9472C174.484 70.9935 173.78 70.8877 173.119 70.6366C172.459 70.3856 171.857 69.9948 171.354 69.49C170.399 68.3385 169.921 66.8497 170.024 65.3425V56.6312H172.567V65.1744C172.624 67.4483 173.735 68.5852 175.899 68.5852C176.388 68.5877 176.871 68.4749 177.311 68.2555C177.75 68.0361 178.135 67.7161 178.434 67.3201C179.12 66.4733 179.484 65.4013 179.459 64.3016V56.6312H182.001V70.4828H182.017Z" fill="white"/>
<path d="M191.06 70.9393C190.141 70.9664 189.228 70.7934 188.379 70.4317C187.531 70.0701 186.767 69.528 186.139 68.8415C184.837 67.4084 184.142 65.5053 184.207 63.549C184.15 61.6061 184.828 59.7156 186.1 58.2726C186.722 57.6152 187.465 57.0905 188.286 56.7287C189.107 56.3669 189.99 56.1753 190.884 56.1649C191.778 56.1545 192.665 56.3254 193.494 56.668C194.324 57.0105 195.078 57.5178 195.714 58.1605C196.995 59.7222 197.634 61.7311 197.498 63.7652V64.0454H186.804C186.797 64.6562 186.912 65.2621 187.14 65.8264C187.369 66.3906 187.707 66.9015 188.134 67.3282C188.621 67.8152 189.215 68.1764 189.865 68.3819C190.516 68.5875 191.205 68.6314 191.876 68.5101C192.546 68.3888 193.179 68.1058 193.721 67.6844C194.264 67.2631 194.7 66.7155 194.995 66.0872L197.263 67.2161C196.686 68.3535 195.811 69.3043 194.736 69.9624C193.622 70.6267 192.35 70.9646 191.06 70.9393ZM186.992 61.8836H194.76C194.734 61.4252 194.618 60.9766 194.421 60.5642C194.224 60.1518 193.948 59.7838 193.61 59.4816C192.833 58.8208 191.842 58.4835 190.833 58.5368C189.928 58.5183 189.049 58.8402 188.361 59.4416C187.653 60.0748 187.172 60.9312 186.992 61.8756V61.8836Z" fill="white"/>
<path d="M202.348 70.4829H199.806V56.6313H202.238V58.8972H202.348C202.647 58.1073 203.199 57.4442 203.912 57.0156C204.604 56.5251 205.418 56.2473 206.259 56.2149C206.901 56.1992 207.54 56.3163 208.137 56.5592L207.354 59.0813C206.872 58.9235 206.366 58.8557 205.86 58.8811C205.384 58.8827 204.913 58.9902 204.481 59.1962C204.048 59.4021 203.665 59.7017 203.357 60.0742C202.668 60.8233 202.287 61.8154 202.293 62.8445V70.4909L202.348 70.4829Z" fill="white"/>
<path d="M222.233 56.6312L213.761 76.648H211.133L214.262 69.6582L208.692 56.6312H211.461L215.498 66.5996H215.553L219.464 56.6312H222.21H222.233Z" fill="white"/>
</svg>
