<svg width="283" height="248" viewBox="0 0 283 248" fill="none" xmlns="http://www.w3.org/2000/svg">
<path fill-rule="evenodd" clip-rule="evenodd" d="M280.043 114.699C283.572 120.699 283.572 126.346 280.043 132.345L217.223 239.986C213.694 244.574 209.106 247.045 203.106 247.045H79.5838C73.5841 247.045 68.9961 244.574 65.4669 239.986L2.64691 132.345C-0.882303 126.346 -0.882303 120.699 2.64691 114.699L65.4669 7.05843C68.9961 2.47045 73.5841 0 79.5838 0H203.106C209.106 0 213.694 2.47045 217.223 7.05843L280.043 114.699Z" fill="url(#paint0_linear)"/>
<path fill-rule="evenodd" clip-rule="evenodd" d="M217.576 239.28L263.456 160.579L162.873 59.9964L156.521 75.1721L134.287 53.6439L120.17 87.1714L144.874 111.876L104.994 135.875H88.0539L79.2308 148.227L91.5831 160.579H86.2893L172.755 247.045H202.753C209.459 246.339 214.047 243.868 217.576 239.28Z" fill="black" fill-opacity="0.07"/>
<path fill-rule="evenodd" clip-rule="evenodd" d="M150.168 135.522L141.345 130.228L121.934 141.521L122.64 155.285L99.7003 168.696L86.6422 159.873L106.406 148.227L106.053 140.463L99.3474 136.228L79.5838 147.874L78.525 131.992L101.465 118.581L113.111 126.346L132.522 115.052V92.8182L120.17 86.8185V60.3494L134.287 53.291V76.2309L141.345 79.7601L148.403 76.2309V53.291L162.52 60.3494V86.8185L150.168 93.1711V115.405L169.579 126.699L181.225 118.934L204.165 132.345L203.106 148.227L183.343 136.58L176.637 140.463L176.284 148.227L196.048 159.873L182.99 168.696L160.05 155.285L160.756 141.521L150.168 135.522Z" fill="white"/>
<defs>
<linearGradient id="paint0_linear" x1="141.317" y1="247.045" x2="141.317" y2="0" gradientUnits="userSpaceOnUse">
<stop stop-color="#4387FD"/>
<stop offset="1" stop-color="#4683EA"/>
</linearGradient>
</defs>
</svg>
