<?xml version="1.0" encoding="utf-8"?>
<!-- Generator: Adobe Illustrator 24.0.2, SVG Export Plug-In . SVG Version: 6.00 Build 0)  -->
<svg version="1.1" id="Layer_1" xmlns="http://www.w3.org/2000/svg" xmlns:xlink="http://www.w3.org/1999/xlink" x="0px" y="0px"
	 viewBox="0 0 180 62" style="enable-background:new 0 0 180 62;" xml:space="preserve">
<style type="text/css">
	.st0{fill:#FFFFFF;}
	.st1{fill-rule:evenodd;clip-rule:evenodd;fill:#FFFFFF;}
	.st2{fill-rule:evenodd;clip-rule:evenodd;fill:#384F7F;}
</style>
<g>
	<g id="g885">
		<path id="path8" class="st0" d="M101.9,14.6H90.3V18h8.2c-0.4,4.8-4.4,6.9-8.2,6.9c-5,0-9.1-4-9.1-9l0,0l0,0v-0.2
			c-0.1-5,3.9-9.1,8.9-9.2c0.1,0,0.1,0,0.2,0c2.3,0,4.5,0.9,6.2,2.5L99,6.6c-2.3-2.3-5.5-3.5-8.7-3.4c-7-0.2-12.8,5.4-13,12.3
			s5.4,12.8,12.4,12.9c0.3,0,0.5,0,0.8,0c6.8,0,11.7-4.6,11.7-11.5C102.2,16.1,102.1,15.4,101.9,14.6L101.9,14.6L101.9,14.6z"/>
		<path id="path10" class="st0" d="M111.5,12.1c-4.4-0.1-8.1,3.4-8.2,7.9l0,0l0,0v0.2c0,4.5,3.6,8.2,8.1,8.2s8.2-3.6,8.2-8.1
			C119.6,14.9,115.4,12.1,111.5,12.1z M111.5,15.3c2.3,0,4.6,1.9,4.6,5s-2.2,4.9-4.6,4.9c-2.6,0-4.6-2.1-4.6-5
			S108.9,15.3,111.5,15.3L111.5,15.3z"/>
		<path id="path12" class="st0" d="M129.2,12.1c-4.4-0.1-8.1,3.5-8.2,7.9l0,0l0,0v0.2c0,4.5,3.6,8.2,8.1,8.2c4.5,0,8.2-3.6,8.2-8.1
			C137.4,14.9,133.2,12.1,129.2,12.1L129.2,12.1L129.2,12.1z M129.3,15.3c2.3,0,4.6,1.9,4.6,5s-2.2,4.9-4.6,4.9
			c-2.6,0-4.6-2.1-4.6-5S126.6,15.3,129.3,15.3L129.3,15.3z"/>
		<path id="path14" class="st0" d="M146.7,12.1c-4.4,0-7.8,3.8-7.8,8.1c-0.1,4.4,3.4,8,7.7,8.1c1.7,0.1,3.4-0.6,4.5-2V28
			c0,2.8-1.7,4.5-4.3,4.5c-1.8,0-3.5-1.2-4.2-2.9l-3.1,1.3c1.1,2.3,3.3,4.8,7.3,4.8c4.4,0,7.7-2.7,7.7-8.5V12.6h-3.4V14
			C150,12.7,148.4,12.1,146.7,12.1z M147,15.3c2.1,0,4.4,1.8,4.4,5s-2.2,4.9-4.4,4.9c-2.3,0-4.5-1.9-4.5-4.9
			C142.5,17.1,144.7,15.3,147,15.3L147,15.3L147,15.3z"/>
		<path id="path16" class="st0" d="M169.7,12.1c-4.1,0-7.6,3.3-7.6,8.1c-0.2,4.3,3.2,8,7.6,8.1c0.1,0,0.3,0,0.4,0
			c2.7,0,5.3-1.3,6.8-3.6l-2.8-1.9c-0.8,1.4-2.3,2.3-4,2.2c-1.7,0.1-3.3-0.9-4-2.5L177,18l-0.6-1.3C175.4,14,172.7,12.1,169.7,12.1
			L169.7,12.1L169.7,12.1z M169.8,15.2c1.3-0.1,2.4,0.6,3,1.7l-7.3,3.1C165.2,17.6,167.5,15.2,169.8,15.2L169.8,15.2L169.8,15.2z"/>
		<path id="path18" class="st0" d="M156.9,27.9h3.6v-24h-3.6V27.9z"/>
	</g>
	<g>
		<path class="st0" d="M82.1,54.8c-1.2-0.7-2.2-1.6-2.8-2.8c-0.7-1.2-1-2.5-1-4s0.3-2.8,1-4s1.6-2.1,2.8-2.8c1.2-0.7,2.5-1,4-1
			c1.1,0,2.2,0.2,3.1,0.6s1.8,1,2.5,1.8L90,44.2c-0.5-0.6-1.1-1.1-1.7-1.4c-0.6-0.3-1.4-0.5-2.2-0.5c-1,0-1.9,0.2-2.8,0.7
			c-0.8,0.5-1.5,1.1-2,2c-0.5,0.8-0.7,1.8-0.7,3s0.2,2.1,0.7,3c0.5,0.8,1.2,1.5,2,2s1.8,0.7,2.8,0.7c1.7,0,3.1-0.7,4.3-2.1l1.7,1.6
			c-0.7,0.9-1.6,1.5-2.6,2s-2.1,0.7-3.4,0.7C84.6,55.8,83.3,55.4,82.1,54.8z"/>
		<path class="st0" d="M94.1,40.4h2.3v15h-2.3V40.4z"/>
		<path class="st0" d="M101.2,55c-0.9-0.5-1.5-1.2-2-2c-0.5-0.9-0.7-1.8-0.7-2.9c0-1.1,0.2-2,0.7-2.9s1.1-1.6,2-2
			c0.9-0.5,1.8-0.7,2.9-0.7s2,0.3,2.9,0.8s1.5,1.2,2,2.1c0.5,0.9,0.7,1.8,0.7,2.9c0,1.1-0.2,2-0.7,2.9s-1.1,1.6-2,2
			c-0.9,0.5-1.8,0.7-2.9,0.7C103,55.8,102,55.5,101.2,55z M105.7,53.2c0.5-0.3,0.9-0.7,1.2-1.2c0.3-0.5,0.5-1.2,0.5-1.9
			s-0.2-1.4-0.5-1.9s-0.7-0.9-1.2-1.2s-1.1-0.4-1.6-0.4c-0.6,0-1.1,0.1-1.6,0.4s-0.9,0.7-1.2,1.2c-0.3,0.5-0.5,1.2-0.5,1.9
			s0.2,1.4,0.5,1.9s0.7,1,1.2,1.2c0.5,0.3,1.1,0.4,1.6,0.4C104.7,53.7,105.2,53.5,105.7,53.2z"/>
		<path class="st0" d="M112.6,54.6c-0.7-0.8-1-1.9-1-3.2v-6.6h2.3v6.3c0,0.9,0.2,1.5,0.6,2c0.4,0.4,1,0.7,1.6,0.7
			c0.5,0,1-0.1,1.5-0.4c0.4-0.3,0.7-0.7,1-1.1c0.2-0.5,0.3-1,0.3-1.5V45h2.3v10.7H119v-1.4h-0.1c-0.3,0.5-0.8,0.9-1.4,1.2
			s-1.3,0.5-2,0.5C114.3,55.8,113.3,55.4,112.6,54.6z"/>
		<path class="st0" d="M125.8,55.1c-0.8-0.5-1.4-1.2-1.9-2c-0.5-0.9-0.7-1.8-0.7-2.9c0-1.1,0.2-2.1,0.7-2.9c0.5-0.9,1.1-1.5,1.9-2
			s1.7-0.7,2.6-0.7c0.8,0,1.4,0.2,2,0.5s1.1,0.7,1.4,1.2h0.1l-0.1-1.5v-4.2h2.3v15h-2.2v-1.4h-0.1c-0.3,0.5-0.8,0.9-1.4,1.2
			c-0.6,0.3-1.3,0.5-2,0.5C127.5,55.8,126.6,55.5,125.8,55.1z M130.3,53.2c0.5-0.3,0.9-0.7,1.2-1.3c0.3-0.5,0.4-1.2,0.4-1.9
			s-0.1-1.3-0.4-1.9c-0.3-0.5-0.7-1-1.2-1.2c-0.5-0.3-1-0.4-1.6-0.4s-1.1,0.1-1.6,0.4c-0.5,0.3-0.9,0.7-1.2,1.2
			c-0.3,0.5-0.4,1.2-0.4,1.9s0.1,1.3,0.4,1.9s0.7,1,1.2,1.3s1,0.4,1.6,0.4S129.9,53.5,130.3,53.2z"/>
		<path class="st0" d="M142.5,54.7c-1-0.7-1.7-1.8-2.1-3.1l2.2-0.9c0.2,0.8,0.6,1.5,1.2,2c0.6,0.5,1.3,0.8,2.1,0.8
			c0.7,0,1.4-0.2,1.9-0.6c0.5-0.4,0.8-0.9,0.8-1.6c0-0.6-0.2-1.1-0.7-1.5s-1.3-0.8-2.4-1.2l-0.9-0.3c-1-0.4-1.9-0.9-2.5-1.5
			c-0.7-0.7-1-1.5-1-2.6c0-0.7,0.2-1.4,0.6-2.1c0.4-0.6,1-1.1,1.7-1.5s1.5-0.6,2.4-0.6c1.3,0,2.4,0.3,3.2,1c0.8,0.6,1.3,1.4,1.6,2.2
			l-2.1,0.9c-0.2-0.5-0.4-0.9-0.9-1.3c-0.4-0.4-1-0.5-1.7-0.5s-1.3,0.2-1.7,0.5c-0.5,0.3-0.7,0.8-0.7,1.3s0.2,0.9,0.6,1.3
			c0.4,0.3,1.1,0.7,2,1l0.9,0.3c1.3,0.4,2.3,1,3,1.8c0.7,0.7,1.1,1.7,1.1,2.9c0,1-0.3,1.8-0.8,2.5s-1.1,1.2-1.9,1.5
			c-0.8,0.3-1.6,0.5-2.4,0.5C144.6,55.8,143.5,55.4,142.5,54.7z"/>
		<path class="st0" d="M164.1,55c-1.1,0.5-2.2,0.8-3.4,0.8c-1.5,0-2.8-0.3-4-1s-2.1-1.6-2.8-2.8s-1-2.5-1-4c0-1.4,0.3-2.8,1-4
			s1.6-2.1,2.8-2.8s2.5-1,4-1s2.8,0.4,4,1c1.2,0.7,2.1,1.6,2.8,2.8s1,2.5,1,4c0,1.2-0.2,2.3-0.7,3.3c-0.4,1-1.1,1.9-1.9,2.6l1.1,1.7
			l-1.8,1.2L164.1,55z M162.8,53.1l-1.7-2.6l1.8-1.2l1.7,2.6c0.5-0.5,0.8-1.1,1.1-1.7c0.3-0.7,0.4-1.4,0.4-2.2
			c0-1.1-0.2-2.1-0.7-2.9c-0.5-0.8-1.1-1.5-2-2c-0.8-0.5-1.7-0.7-2.7-0.7s-1.9,0.2-2.7,0.7s-1.5,1.1-2,2c-0.5,0.8-0.7,1.8-0.7,2.9
			c0,1.1,0.2,2.1,0.7,2.9s1.1,1.5,2,2c0.8,0.5,1.7,0.7,2.7,0.7C161.5,53.5,162.2,53.4,162.8,53.1z"/>
		<path class="st0" d="M171.2,40.4h2.4v12.8h6.5v2.2h-8.8L171.2,40.4L171.2,40.4z"/>
	</g>
</g>
<g>
	<path class="st1" d="M0.7,33.2c-0.9-1.5-0.9-2.9,0-4.4l15.6-27c0.9-1.2,2-1.8,3.5-1.8h30.6c1.5,0,2.6,0.6,3.5,1.8l15.6,27
		c0.9,1.5,0.9,2.9,0,4.4l-15.6,27c-0.9,1.2-2,1.8-3.5,1.8H19.8c-1.5,0-2.6-0.6-3.5-1.8L0.7,33.2z"/>
	<g>
		<polygon class="st2" points="46,33.7 46,28.8 35.1,35 24.1,28.3 24.1,33.7 35.1,39.9 		"/>
		<polygon class="st2" points="35.1,42.5 24.1,35.9 24.1,41.2 35.1,47.4 46,41.2 46,36.3 		"/>
		<path class="st2" d="M46,25.7v-4.9l-10.9-6.2l-10.9,6.2v4.9l10.9,6.6L46,25.7z M35.1,19.5l6.6,4L35.1,27l-6.6-3.5L35.1,19.5z"/>
	</g>
</g>
</svg>
