<svg xmlns="http://www.w3.org/2000/svg" width="15" height="12" viewBox="0 0 15 12">
  <defs>
    <style>
      .cls-1 {
        fill: #fff;
        fill-rule: evenodd;
      }
    </style>
  </defs>
  <path id="arrow-right-button.svg" class="cls-1" d="M1393.6,990.423a1.891,1.891,0,0,1,0-1.153,2.247,2.247,0,0,1,.28-0.461,3.006,3.006,0,0,1,.45-0.438,1.787,1.787,0,0,1,.46-0.277,1.694,1.694,0,0,1,.61-0.093h0.11a1.492,1.492,0,0,1,1.01.508l1.04,0.992q1.545,1.488,3,3L1402,994l-1.44,1.5q-1.455,1.51-3,3l-0.97.935a1.57,1.57,0,0,1-2.1.288,2.949,2.949,0,0,1-.7-0.692,1.63,1.63,0,0,1-.28-0.946,1.731,1.731,0,0,1,.55-1.142l1-1.1h-6.09a1.839,1.839,0,0,1-.9-0.185,2.771,2.771,0,0,1-.51-0.369,2.828,2.828,0,0,1-.37-0.507,1.715,1.715,0,0,1,0-1.569,2.005,2.005,0,0,1,.88-0.877,1.852,1.852,0,0,1,.9-0.184h6.18l-0.61-.588a6.114,6.114,0,0,1-.61-0.635,2.077,2.077,0,0,1-.33-0.508" transform="translate(-1387 -988)"/>
</svg>
