<svg xmlns="http://www.w3.org/2000/svg" width="90.31" height="25.19" viewBox="0 0 90.31 25.19">
  <defs>
    <style>
      .cls-1 {
        fill: #b5bdc9;
        fill-rule: evenodd;
      }
    </style>
  </defs>
  <path id="brand_6.svg" class="cls-1" d="M1788.64,1260.8h3.31v3.29h-3.31v-3.29h0Zm-1.48,24.67v-2.74c1.41,0,1.48-.52,1.48-1.83v-15.03h3.45v15.89a8.485,8.485,0,0,1-.18,1.79c-0.28,1.21-1.8,1.87-2.86,1.91-0.24.01-1.86-.01-1.89,0.01h0Zm-5.27-13.85c0-1.45-.93-3.04-2.53-3.04-2.11,0-2.85,1.66-2.85,3.68v7.71l-3.49-.02v-13.81h3.29v1.64c1.24-1.74,1.95-2.15,4.27-2.15a5.494,5.494,0,0,1,3,.98c1.72,1.06,1.6,3.43,1.6,5.22v8.12h-3.29v-8.33h0Zm-15.04-.04a3.821,3.821,0,0,0-.69-2.04,2.684,2.684,0,0,0-2.01-.96,2.619,2.619,0,0,0-1.97.97,4.168,4.168,0,0,0-.76,2.03h5.43Zm36.88,0a3.815,3.815,0,0,0-.68-2.04,2.544,2.544,0,0,0-3.99.01,4.375,4.375,0,0,0-.76,2.03h5.43Zm-33.48,4.36c-1.31,4.2-3.51,4.44-6.22,4.45a6,6,0,0,1-4.83-2.24,8.765,8.765,0,0,1-1.52-5.06v-0.23a10.46,10.46,0,0,1,.57-3.43,5.683,5.683,0,0,1,1.98-2.75,4.216,4.216,0,0,1,1.52-.81,6.124,6.124,0,0,1,1.7-.24h1a5.365,5.365,0,0,1,.99.08c0.34,0.05.66,0.12,0.99,0.2a4.708,4.708,0,0,1,2.33,1.49,6.267,6.267,0,0,1,1.4,2.53,12.347,12.347,0,0,1,.21,1.29c0.04,0.43.07,0.86,0.07,1.29v0.54c0,0.19-.02.73-0.03,0.93h-9.07c-0.03,1.99,1.1,3.57,2.73,3.63a2.615,2.615,0,0,0,2.85-1.67h3.33Zm36.9,0c-1.32,4.2-3.52,4.44-6.24,4.45a5.982,5.982,0,0,1-4.83-2.24,8.62,8.62,0,0,1-1.52-5.06v-0.23a10.451,10.451,0,0,1,.56-3.43,5.814,5.814,0,0,1,1.98-2.75,4.52,4.52,0,0,1,1.53-.81,6.248,6.248,0,0,1,1.71-.24h1.01a5.66,5.66,0,0,1,.99.08,9.789,9.789,0,0,1,.97.2,4.805,4.805,0,0,1,2.35,1.49,6.622,6.622,0,0,1,1.39,2.53,10.174,10.174,0,0,1,.21,1.29,11.139,11.139,0,0,1,.06,1.29v0.54c0,0.19-.01.73-0.02,0.93h-9.07c-0.03,1.99,1.1,3.57,2.73,3.63a2.629,2.629,0,0,0,2.85-1.67h3.34Zm-58.21-9.94h3.36v2.22c0.64-.68,1.31-2.7,4.47-2.58v3.66a4.974,4.974,0,0,0-3.37.87,3.789,3.789,0,0,0-1.02,2.89l-0.03,6.97h-3.41V1266h0Zm-12.85,7.08a5.4,5.4,0,0,0,.78,2.93,3.269,3.269,0,0,0,2.71,1.45,3.179,3.179,0,0,0,2.68-1.47,5.592,5.592,0,0,0,.76-2.91v-0.38a5.345,5.345,0,0,0-.74-2.49,3.064,3.064,0,0,0-2.32-1.46h-0.14a0.647,0.647,0,0,0-.13-0.04,0.342,0.342,0,0,1-.15-0.02h-0.13a3.092,3.092,0,0,0-2.53,1.41,5.618,5.618,0,0,0-.79,2.98h0Zm-3.29.12a8.039,8.039,0,0,1,1.63-5.27,5.544,5.544,0,0,1,4.55-2.01h0.99a5.115,5.115,0,0,1,.78.02,5.323,5.323,0,0,1,.8.12,4.861,4.861,0,0,1,3.63,2.5,9.414,9.414,0,0,1,1.18,4.45v0.19a8.385,8.385,0,0,1-1.55,5.13,5.551,5.551,0,0,1-4.73,2.05l-1,.02a5.635,5.635,0,0,1-4.72-2.07,8.2,8.2,0,0,1-1.56-5.13h0Zm-12.03-.3v0.16a2.484,2.484,0,0,0,.02.39c0,0.14.01,0.27,0.02,0.42a6,6,0,0,0,.81,2.34,2.464,2.464,0,0,0,2.04,1.2h0.06a2.583,2.583,0,0,0,2.07-1.15,5.149,5.149,0,0,0,.75-2.57v-0.12a0.487,0.487,0,0,1,.01-0.12v-0.24c0-.16,0-0.32-0.01-0.48a3.953,3.953,0,0,0-.03-0.5,5.836,5.836,0,0,0-.67-2.18,2.371,2.371,0,0,0-1.8-1.24c-0.04,0-.08-0.01-0.12-0.01a0.127,0.127,0,0,1-.09-0.04h-0.11a0.345,0.345,0,0,0-.12-0.01,2.647,2.647,0,0,0-2.11,1.35,5.842,5.842,0,0,0-.72,2.8h0Zm6.22,6.23a4.3,4.3,0,0,1-1.43.76,5.088,5.088,0,0,1-1.65.26l-1.01.03a0.091,0.091,0,0,0-.07-0.03h-0.1a4.874,4.874,0,0,1-4.32-2.21,8.56,8.56,0,0,1-1.41-4.9,8.672,8.672,0,0,1,1.43-4.91,4.815,4.815,0,0,1,4.3-2.18c3.01-.01,3.23.77,4.09,2.23v-1.83h3.28l0.06,13.57-0.06-.46c-0.01-.2.04,0.9,0.04,1.12s-0.05.75-.06,0.95a5.535,5.535,0,0,1-.22,1.16,3.407,3.407,0,0,1-.61,1.18,4.252,4.252,0,0,1-1.96,1.56,7.832,7.832,0,0,1-2.47.51c-0.1,0-.21.03-0.31,0.03h-0.32l-0.99.03a0.68,0.68,0,0,0-.19-0.03h-0.46a6.208,6.208,0,0,1-3.22-.91,3.636,3.636,0,0,1-1.61-3.27l3.71,0.03c0.15,1.52.98,1.72,2.3,1.72,2.32,0,3.31-1.35,3.28-3.36,0-.08.03-0.17,0.03-0.27,0-.08-0.05-0.68-0.05-0.78h0Z" transform="translate(-1717 -1260.81)"/>
</svg>
