<svg xmlns="http://www.w3.org/2000/svg" width="65" height="18" viewBox="0 0 65 18">
  <defs>
    <style>
      .cls-1 {
        fill: #b5bdc9;
        fill-rule: evenodd;
      }
    </style>
  </defs>
  <path id="brand_2.svg" class="cls-1" d="M1739.35,1318.31h-9.03v3h4.93l-5.25,10.94v3.44h9.35v-3.1h-5.29l5.29-11.28v-3h0Zm6.81,14.19,0.43,3.19h3.73l-3.19-17.38h-4.64q-1.575,8.685-3.14,17.38h3.69l0.45-3.19h2.67Zm-2.32-2.91,0.97-7,0.99,7h-1.96Zm16.59-11.28-0.01,17.38h-4.11l-2.42-9.47v9.47h-3.57v-17.38h4.02l2.63,9.72v-9.72h3.46Zm9.21,16.53a2.917,2.917,0,0,0,.4-0.45,2.748,2.748,0,0,0,.31-0.52,3.062,3.062,0,0,0,.2-0.58,9.5,9.5,0,0,0,.21-1.75l0.02-.54v-12.69h-3.67V1331c-0.01.26-.02,0.56-0.05,0.84-0.01.08-.03,0.16-0.04,0.24s-0.04.16-.06,0.23a0.811,0.811,0,0,1-.26.43,1.093,1.093,0,0,1-.46.22,1.7,1.7,0,0,1-.55-0.01,0.825,0.825,0,0,1-.26-0.1,0.8,0.8,0,0,1-.22-0.17,1.284,1.284,0,0,1-.23-0.45c-0.02-.08-0.03-0.16-0.05-0.28s-0.03-.29-0.05-0.46c0-.16-0.01-0.33-0.01-2.53v-10.65h-3.62l-0.01,12.69a6.674,6.674,0,0,0,.46,2.77,3.146,3.146,0,0,0,.62.88,4.974,4.974,0,0,0,.48.42,4.146,4.146,0,0,0,.57.35,4.07,4.07,0,0,0,.74.29,8.39,8.39,0,0,0,1.27.25,6.74,6.74,0,0,0,1.42,0,8,8,0,0,0,1.26-.25,3.019,3.019,0,0,0,.65-0.24,3.768,3.768,0,0,0,.48-0.28,3.019,3.019,0,0,0,.45-0.35h0Zm2.9-15.82a3.839,3.839,0,0,0-.46.45,2.87,2.87,0,0,0-.39.57,4.123,4.123,0,0,0-.28.64,5.593,5.593,0,0,0-.24,2.15,5.788,5.788,0,0,0,.31,1.45,4.972,4.972,0,0,0,.33.71c0.14,0.24.32,0.5,0.5,0.75a9.764,9.764,0,0,0,1.28,1.39c0.24,0.22.49,0.45,0.75,0.68s0.52,0.45.76,0.66,0.48,0.41.71,0.62,0.43,0.43.64,0.66c0.06,0.07.11,0.14,0.17,0.22a2.028,2.028,0,0,1,.17.29,4.266,4.266,0,0,1,.22.54,2.633,2.633,0,0,1,.13.62,3.06,3.06,0,0,1,.01.6,0.962,0.962,0,0,1-.1.39,0.853,0.853,0,0,1-.19.3,0.835,0.835,0,0,1-.3.22,1.255,1.255,0,0,1-.84.11,1.678,1.678,0,0,1-.38-0.14,1.024,1.024,0,0,1-.25-0.19,1.187,1.187,0,0,1-.16-0.23,2.852,2.852,0,0,1-.21-1.19v-1.6h-3.7v1.61c0,0.1.01,0.2,0.01,0.35a7.026,7.026,0,0,0,.12,1.13c0.05,0.19.1,0.38,0.16,0.56a3.888,3.888,0,0,0,.21.51,3.7,3.7,0,0,0,.29.47,3.507,3.507,0,0,0,.37.4,4.373,4.373,0,0,0,.59.45,5.7,5.7,0,0,0,2.01.71,7.781,7.781,0,0,0,2.68,0c0.22-.04.44-0.1,0.63-0.15a4.366,4.366,0,0,0,.48-0.19,3.623,3.623,0,0,0,.43-0.24,2.674,2.674,0,0,0,.47-0.35,4.367,4.367,0,0,0,.64-0.69,3.287,3.287,0,0,0,.48-0.93,3.631,3.631,0,0,0,.21-1.03,9.3,9.3,0,0,0,.02-1.18c-0.02-.2-0.03-0.39-0.06-0.57a4.415,4.415,0,0,0-.21-0.92,3.389,3.389,0,0,0-.19-0.48,7.5,7.5,0,0,0-.77-1.26,8.316,8.316,0,0,0-.56-0.66c-0.25-.26-0.57-0.59-0.9-0.91-0.63-.61-1.29-1.19-1.94-1.78a7.717,7.717,0,0,1-.92-0.99c-0.07-.1-0.14-0.2-0.21-0.32a2.145,2.145,0,0,1-.26-1.39,1.207,1.207,0,0,1,.1-0.32,0.874,0.874,0,0,1,.41-0.41,1.332,1.332,0,0,1,.96-0.11,1.036,1.036,0,0,1,.32.15,1.026,1.026,0,0,1,.38.58,3.261,3.261,0,0,1,.11.79v1.37h3.5c0-.29-0.01-0.57-0.01-0.86s-0.02-.57-0.03-0.8a7.383,7.383,0,0,0-.14-1.15,3.68,3.68,0,0,0-.38-1.08,3.207,3.207,0,0,0-.34-0.48,3.579,3.579,0,0,0-.78-0.67c-0.12-.08-0.25-0.15-0.38-0.22a3.685,3.685,0,0,0-.57-0.24,9.165,9.165,0,0,0-1.31-.33,5.95,5.95,0,0,0-1.52-.02,8.2,8.2,0,0,0-1.31.29,3.232,3.232,0,0,0-.56.21c-0.12.07-.23,0.13-0.35,0.21a3.048,3.048,0,0,0-.36.27h0Zm8.63,11.98a7.67,7.67,0,0,0,.13,1.78,5.118,5.118,0,0,0,.15.56,2.906,2.906,0,0,0,.22.51,2.828,2.828,0,0,0,.29.47,3.423,3.423,0,0,0,.36.4,6.139,6.139,0,0,0,.59.45,5.7,5.7,0,0,0,2.01.71,7.781,7.781,0,0,0,2.68,0c0.22-.04.44-0.1,0.63-0.15a3.694,3.694,0,0,0,.48-0.19,3.751,3.751,0,0,0,.44-0.24,2.661,2.661,0,0,0,.46-0.35,4.367,4.367,0,0,0,.64-0.69,3.287,3.287,0,0,0,.48-0.93,4.762,4.762,0,0,0,.2-0.95,5.794,5.794,0,0,0,.04-0.67c0-.2,0-0.39-0.01-0.59s-0.03-.39-0.05-0.57a4.419,4.419,0,0,0-.22-0.92,2.5,2.5,0,0,0-.19-0.48,6.894,6.894,0,0,0-.77-1.26,8.316,8.316,0,0,0-.56-0.66c-0.24-.26-0.57-0.59-0.9-0.91-0.63-.61-1.28-1.19-1.93-1.78a6.021,6.021,0,0,1-1.12-1.29,2.119,2.119,0,0,1-.27-1.45,1.518,1.518,0,0,1,.09-0.28,0.874,0.874,0,0,1,.41-0.41,1.332,1.332,0,0,1,.96-0.11,1.036,1.036,0,0,1,.32.15,0.978,0.978,0,0,1,.38.58,3.261,3.261,0,0,1,.11.79v1.37h3.5c0-.29,0-0.57-0.01-0.86s-0.02-.57-0.03-0.8a6.347,6.347,0,0,0-.14-1.15,3.413,3.413,0,0,0-.38-1.08,2.617,2.617,0,0,0-.34-0.48,3.579,3.579,0,0,0-.78-0.67c-0.12-.08-0.25-0.15-0.38-0.22a3.685,3.685,0,0,0-.57-0.24,8.828,8.828,0,0,0-1.31-.33,5.944,5.944,0,0,0-1.52-.02,8.457,8.457,0,0,0-1.31.29,2.748,2.748,0,0,0-.55.21c-0.12.07-.24,0.13-0.36,0.21a3.048,3.048,0,0,0-.36.27,3.182,3.182,0,0,0-.45.45,3.408,3.408,0,0,0-.4.57,3.324,3.324,0,0,0-.27.64,5.508,5.508,0,0,0,.07,3.6,4,4,0,0,0,.32.71,7.675,7.675,0,0,0,.51.75,9.131,9.131,0,0,0,1.27,1.39c0.24,0.22.5,0.45,0.75,0.68s0.52,0.45.77,0.66,0.47,0.41.7,0.62,0.43,0.43.57,0.58a1.9,1.9,0,0,1,.24.3,2.028,2.028,0,0,1,.17.29,3.164,3.164,0,0,1,.22.54,2.633,2.633,0,0,1,.13.62,2.441,2.441,0,0,1,.01.6,0.974,0.974,0,0,1-.09.39,1.049,1.049,0,0,1-.2.3,1.183,1.183,0,0,1-.28.22,1.339,1.339,0,0,1-.86.11,1.879,1.879,0,0,1-.38-0.14,0.806,0.806,0,0,1-.24-0.19,1.242,1.242,0,0,1-.17-0.23,3.021,3.021,0,0,1-.21-1.19v-1.6h-3.69V1331h0Zm13.83-12.7h-3.64v17.39H1795V1318.3h0Z" transform="translate(-1730 -1318)"/>
</svg>
