<svg xmlns="http://www.w3.org/2000/svg" width="78" height="15" viewBox="0 0 78 15">
  <defs>
    <style>
      .cls-1 {
        fill: #b5bdc9;
        fill-rule: evenodd;
      }
    </style>
  </defs>
  <path id="brand_3.svg" class="cls-1" d="M1570,1320.23h6.83a5.3,5.3,0,0,1,5.16,5.69c0,5.33-5.28,5.68-5.28,5.68H1574v3.25h-4v-14.62h0Zm4,8.05h1.59a2.368,2.368,0,0,0,2.12-2.44,2.414,2.414,0,0,0-2.28-2.4H1574v4.84h0Zm50.27-8.05h6.96a5.424,5.424,0,0,1,5.03,5.69c0,4.87-5.07,5.68-5.07,5.68h-2.92v3.25h-4v-14.62h0Zm4,8.05h1.6a2.368,2.368,0,0,0,2.12-2.44,2.414,2.414,0,0,0-2.28-2.4h-1.44v4.84h0Zm-44.52-7.93h3.95v5.33h4.2v-5.33h3.79v14.5h-3.75v-5.88h-4.2v5.88h-3.99v-14.5h0Zm15.68-.04h3.78v14.54h-3.78v-14.54h0Zm17.42,0h3.78v14.54h-3.78v-14.54h0Zm-9.93.04h3.8v11.06h4.11v3.44h-7.91v-14.5h0Zm39.4-.16a25.966,25.966,0,0,0-2.84-.19c-2.07,0-5.71.54-5.75,4.72a4.084,4.084,0,0,0,3.44,4.17c3.47,0.86,2.69,1.53,2.79,1.63,0,0,.08,1.04-2.55,1.04s-3.24-.46-3.24-0.46v3.4a13.272,13.272,0,0,0,3.2.47c3.39,0.27,6.63-1.16,6.63-4.68,0-1.4-.72-3.64-4.04-4.41-2.12-.5-2.41-1.08-2.39-1.36,0,0-.1-1.17,2.31-1.12,2.24,0.05,2.48.35,2.48,0.35l-0.04-3.56h0Z" transform="translate(-1570 -1320)"/>
</svg>
