<svg xmlns="http://www.w3.org/2000/svg" width="102.97" height="14.41" viewBox="0 0 102.97 14.41">
  <defs>
    <style>
      .cls-1 {
        fill: #b5bdc9;
        fill-rule: evenodd;
      }
    </style>
  </defs>
  <path id="brand_4.svg" class="cls-1" d="M1422.39,1334.56l2.56-13.48h6.19l2.31,13.48h-4.01l-1.33-10.52-1.82,10.52h-3.9Zm15.31-13.49h6.07l1.33,7.34,1.46-7.34h5.83v13.49h-3.28V1324.5l-2.19,10.06h-3.76l-2.06-10.06v10.06h-3.42l0.02-13.49h0Zm33.25-.01h4.14v9.95a0.974,0.974,0,1,0,1.94,0v-9.95h4.07v10.3s0.09,3.2-5.03,3.2-5.11-3.2-5.11-3.2l-0.01-10.3h0Zm14.82,0h4.61l3.89,7.93v-7.94h3.52v13.51h-4.13l-4.12-8.53v8.53h-3.77v-13.5h0Zm21.68-.46c4.95,0,4.54,2.55,4.54,2.55v2.02h-3.52l-0.02-1.14a0.834,0.834,0,0,0-.95-0.88,1.011,1.011,0,0,0-1.09.88v7.3s-0.21.91,1.04,0.91a0.649,0.649,0,0,0,.74-0.68v-2.45h-0.73v-1.97h4.53v5.6s0.38,2.24-4.54,2.24-4.92-2.23-4.92-2.23v-9.56s-0.02-2.59,4.92-2.59h0Zm-45.4.03c3.74,0.04,4.37,1.97,4.37,1.97l-0.02,2.23h-3.53v-1.05a1.028,1.028,0,0,0-1.86-.07,1.131,1.131,0,0,0,.48,1.58c0.65,0.39,4.21,2.05,4.69,2.76a4.835,4.835,0,0,1,.65,3.08c0,2.37-1.42,3.87-4.85,3.87s-5.03-1.53-5.03-2.72v-2.17h3.67v1.44a1.1,1.1,0,0,0,1.27.72,1.026,1.026,0,0,0,.82-1.69c-1.37-.71-4.78-3.16-4.78-3.16s-1-.77-1-3.23,1.39-3.6,5.12-3.56h0Zm-47.9-.03c3.74,0.04,4.37,1.97,4.37,1.97l-0.02,2.23h-3.53v-1.05a1.027,1.027,0,0,0-1.86-.07,1.134,1.134,0,0,0,.48,1.58c0.65,0.39,4.21,2.05,4.69,2.76a4.835,4.835,0,0,1,.65,3.08c0,2.36-1.42,3.87-4.85,3.87s-5.02-1.53-5.02-2.72v-2.18h3.66v1.45a1.1,1.1,0,0,0,1.27.72,1.026,1.026,0,0,0,.82-1.69c-1.37-.71-4.78-3.16-4.78-3.16s-1-.77-1-3.24,1.39-3.59,5.12-3.55h0Z" transform="translate(-1409.03 -1320.59)"/>
</svg>
