<svg xmlns="http://www.w3.org/2000/svg" width="76.5" height="17.84" viewBox="0 0 76.5 17.84">
  <defs>
    <style>
      .cls-1 {
        fill: #b5bdc9;
        fill-rule: evenodd;
      }
    </style>
  </defs>
  <path id="brand_8.svg" class="cls-1" d="M1434.7,1272.69a4.3,4.3,0,0,0,1.52-3.08c0-2.37-1.43-4.88-5.18-4.88H1423v16.92h9.08a4.929,4.929,0,0,0,4.81-4.74,5.109,5.109,0,0,0-2.19-4.22h0Zm-7.7-4.29h3.37a1.517,1.517,0,0,1,1.33,1.59,1.564,1.564,0,0,1-1.66,1.57H1427v-3.16h0Zm3.19,9.82H1427v-3.46h3.32a1.74,1.74,0,1,1-.13,3.46h0Zm15.68-13.82c-3.89,0-7.99,3.08-7.99,8.7,0,5.16,3.52,8.83,7.99,8.83s7.99-3.67,7.99-8.83c0-5.62-4.09-8.7-7.99-8.7h0Zm0,13.67c-2.29,0-3.99-2.33-3.99-5.1,0-2.7,2.23-4.66,3.99-4.66s4,1.96,4,4.66c0,2.77-1.72,5.1-4,5.1h0Zm18.26-6.64c-2.84-.42-4.51-0.79-4.51-2.05,0-.94.51-1.53,1.79-1.53a7.466,7.466,0,0,1,3.81,1.35l2.34-2.7a12.239,12.239,0,0,0-5.81-2.33c-4.04,0-6.56,2.37-6.56,5.44a4.815,4.815,0,0,0,4.43,4.97c2.47,0.37,4.23.88,4.23,2.1,0,0.97-1.04,1.48-2.19,1.48a5.873,5.873,0,0,1-4.33-2.05c-1.18,1.17-2.66,2.7-2.66,2.7a8.092,8.092,0,0,0,6.65,3.08c4.57,0,7-3.17,7-5.45a4.919,4.919,0,0,0-4.19-5.01h0Zm13.53-3.12c1.33,0,1.96.7,3.1,1.96l3.28-2.2c-1.62-2.36-3.61-3.8-6.61-3.8-4.26,0-7.83,3.86-7.83,8.87s3.57,8.88,7.83,8.88c3,0,4.99-1.44,6.61-3.8l-3.28-2.2c-1.14,1.26-1.77,1.96-3.1,1.96-2.18,0-3.93-1.81-3.93-4.84s1.75-4.83,3.93-4.83h0Zm17.6,2.33h-5.22v-5.91h-4.25v16.92h4.25v-6.74h5.22v6.74h4.23v-16.92h-4.23v5.91h0Z" transform="translate(-1423 -1264.19)"/>
</svg>
