<svg xmlns="http://www.w3.org/2000/svg" width="118.69" height="30.59" viewBox="0 0 118.69 30.59">
  <defs>
    <style>
      .cls-1 {
        fill: #b5bdc9;
        fill-rule: evenodd;
      }
    </style>
  </defs>
  <path id="brand_7.svg" class="cls-1" d="M1567.97,1260.44c-1.54-.45-2.66,1.21-1.74,2.18a12.3,12.3,0,0,1,6.8,10.88c0,6.83-5.81,12.4-12.96,12.4h-0.12a12.7,12.7,0,0,1-12.83-12.4,12.325,12.325,0,0,1,6.6-10.78,1.474,1.474,0,0,0-1.45-2.33,15,15,0,0,0-8,13.11c0,8.27,7.03,15.04,15.68,15.1h0.12c8.69,0,15.8-6.79,15.8-15.1a15,15,0,0,0-7.9-13.06h0Zm14.64,20.58h3.07V1267.2h-3.07v13.82h0Zm-22.66-18.9c0.02,0,.02.02,0.04,0.02a2.071,2.071,0,1,0,0-4.14h-0.04a2.06,2.06,0,1,0,0,4.12h0Zm35.74,5.08h-6.94v13.82h3.06V1269.9h3.54c1.8,0,3.04.87,3,2.91v8.21h3.07v-9.06c0-3.02-2.6-4.76-5.73-4.76h0Zm-35.74-1.84a1.665,1.665,0,0,0-1.69,1.64v14.2a1.692,1.692,0,0,0,3.38,0V1267a1.678,1.678,0,0,0-1.69-1.64h0Zm65.55,1.48c-3.69.16-6.07,2.55-6.44,7.11-0.24,3.48,1.69,7.11,6.44,7.43a1.67,1.67,0,0,0,.33.02,13.564,13.564,0,0,0,5.03-.68l0.04-2.6a10.159,10.159,0,0,1-5.4.67c-1.89-.34-3.23-1.46-3.17-3.4h9.04c1.18-5.13-1.6-8.53-5.87-8.55h0Zm3.39,6.1h-6.76v-0.04a3.391,3.391,0,1,1,6.76,0v0.04h0Zm18.52,8.08h3.07V1267.2h-3.07v13.82h0Zm-7.43-8c-5.14-.85-3.84-5.07,3.98-3.1v-2.45c-2.17-.67-5.67-0.84-7.53,0-3.86,1.84-3.58,7.59,2.82,8.22,4.16,0.49,3.49,5.15-5.28,2.41v2.7c2.76,0.75,6.21,1.07,8.61,0a4.064,4.064,0,0,0,2.21-3.49c0.06-2.21-1.44-3.79-4.81-4.29h0Zm19.45-5.82h-6.6v2.72h3.54v11.1h3.06v-11.1h3.54v-2.72h-3.54Zm-48.67.1a10.149,10.149,0,0,0-1.38-.08h-4.82v13.82h4.88a9.18,9.18,0,0,0,1.32-.08c5.05-.53,6.19-4.15,6.17-6.61-0.02-3.81-2.05-6.58-6.17-7.05h0Zm0,11a7.8,7.8,0,0,1-1.54.15h-1.63v-8.67h1.58a6.439,6.439,0,0,1,1.59.18,4.087,4.087,0,0,1,3.15,4.31,3.851,3.851,0,0,1-3.15,4.03h0Z" transform="translate(-1544.28 -1258)"/>
</svg>
