<svg xmlns="http://www.w3.org/2000/svg" width="34" height="31" viewBox="0 0 34 31">
  <defs>
    <style>
      .cls-1 {
        fill: #3c4858;
        fill-rule: evenodd;
      }
    </style>
  </defs>
  <path id="holidays-calendar.svg" class="cls-1" d="M1607,981h-5v-1c0-.4.02-1-0.38-1a0.708,0.708,0,0,0-.7.72L1601,981h-6v-1c0-.4-0.07-1-0.46-1a0.9,0.9,0,0,0-.54,1v1h-6v-1a0.9,0.9,0,0,0-.54-1c-0.39,0-.46.6-0.46,1v1h-6l0.08-1.28a0.71,0.71,0,0,0-.71-0.72c-0.39,0-.37.6-0.37,1v1h-5c-0.78,0-1,.811-1,1.6v25.957a1.436,1.436,0,0,0,1.42,1.44h31.16a1.436,1.436,0,0,0,1.42-1.44V982.6C1608,981.811,1607.78,981,1607,981Zm-32,1h5v2c0,0.429-.02.985,0.37,0.985A0.9,0.9,0,0,0,1581,984v-2h6v2c0,0.429.07,0.985,0.46,0.985A0.861,0.861,0,0,0,1588,984v-2h6v2a0.861,0.861,0,0,0,.54.985c0.39,0,.46-0.556.46-0.985v-2h6l-0.08,2.206a0.741,0.741,0,0,0,.7.779c0.4,0,.38-0.556.38-0.985v-2h5c0.22-.4,0,0,0,0v4h-32v-4h0Zm32,27h-32V987h32v22h0Zm-13-11h2l-5-9-5,9h2l-3,6h4v3h4v-3h4Zm-3-6.4,2.67,5.427h-5.33Zm-2,7.4h4l2,4h-8Zm3,7h-2v-2h2v2Zm-9.5-17.62a0.721,0.721,0,1,0,.71.72A0.717,0.717,0,0,0,1582.5,988.38Zm17,0a0.721,0.721,0,1,0,.71.72A0.717,0.717,0,0,0,1599.5,988.38Zm-21.25,4.325a0.722,0.722,0,1,0,.71.721A0.717,0.717,0,0,0,1578.25,992.705Zm4.25,4.326a0.721,0.721,0,1,0,.71.72A0.717,0.717,0,0,0,1582.5,997.031Zm4.25-2.883a0.722,0.722,0,1,0-.71-0.722A0.717,0.717,0,0,0,1586.75,994.148Zm8.5,0a0.722,0.722,0,1,0-.71-0.722A0.717,0.717,0,0,0,1595.25,994.148Zm4.25,2.883a0.721,0.721,0,1,0,.71.72A0.717,0.717,0,0,0,1599.5,997.031Zm4.25-4.326a0.722,0.722,0,1,0,.71.721A0.717,0.717,0,0,0,1603.75,992.705Zm-25.5,8.655a0.72,0.72,0,1,0,.71.72A0.715,0.715,0,0,0,1578.25,1001.36Zm4.25,4.32a0.72,0.72,0,1,0,.71.72A0.721,0.721,0,0,0,1582.5,1005.68Zm17,0a0.72,0.72,0,1,0,.71.72A0.721,0.721,0,0,0,1599.5,1005.68Zm4.25-4.32a0.72,0.72,0,1,0,.71.72A0.715,0.715,0,0,0,1603.75,1001.36Z" transform="translate(-1574 -979)"/>
</svg>
