<svg xmlns="http://www.w3.org/2000/svg" width="32" height="36" viewBox="0 0 32 36">
  <defs>
    <style>
      .cls-1 {
        fill: #3ea2ee;
        fill-rule: evenodd;
      }
    </style>
  </defs>
  <path id="icon-menu-inner-3.svg" class="cls-1" d="M1720.4,1093h27.2a2.451,2.451,0,0,0,2.4-2.48v-25.53a2.426,2.426,0,0,0-1.59-2.32v-3.19a2.451,2.451,0,0,0-2.4-2.48h-23.83a2.451,2.451,0,0,0-2.4,2.48v3.15a2.44,2.44,0,0,0-1.79,2.4v25.53A2.45,2.45,0,0,0,1720.4,1093Zm1.78-34.52h23.79a0.972,0.972,0,0,1,.97,1v3.03h-25.77v-3.03A1.039,1.039,0,0,1,1722.18,1058.48Zm-2.79,6.51a0.978,0.978,0,0,1,.97-1h27.2a0.978,0.978,0,0,1,.97,1v25.53a0.978,0.978,0,0,1-.97,1H1720.4a0.972,0.972,0,0,1-.97-1v-25.53h-0.04Zm14.45,23.02a10.595,10.595,0,1,0-10.27-10.59A10.453,10.453,0,0,0,1733.84,1088.01Zm0-19.74a9.154,9.154,0,1,1-8.87,9.15A9.036,9.036,0,0,1,1733.84,1068.27Zm0,15.82a0.441,0.441,0,0,0,0-.88,5.821,5.821,0,0,1-5.65-5.83,0.43,0.43,0,0,0-.86,0A6.712,6.712,0,0,0,1733.84,1084.09Zm-9.84-22.86h0.54a0.717,0.717,0,0,0,0-1.43H1724A0.717,0.717,0,0,0,1724,1061.23Zm2.64,0h0.54a0.717,0.717,0,0,0,0-1.43h-0.54A0.715,0.715,0,0,0,1726.64,1061.23Z" transform="translate(-1718 -1057)"/>
</svg>
