<svg xmlns="http://www.w3.org/2000/svg" width="89" height="56" viewBox="0 0 89 56">
  <defs>
    <style>
      .cls-1 {
        fill: #3ea2ee;
        fill-rule: evenodd;
      }
    </style>
  </defs>
  <path id="icon-popular-1.svg" class="cls-1" d="M1538.96,1134.86c-0.03-.81-0.07-1.44-0.75-1.75-0.22-.09-0.33-0.13-2.82-0.13H1453.6c-0.61,0-1.24.01-1.72,0.03-0.8.03-1.43,0.06-1.73,0.73-0.1.24-.15,0.34-0.15,2.85v43.25c0,0.61,0,1.24.02,1.72,0.05,0.81.07,1.44,0.76,1.74,0.23,0.11.33,0.15,2.82,0.15h37.15v3.25h-18.82a1.12,1.12,0,0,0-1.12,1.13,1.135,1.135,0,0,0,1.12,1.14h45.13a1.144,1.144,0,0,0,1.13-1.14,1.129,1.129,0,0,0-1.13-1.13h-19.89v-3.25h38.22c0.61,0,1.25-.01,1.72-0.03,0.8-.03,1.43-0.06,1.73-0.73,0.11-.24.15-0.34,0.15-2.85v-43.25C1538.99,1135.97,1538.98,1135.34,1538.96,1134.86Zm-44.04,51.84h-1.91v-3.25h1.91v3.25Zm41.82-6.86c0,0.52,0,.97-0.01,1.32-0.35.01-.8,0.03-1.34,0.03H1453.6c-0.51,0-.97,0-1.33-0.02-0.01-.34-0.02-0.79-0.02-1.33v-43.25c0-.52,0-0.97.01-1.34,0.35,0,.8-0.01,1.34-0.01h81.79c0.51,0,.97,0,1.32.01,0.02,0.35.03,0.8,0.03,1.34v43.25h0Zm-24.95-41.44-30.04,30.12a0.911,0.911,0,0,0,0,1.28,0.891,0.891,0,0,0,.64.26,0.875,0.875,0,0,0,.64-0.26l30.04-30.13A0.9,0.9,0,0,0,1511.79,1138.4Zm-2.72,7.61-30.03,30.12a0.911,0.911,0,0,0,0,1.28,0.863,0.863,0,0,0,.63.27,0.885,0.885,0,0,0,.64-0.27l30.04-30.12a0.911,0.911,0,0,0,0-1.28A0.894,0.894,0,0,0,1509.07,1146.01Zm-28.31,17.35h0.78a0.568,0.568,0,0,0,.57-0.56v-0.09a0.574,0.574,0,0,0-.57-0.56h-0.82a2.9,2.9,0,0,1-2.16-2.87,0.565,0.565,0,0,0-1.13-.01c0,0.1-.07,2.44-2.12,2.88h-0.77a0.574,0.574,0,0,0-.57.56v0.09a0.568,0.568,0,0,0,.57.56h0.81a2.893,2.893,0,0,1,2.16,2.86,0.583,0.583,0,0,0,.56.58,0.561,0.561,0,0,0,.57-0.56C1478.64,1166.21,1478.69,1163.82,1480.76,1163.36Zm-2.67.74a3.577,3.577,0,0,0-1.29-1.37,3.522,3.522,0,0,0,1.18-1.32,3.761,3.761,0,0,0,1.29,1.38A3.673,3.673,0,0,0,1478.09,1164.1Z" transform="translate(-1450 -1132.97)"/>
</svg>
