<svg xmlns="http://www.w3.org/2000/svg" width="66.78" height="48.75" viewBox="0 0 66.78 48.75">
  <defs>
    <style>
      .cls-1 {
        fill: #13ce66;
        stroke: #13ce66;
        stroke-width: 0.22px;
        fill-rule: evenodd;
      }
    </style>
  </defs>
  <path id="icon-popular-5.svg" class="cls-1" d="M1721.03,1150.92c-5.55.75-7.1,0.22-7.1,0.22a0.738,0.738,0,0,0-.67.08,0.514,0.514,0,0,0-.22.6c0.22,1.9-.37,2.28-1.03,2.66a1.525,1.525,0,0,1-2.3.37,6.613,6.613,0,0,0,.96-1.96,0.657,0.657,0,0,0-.44-0.84,0.637,0.637,0,0,0-.81.46c-1.04,3.56-5.78,5.3-8.07,6.13a6.773,6.773,0,0,1-.81.31,19.138,19.138,0,0,0-3.26,2.34c-1.92,1.52-7.84,6.22-9.18,5.31a0.87,0.87,0,0,1-.37-0.76c-0.07-1.14,1.19-2.96,3.19-4.62a13.554,13.554,0,0,0,4.51-7.65,0.64,0.64,0,0,0-.59-0.76,0.63,0.63,0,0,0-.74.61,12.035,12.035,0,0,1-4.07,6.81,13.158,13.158,0,0,0-2,2.05h-3.26c-0.29-.91-0.37-1.29-0.44-1.44,0.52-1.89,4.59-7.42,5.7-8.41,0.81-.68,10.58-5.68,16.57-8.64a0.076,0.076,0,0,0,.08-0.07l8.51-6.21a0.744,0.744,0,0,0,.15-0.99,0.7,0.7,0,0,0-.97-0.15l-8.43,6.21c-1.78.84-15.54,7.65-16.73,8.71-1.18.99-5.62,6.97-6.14,9.17a4.57,4.57,0,0,0,.3,1.74h-21.39a2.09,2.09,0,0,0-2.07,1.74,2.178,2.178,0,0,0,.44,1.67,2.048,2.048,0,0,0,1.56.76h0.29l-5.03,11.14a0.788,0.788,0,0,0,.07.68,0.688,0.688,0,0,0,.6.3h27.45a0.682,0.682,0,0,0,.52-0.23,0.477,0.477,0,0,0,.15-0.53l-0.82-10.07c1.56,2.12,4.07,5,5.78,5a0.98,0.98,0,0,0,.51-0.08c2.3-.98,1.63-4.17,1.11-6.14,0.08,0,.08-0.07.15-0.07a16.031,16.031,0,0,0,4.44.83,7.329,7.329,0,0,0,1.85-.22c2.74-.91,5.18-1.97,5.63-3.94a3.34,3.34,0,0,0,2.66-.38,3.742,3.742,0,0,0,1.48-1.74,2.794,2.794,0,0,0,2.07-.38,3.675,3.675,0,0,0,1.33-1.52,4.464,4.464,0,0,1,3.41,1.82c0.07,0.08,1.18,2.27,3.18,1.82a1.832,1.832,0,0,0,1.41-1.82,3.941,3.941,0,0,0-1.63-3.56,8.615,8.615,0,0,0-5.18-1.89,3.217,3.217,0,0,0,1.03-2.58,26.772,26.772,0,0,0,6.81-.38A0.765,0.765,0,0,0,1721.03,1150.92Zm-59.12,14.01a0.667,0.667,0,0,1-.52-0.23,0.726,0.726,0,0,1-.15-0.53,0.737,0.737,0,0,1,.74-0.53h25.01a5.549,5.549,0,0,0-.51,1.21Zm17.31,12.12h-3.92l0.81-10.91h3.11v10.91Zm-8.51-10.83-2.07,10.83h-4.07l3.18-10.83h2.96Zm1.33,0h2.74l-0.81,10.83h-4Zm-8.28.07h2.66l-3.18,10.84h-4.37Zm16.79,10.76v-10.91h3.11l0.89,10.91h-4Zm10.37-5.83c-0.67.22-3.41-2.43-5.18-5.08h0.66a2.178,2.178,0,0,0,.89,1.52,2.074,2.074,0,0,0,1.18.38,6.446,6.446,0,0,0,2.89-.99C1691.73,1168.64,1692.1,1170.69,1690.92,1171.22Zm7.69-5.68a9.019,9.019,0,0,1-4.44-.23c1.26-.91,2.59-1.89,3.92-2.96,0.52-.37.89-0.75,1.26-0.98,0.52-.15,3.26-0.83,3.92.61C1703.5,1162.88,1703.2,1164.02,1698.61,1165.54Zm7.99-4.17a1.832,1.832,0,0,1-2.14-.08,2.907,2.907,0,0,0-2.22-1.51,25.545,25.545,0,0,0,2.88-1.21,2.915,2.915,0,0,1,2.15.45,1.282,1.282,0,0,1,.37.91A2.118,2.118,0,0,1,1706.6,1161.37Zm3.63-2.2a1.916,1.916,0,0,1-1.26.23,2.556,2.556,0,0,0-.81-1.44,2.776,2.776,0,0,0-1.04-.53,11.427,11.427,0,0,0,1.11-.83c0.52-.15,1.78-0.53,2.44-0.08a1.529,1.529,0,0,1,.45,1.52A2.694,2.694,0,0,1,1710.23,1159.17Zm7.47-.98a2.693,2.693,0,0,1,1.11,2.27c-0.07.53-.29,0.61-0.37,0.61-0.96.22-1.7-1.06-1.7-1.14a5.313,5.313,0,0,0-4.36-2.5,3.455,3.455,0,0,0-.15-0.83A7.758,7.758,0,0,1,1717.7,1158.19Zm-31.59-11.37a4.016,4.016,0,1,0-3.93-4.01A3.9,3.9,0,0,0,1686.11,1146.82Zm0-6.74a2.656,2.656,0,1,1-2.59,2.65A2.554,2.554,0,0,1,1686.11,1140.08Zm-27.9,29.09a0.536,0.536,0,0,0,.88,0,0.645,0.645,0,0,0,0-.98l-0.07-.15a9.292,9.292,0,0,1,4.88-15.46,8.952,8.952,0,0,1,5.41.76l1.48,1.21a9.9,9.9,0,0,1,1.77,2.05l0.08,0.07c0.07,0.15.14,0.23,0.22,0.38a0.941,0.941,0,0,0,.52.3,0.567,0.567,0,0,0,.37-0.15,0.72,0.72,0,0,0,.14-0.98,3.3,3.3,0,0,0-.22-0.3h0a11.436,11.436,0,0,0-2-2.35h0l-0.96-.84a10.079,10.079,0,0,1,7.25-3.03,10.445,10.445,0,0,1,7.33,3.11,0.679,0.679,0,0,0,.96,0,0.716,0.716,0,0,0,0-.99,11.511,11.511,0,0,0-8.29-3.48,11.4,11.4,0,0,0-8.36,3.64,9.692,9.692,0,0,0-5.84-.69,10.6,10.6,0,0,0-8.44,9.02,10.474,10.474,0,0,0,2.74,8.63Zm54.76,7.2-5.03-1.36-1.34-5.16a0.712,0.712,0,0,0-.66-0.53,0.724,0.724,0,0,0-.67.53l-1.33,5.16-5.11,1.36a0.708,0.708,0,0,0,0,1.36l5.04,1.37,1.33,5.15a0.682,0.682,0,0,0,1.33,0l1.33-5.15,5.03-1.37a0.717,0.717,0,0,0,.52-0.68A0.662,0.662,0,0,0,1712.97,1176.37Zm-5.77,1.51a0.561,0.561,0,0,0-.45.46l-0.81,3.1-0.82-3.1a0.553,0.553,0,0,0-.44-0.46l-3.03-.83,3.03-.83a0.562,0.562,0,0,0,.44-0.46l0.82-3.1,0.81,3.1a0.563,0.563,0,0,0,.45.46l3.03,0.83Z" transform="translate(-1655.11 -1136.14)"/>
</svg>
