<svg xmlns="http://www.w3.org/2000/svg" width="36.84" height="26.842" viewBox="0 0 36.84 26.842">
  <defs>
    <style>
      .cls-1 {
        fill: #8f9bae;
        stroke: #8f9bae;
        stroke-width: 0.22px;
        fill-rule: evenodd;
      }
    </style>
  </defs>
  <path id="icon-menu-3.svg" class="cls-1" d="M1690.41,923.233c-3.06.416-3.91,0.125-3.91,0.125a0.4,0.4,0,0,0-.37.042,0.283,0.283,0,0,0-.12.332c0.12,1.039-.2,1.248-0.57,1.456a2.087,2.087,0,0,0-.49.374,1.716,1.716,0,0,0-.77-0.167,3.838,3.838,0,0,0,.53-1.081,0.358,0.358,0,0,0-.25-0.457,0.344,0.344,0,0,0-.44.249c-0.57,1.954-3.18,2.911-4.44,3.368a2.985,2.985,0,0,1-.45.166,10.814,10.814,0,0,0-1.79,1.289c-1.06.832-4.32,3.409-5.05,2.91a0.467,0.467,0,0,1-.2-0.416c-0.04-.623.65-1.621,1.75-2.535a7.438,7.438,0,0,0,2.48-4.2,0.367,0.367,0,1,0-.73-0.083,6.638,6.638,0,0,1-2.24,3.741,7.164,7.164,0,0,0-1.1,1.123h-1.79c-0.16-.5-0.2-0.707-0.25-0.79a19.131,19.131,0,0,1,3.14-4.615c0.45-.374,5.82-3.118,9.12-4.74a0.039,0.039,0,0,0,.04-0.041l4.68-3.409a0.394,0.394,0,0,0,.08-0.54,0.38,0.38,0,0,0-.53-0.084l-4.64,3.409c-0.97.458-8.55,4.2-9.2,4.782a18.356,18.356,0,0,0-3.38,5.03,2.438,2.438,0,0,0,.17.956h-11.77a1.149,1.149,0,0,0-1.14.956,1.225,1.225,0,0,0,.24.915,1.152,1.152,0,0,0,.86.416h0.16l-2.77,6.111a0.417,0.417,0,0,0,.04.374,0.376,0.376,0,0,0,.33.167h15.1a0.364,0.364,0,0,0,.29-0.125,0.264,0.264,0,0,0,.08-0.291l-0.45-5.529c0.86,1.163,2.24,2.743,3.18,2.743a0.58,0.58,0,0,0,.28-0.041c1.27-.541.9-2.287,0.61-3.368a0.783,0.783,0,0,1,.09-0.041,8.783,8.783,0,0,0,2.44.457,4.107,4.107,0,0,0,1.02-.125c1.5-.5,2.85-1.081,3.09-2.162a1.834,1.834,0,0,0,1.47-.208,2.057,2.057,0,0,0,.81-0.956,1.545,1.545,0,0,0,1.14-.208,1.979,1.979,0,0,0,.73-0.831,2.47,2.47,0,0,1,1.88,1,1.763,1.763,0,0,0,1.75,1,1,1,0,0,0,.77-1,2.13,2.13,0,0,0-.9-1.954,4.745,4.745,0,0,0-2.85-1.04,1.737,1.737,0,0,0,.57-1.413,14.744,14.744,0,0,0,3.75-.208,0.41,0.41,0,0,0,.33-0.416A0.419,0.419,0,0,0,1690.41,923.233Zm-32.53,7.692a0.378,0.378,0,0,1-.29-0.125,0.356,0.356,0,0,1,.33-0.582h13.76a3,3,0,0,0-.28.665Zm9.53,6.652h-2.16l0.45-5.988h1.71v5.988Zm-4.69-5.946-1.14,5.946h-2.24l1.75-5.946h1.63Zm0.74,0h1.5l-0.45,5.946h-2.19Zm-4.56.042h1.46l-1.75,5.945h-2.4Zm9.24,5.9v-5.988h1.71l0.49,5.988h-2.2Zm5.7-3.2c-0.37.125-1.87-1.33-2.85-2.786h0.36a1.241,1.241,0,0,0,.49.833,1.138,1.138,0,0,0,.65.207,3.565,3.565,0,0,0,1.59-.54C1674.29,932.962,1674.49,934.084,1673.84,934.375Zm4.23-3.118a4.92,4.92,0,0,1-2.44-.124c0.69-.5,1.42-1.04,2.16-1.622,0.28-.208.49-0.416,0.69-0.54,0.28-.083,1.79-0.458,2.16.332C1680.76,929.8,1680.6,930.426,1678.07,931.257Zm4.4-2.286a1.016,1.016,0,0,1-1.18-.042,1.606,1.606,0,0,0-1.22-.831,15.268,15.268,0,0,0,1.58-.665,1.638,1.638,0,0,1,1.19.249,0.7,0.7,0,0,1,.2.5A1.194,1.194,0,0,1,1682.47,928.971Zm1.99-1.206a1.057,1.057,0,0,1-.69.125,1.353,1.353,0,0,0-.45-0.79,1.418,1.418,0,0,0-.57-0.291,5.866,5.866,0,0,0,.62-0.458,1.845,1.845,0,0,1,1.34-.041,0.838,0.838,0,0,1,.24.832A1.446,1.446,0,0,1,1684.46,927.765Zm4.12-.541a1.512,1.512,0,0,1,.61,1.248c-0.04.291-.17,0.332-0.21,0.332a1,1,0,0,1-.93-0.623,2.945,2.945,0,0,0-2.41-1.372,1.844,1.844,0,0,0-.08-0.458A4.319,4.319,0,0,1,1688.58,927.224Zm-17.39-6.236a2.2,2.2,0,1,0-2.16-2.2A2.146,2.146,0,0,0,1671.19,920.988Zm0-3.7a1.456,1.456,0,1,1-1.42,1.456A1.405,1.405,0,0,1,1671.19,917.288Zm-15.35,15.965a0.361,0.361,0,0,0,.25.125,0.342,0.342,0,0,0,.24-0.125,0.364,0.364,0,0,0,0-.541l-0.04-.083a5.094,5.094,0,0,1,2.69-8.481,4.884,4.884,0,0,1,2.97.416l0.81,0.665a5.347,5.347,0,0,1,.98,1.122l0.04,0.042c0.04,0.084.08,0.125,0.12,0.208a0.561,0.561,0,0,0,.29.166,0.3,0.3,0,0,0,.2-0.083,0.385,0.385,0,0,0,.08-0.54c-0.04-.042-0.08-0.125-0.12-0.167h0a6.363,6.363,0,0,0-1.1-1.288h0l-0.53-.458a5.556,5.556,0,0,1,3.99-1.663,5.741,5.741,0,0,1,4.03,1.705,0.376,0.376,0,0,0,.53,0,0.381,0.381,0,0,0,0-.541,6.335,6.335,0,0,0-4.56-1.912,6.272,6.272,0,0,0-4.6,2,5.308,5.308,0,0,0-3.21-.374,5.823,5.823,0,0,0-4.65,4.947,5.763,5.763,0,0,0,1.51,4.739Zm30.13,3.949-2.77-.748-0.73-2.827a0.374,0.374,0,0,0-.73,0l-0.74,2.827-2.81.748a0.39,0.39,0,0,0,0,.749l2.77,0.748,0.74,2.827a0.387,0.387,0,0,0,.36.291,0.4,0.4,0,0,0,.37-0.291l0.73-2.827,2.77-.748a0.4,0.4,0,0,0,.28-0.374A0.365,0.365,0,0,0,1685.97,937.2Zm-3.18.832a0.3,0.3,0,0,0-.24.249l-0.45,1.705-0.45-1.705a0.3,0.3,0,0,0-.24-0.249l-1.67-.457,1.67-.458a0.3,0.3,0,0,0,.24-0.249l0.45-1.705,0.45,1.705a0.3,0.3,0,0,0,.24.249l1.67,0.458Z" transform="translate(-1654.08 -915.079)"/>
</svg>
