<svg xmlns="http://www.w3.org/2000/svg" width="27" height="48" viewBox="0 0 27 48">
  <defs>
    <style>
      .cls-1 {
        fill: #3ea2ee;
        fill-rule: evenodd;
      }
    </style>
  </defs>
  <path id="icon-menu-inner-1.svg" class="cls-1" d="M1818.53,1093.11a1.546,1.546,0,1,1-1.6,1.55A1.575,1.575,0,0,1,1818.53,1093.11Zm9.96-42.11h-19.93a3.51,3.51,0,0,0-3.56,3.43v41.14a3.51,3.51,0,0,0,3.56,3.43h19.87a3.5,3.5,0,0,0,3.56-3.43v-41.14A3.414,3.414,0,0,0,1828.49,1051Zm2.37,44.57a2.333,2.333,0,0,1-2.37,2.29h-19.93a2.34,2.34,0,0,1-2.37-2.29v-41.14a2.34,2.34,0,0,1,2.37-2.29h19.87a2.333,2.333,0,0,1,2.37,2.29v41.14h0.06Zm-15.06-39.71h5.46a0.575,0.575,0,1,0,0-1.15h-5.46A0.575,0.575,0,1,0,1815.8,1055.86Zm-6.76,24.17a0.618,0.618,0,0,0,.53.28,0.634,0.634,0,0,0,.3-0.05l17.91-10a0.617,0.617,0,0,0,.24-0.8,0.662,0.662,0,0,0-.83-0.23l-17.91,10A0.563,0.563,0,0,0,1809.04,1080.03Zm13.88-5.55-9.37,5.21a0.57,0.57,0,0,0,.29,1.08,0.541,0.541,0,0,0,.3-0.06l9.37-5.2a0.614,0.614,0,0,0,.24-0.8A0.621,0.621,0,0,0,1822.92,1074.48Zm-9.08.58a0.541,0.541,0,0,0,.3-0.06l9.37-5.2a0.617,0.617,0,0,0,.24-0.8,0.674,0.674,0,0,0-.83-0.23l-9.37,5.2a0.614,0.614,0,0,0-.24.8A0.716,0.716,0,0,0,1813.84,1075.06Zm13.64,15.25h-17.91a0.575,0.575,0,1,0,0,1.15h17.91A0.576,0.576,0,1,0,1827.48,1090.31Zm0-32.17h-17.91a0.57,0.57,0,1,0,0,1.14h17.91A0.571,0.571,0,1,0,1827.48,1058.14Z" transform="translate(-1805 -1051)"/>
</svg>
