<svg xmlns="http://www.w3.org/2000/svg" width="25.97" height="27" viewBox="0 0 25.97 27">
  <defs>
    <style>
      .cls-1 {
        fill: #8f9bae;
        stroke: #8f9bae;
        stroke-width: 0.22px;
        fill-rule: evenodd;
      }
    </style>
  </defs>
  <path id="icon-menu-2.svg" class="cls-1" d="M1708.44,941a3.367,3.367,0,0,1-2.44-1.048,3.7,3.7,0,0,1,0-5.073l4.14-4.312a0.513,0.513,0,0,1,.74,0,0.592,0.592,0,0,0,.82,0,0.65,0.65,0,0,0,0-.854,0.534,0.534,0,0,1,0-.762l1.03-1.078a0.5,0.5,0,0,1,.73,0l4.14,4.312a0.538,0.538,0,0,1,0,.761l-1.03,1.078a0.5,0.5,0,0,1-.73,0,0.594,0.594,0,0,0-.82,0,0.659,0.659,0,0,0,0,.855,0.559,0.559,0,0,1,0,.762l-4.14,4.311A3.367,3.367,0,0,1,1708.44,941Zm2.13-9.355-3.84,4a2.586,2.586,0,0,0,0,3.549,2.367,2.367,0,0,0,1.71.732,2.328,2.328,0,0,0,1.7-.732l3.84-4a1.765,1.765,0,0,1,.3-1.933,1.6,1.6,0,0,1,1.86-.316l0.37-.381-3.41-3.549-0.37.382a1.858,1.858,0,0,1,.16.743,1.738,1.738,0,0,1-.46,1.188A1.6,1.6,0,0,1,1710.57,931.645Zm-2.13,6.309a0.517,0.517,0,0,1-.37-0.157,0.559,0.559,0,0,1,0-.762l3.63-3.773a0.5,0.5,0,0,1,.73,0,0.559,0.559,0,0,1,0,.762l-3.63,3.773A0.5,0.5,0,0,1,1708.44,937.954Zm7.25-8.676a0.5,0.5,0,0,1-.37-0.158l-3.83-3.988a4.81,4.81,0,0,1-4.45-1.4,5.24,5.24,0,0,1-.98-5.837,0.514,0.514,0,0,1,.37-0.3,0.507,0.507,0,0,1,.46.15l2.95,3.071a0.922,0.922,0,0,0,1.34,0,1.014,1.014,0,0,0,0-1.394l-2.95-3.071a0.586,0.586,0,0,1-.15-0.475,0.545,0.545,0,0,1,.29-0.394,4.824,4.824,0,0,1,5.61,1.023,5.278,5.278,0,0,1,1.35,4.634l3.83,3.989a0.559,0.559,0,0,1,0,.762l-3.11,3.233A0.5,0.5,0,0,1,1715.69,929.278ZM1711.65,924a0.487,0.487,0,0,1,.36.158l3.68,3.823,2.37-2.471-3.67-3.823a0.518,0.518,0,0,1-.13-0.529,4.165,4.165,0,0,0-1.01-3.89,3.833,3.833,0,0,0-3.71-1.076l2.37,2.469a2.132,2.132,0,0,1,0,2.918,1.925,1.925,0,0,1-2.8,0l-2.38-2.472a4.117,4.117,0,0,0,1.03,3.858,3.779,3.779,0,0,0,3.75,1.056A0.438,0.438,0,0,1,1711.65,924Zm13.44,16.387a4.868,4.868,0,0,1-3.51-1.509,5.3,5.3,0,0,1-1.34-4.634l-3.83-3.988a0.54,0.54,0,0,1,0-.762l3.1-3.234a0.5,0.5,0,0,1,.73,0l3.83,3.988a4.634,4.634,0,0,1,4.46,1.41,5.241,5.241,0,0,1,.98,5.829,0.512,0.512,0,0,1-.84.152l-2.95-3.072a0.936,0.936,0,0,0-1.33,0,1.014,1.014,0,0,0,0,1.394l2.95,3.071a0.581,0.581,0,0,1,.14.475,0.543,0.543,0,0,1-.29.394A4.774,4.774,0,0,1,1725.09,940.383Zm-7.59-10.512,3.68,3.822a0.565,0.565,0,0,1,.13.529,4.135,4.135,0,0,0,1,3.89,3.828,3.828,0,0,0,3.71,1.076l-2.37-2.469a2.132,2.132,0,0,1,0-2.918,1.985,1.985,0,0,1,2.81,0l2.37,2.472a4.1,4.1,0,0,0-1.03-3.859,3.633,3.633,0,0,0-3.74-1.055,0.5,0.5,0,0,1-.51-0.137l-3.67-3.823Zm-1.76,1.562a0.513,0.513,0,0,1-.36-0.147l-1.03-1.025a0.544,0.544,0,0,1-.17-0.391,0.536,0.536,0,0,1,.15-0.371,0.5,0.5,0,0,1,.73-0.019l1.03,1.024a0.5,0.5,0,0,1,.16.391,0.524,0.524,0,0,1-.14.371A0.5,0.5,0,0,1,1715.74,931.433Zm-0.05.054a0.5,0.5,0,0,1-.37-0.158l-1.04-1.077a0.559,0.559,0,0,1,0-.762l8.77-9.126,0.48-1.5a0.553,0.553,0,0,1,.12-0.211l2.07-2.155a0.512,0.512,0,0,1,.74,0l2.07,2.155a0.559,0.559,0,0,1,0,.762l-2.07,2.156a0.534,0.534,0,0,1-.21.13l-1.43.5-8.77,9.125A0.492,0.492,0,0,1,1715.69,931.487Zm-0.31-1.616,0.31,0.315,8.48-8.834a0.593,0.593,0,0,1,.2-0.13l1.44-.5,1.62-1.684-1.34-1.394-1.62,1.685-0.48,1.5a0.549,0.549,0,0,1-.12.21Z" transform="translate(-1704.5 -914.5)"/>
</svg>
