<svg xmlns="http://www.w3.org/2000/svg" width="27" height="27" viewBox="0 0 27 27">
  <defs>
    <style>
      .cls-1 {
        fill: #8f9bae;
        stroke: #8f9bae;
        stroke-width: 0.22px;
        fill-rule: evenodd;
      }
    </style>
  </defs>
  <path id="icon-menu-1.svg" class="cls-1" d="M1766.37,931.825a5.047,5.047,0,0,0-1.46,3.141h-2.24v-3.353l2.81-2.76a0.669,0.669,0,0,0,0-.959,0.689,0.689,0,0,0-.97,0l-2.53,2.479-2.53-2.479a0.7,0.7,0,0,0-.98,0,0.687,0.687,0,0,0,0,.959l2.82,2.76v3.353h-2.25a5,5,0,0,0-1.45-3.144,5.882,5.882,0,0,1-1.58-5.163,5.951,5.951,0,0,1,4.74-4.761,6.177,6.177,0,0,1,5.08,1.238,5.869,5.869,0,0,1,.54,8.689m0.34-9.738a7.622,7.622,0,0,0-6.22-1.523,7.335,7.335,0,0,0-5.84,5.862,7.207,7.207,0,0,0,1.93,6.331,3.59,3.59,0,0,1,1.09,2.5v0.391a0.684,0.684,0,0,0,.69.678h7.23a0.687,0.687,0,0,0,.7-0.678v-0.391a3.611,3.611,0,0,1,1.08-2.5,7.213,7.213,0,0,0-.66-10.672m-2.16,17.554h-5.14a0.679,0.679,0,1,0,0,1.357h5.14a0.679,0.679,0,1,0,0-1.357m0.73-2.258h-6.6a0.679,0.679,0,1,0,0,1.357h6.6a0.679,0.679,0,1,0,0-1.357m3.7-15.8a0.686,0.686,0,0,0,.49-0.2l1.94-1.9a0.668,0.668,0,0,0,0-.958,0.7,0.7,0,0,0-.98,0l-1.94,1.9a0.671,0.671,0,0,0,0,.961,0.721,0.721,0,0,0,.49.2h0Zm-14.45,12.546-1.93,1.9a0.669,0.669,0,0,0,0,.959,0.69,0.69,0,0,0,.97,0l1.94-1.9a0.669,0.669,0,0,0,0-.959,0.7,0.7,0,0,0-.98,0h0Zm0-12.744a0.705,0.705,0,0,0,.98,0,0.671,0.671,0,0,0,0-.961l-1.94-1.9a0.691,0.691,0,0,0-.97,0,0.668,0.668,0,0,0,0,.958Zm14.57,12.384a0.689,0.689,0,0,0-.97,0,0.669,0.669,0,0,0,0,.959l1.93,1.9a0.7,0.7,0,0,0,.98,0,0.669,0.669,0,0,0,0-.959Zm-7.1-14.727a0.685,0.685,0,0,0,.69-0.679v-2.687a0.69,0.69,0,0,0-1.38,0v2.687a0.685,0.685,0,0,0,.69.679h0Zm-8.87,8.715a0.684,0.684,0,0,0-.69-0.679h-2.74a0.679,0.679,0,1,0,0,1.357h2.74a0.685,0.685,0,0,0,.69-0.678h0Zm21.18-.679h-2.7a0.679,0.679,0,1,0,0,1.357h2.7a0.679,0.679,0,1,0,0-1.357h0Z" transform="translate(-1748.5 -914.5)"/>
</svg>
