<svg xmlns="http://www.w3.org/2000/svg" width="53.03" height="59" viewBox="0 0 53.03 59">
  <defs>
    <style>
      .cls-1 {
        fill: #3ea2ee;
        fill-rule: evenodd;
      }
    </style>
  </defs>
  <path id="icon-popular-4.svg" class="cls-1" d="M1286.57,1132a3.675,3.675,0,0,0-3.7,3.62v0.31a4.877,4.877,0,0,0-2.42,1.09,4.358,4.358,0,0,0,0,6.51,4.792,4.792,0,0,0,2.42,1.09v0.27a3.675,3.675,0,0,0,3.7,3.62h34.18a3.678,3.678,0,0,0,3.71-3.62v-1.84h1.49a1.131,1.131,0,0,1,.36.03,3.922,3.922,0,0,0,0,.57v7.99l-22.66,10.17,0.15-.05a2.864,2.864,0,0,0-1.48.84,2.448,2.448,0,0,0-.58,1.63v8.49h-0.93a0.937,0.937,0,0,0-.95.92v12.74a4.448,4.448,0,0,0,1.57,3.5,5.067,5.067,0,0,0,6.33,0,4.448,4.448,0,0,0,1.57-3.5v-12.74a0.937,0.937,0,0,0-.95-0.92h-1l0.04-6.93,22.68-9.65a2.658,2.658,0,0,0,1.68-1.2,2.908,2.908,0,0,0,.24-1.56v-12.97a3.131,3.131,0,0,0-.53-1.86,2.888,2.888,0,0,0-2.37-1.08h-4.66v-1.85a3.678,3.678,0,0,0-3.71-3.62h-34.18Zm0,1.84h5.72v5.66a2.817,2.817,0,0,0,2.84,2.77h0.06a2.785,2.785,0,0,0,2.78-2.77v-2.02a0.835,0.835,0,0,1,.95-0.8,0.873,0.873,0,0,1,.75.25,0.86,0.86,0,0,1,.2.55v2.02a2.785,2.785,0,0,0,2.78,2.77h0.05a2.787,2.787,0,0,0,2.79-2.77v-0.96a0.88,0.88,0,0,1,.95-0.96,0.9,0.9,0,0,1,.95.98v0.94a2.811,2.811,0,0,0,2.84,2.77h0.05a2.8,2.8,0,0,0,2.81-2.77v-5.66h7.66a1.772,1.772,0,0,1,1.81,1.78v2.59a1.1,1.1,0,0,0-.02.18v3.73a1.225,1.225,0,0,0,.02.19v2.58a1.764,1.764,0,0,1-1.81,1.77h-34.18a1.764,1.764,0,0,1-1.81-1.77v-0.19h0.01v-8.85h-0.01v-0.23A1.772,1.772,0,0,1,1286.57,1133.84Zm7.62,0.07h17.01v5.59a0.914,0.914,0,0,1-.92.93h-0.05a0.952,0.952,0,0,1-.95-0.93v-0.94a2.845,2.845,0,0,0-5.69-.02v0.96a0.883,0.883,0,0,1-.89.93h-0.05a0.883,0.883,0,0,1-.89-0.93v-2.02a2.611,2.611,0,0,0-.66-1.77,2.935,2.935,0,0,0-2.18-.88,2.762,2.762,0,0,0-2.84,2.65v2.02a0.883,0.883,0,0,1-.89.93h-0.06a0.95,0.95,0,0,1-.94-0.93v-5.59Zm-11.32,4.1v4.53a3.3,3.3,0,0,1-1.17-.4,2.313,2.313,0,0,1-.81-1.86,2.37,2.37,0,0,1,.81-1.88A3.292,3.292,0,0,1,1282.87,1138.01Zm41.59,1.31h4.66a0.779,0.779,0,0,1,.82.28,1.612,1.612,0,0,1,.19.81v13.04a2.421,2.421,0,0,1-.04.66,0.78,0.78,0,0,1-.61.29,0.784,0.784,0,0,0-.14.05l-23.24,9.88a0.952,0.952,0,0,0-.57.84l-0.04,7.38h-1.86v-8.32a0.532,0.532,0,0,1,.12-0.42,1.063,1.063,0,0,1,.54-0.28,0.661,0.661,0,0,0,.15-0.05l23.21-10.41a0.925,0.925,0,0,0,.56-0.84v-8.58a2.554,2.554,0,0,0-.22-1.52,1.737,1.737,0,0,0-.88-0.76,3.013,3.013,0,0,0-1.19-.17h-1.46v-1.88Zm-22.71,35.25h5.68v11.81a2.537,2.537,0,0,1-.89,2.1,3.158,3.158,0,0,1-3.89,0,2.513,2.513,0,0,1-.9-2.1v-11.81Z" transform="translate(-1279 -1132)"/>
</svg>
