<svg xmlns="http://www.w3.org/2000/svg" width="55" height="62.25" viewBox="0 0 55 62.25">
  <defs>
    <style>
      .cls-1 {
        fill: #3ea2ee;
        fill-rule: evenodd;
      }
    </style>
  </defs>
  <path id="icon-popular-2.svg" class="cls-1" d="M1568.12,1192.62h46.76a4.229,4.229,0,0,0,4.13-4.28v-44.15a4.21,4.21,0,0,0-2.74-4.01v-5.52a4.232,4.232,0,0,0-4.13-4.29h-40.96a4.238,4.238,0,0,0-4.13,4.29v5.45a4.229,4.229,0,0,0-3.06,4.15v44.15A4.214,4.214,0,0,0,1568.12,1192.62Zm3.06-59.69h40.9a1.679,1.679,0,0,1,1.66,1.73v5.25h-44.29v-5.25A1.785,1.785,0,0,1,1571.18,1132.93Zm-4.79,11.26a1.679,1.679,0,0,1,1.66-1.73h46.76a1.679,1.679,0,0,1,1.66,1.73v44.15a1.679,1.679,0,0,1-1.66,1.73h-46.69a1.679,1.679,0,0,1-1.66-1.73v-44.15h-0.07Zm24.84,39.8c9.73,0,17.65-8.22,17.65-18.31s-7.92-18.31-17.65-18.31-17.65,8.22-17.65,18.31S1581.51,1183.99,1591.23,1183.99Zm0-34.13c8.39,0,15.25,7.11,15.25,15.82s-6.86,15.82-15.25,15.82-15.25-7.12-15.25-15.82S1582.84,1149.86,1591.23,1149.86Zm0,27.36a0.763,0.763,0,0,0,0-1.52,10.055,10.055,0,0,1-9.72-10.09,0.735,0.735,0,0,0-1.47,0C1580.24,1172.1,1585.04,1177.08,1591.23,1177.22Zm-16.92-39.52h0.94a1.249,1.249,0,0,0,0-2.49h-0.94A1.249,1.249,0,0,0,1574.31,1137.7Zm4.53,0h0.94a1.249,1.249,0,0,0,0-2.49h-0.94A1.246,1.246,0,0,0,1578.84,1137.7Z" transform="translate(-1564 -1130.38)"/>
</svg>
