<svg xmlns="http://www.w3.org/2000/svg" width="56" height="56" viewBox="0 0 56 56">
  <defs>
    <style>
      .cls-1 {
        fill: #ffd01e;
        fill-rule: evenodd;
      }
    </style>
  </defs>
  <path id="icon-popular-6.svg" class="cls-1" d="M1795.41,1169.24a10.813,10.813,0,0,0-3.14,6.76h-4.83v-7.22l6.06-5.94a1.432,1.432,0,0,0,0-2.07,1.5,1.5,0,0,0-2.1,0l-5.44,5.34-5.45-5.34a1.5,1.5,0,0,0-2.1,0,1.449,1.449,0,0,0,0,2.07l6.06,5.94V1176h-4.84a10.832,10.832,0,0,0-3.14-6.77,12.647,12.647,0,0,1-3.39-11.12,12.82,12.82,0,0,1,10.22-10.25,13.293,13.293,0,0,1,10.93,2.66,12.643,12.643,0,0,1,1.16,18.72m0.74-20.97a16.393,16.393,0,0,0-13.4-3.29,15.807,15.807,0,0,0-12.58,12.63,15.516,15.516,0,0,0,4.16,13.64,7.768,7.768,0,0,1,2.35,5.37v0.85a1.475,1.475,0,0,0,1.49,1.46h15.57a1.475,1.475,0,0,0,1.49-1.46v-0.85a7.8,7.8,0,0,1,2.34-5.37,15.522,15.522,0,0,0-1.42-22.98m-4.66,37.8h-11.06a1.46,1.46,0,1,0,0,2.92h11.06a1.46,1.46,0,1,0,0-2.92m1.57-4.86h-14.21a1.46,1.46,0,1,0,0,2.92h14.21a1.46,1.46,0,1,0,0-2.92m7.98-34.03a1.475,1.475,0,0,0,1.05-.43l4.17-4.09a1.432,1.432,0,0,0,0-2.07,1.5,1.5,0,0,0-2.1,0l-4.18,4.1a1.437,1.437,0,0,0,0,2.06,1.515,1.515,0,0,0,1.06.43h0Zm-31.13,27.02-4.16,4.09a1.432,1.432,0,0,0,0,2.07,1.5,1.5,0,0,0,2.1,0l4.17-4.09a1.449,1.449,0,0,0,0-2.07,1.516,1.516,0,0,0-2.11,0h0Zm0-27.45a1.515,1.515,0,0,0,1.06.43,1.475,1.475,0,0,0,1.05-.43,1.437,1.437,0,0,0,0-2.06l-4.17-4.1a1.5,1.5,0,0,0-2.1,0,1.432,1.432,0,0,0,0,2.07Zm31.39,26.68a1.485,1.485,0,0,0-2.1,0,1.437,1.437,0,0,0,0,2.06l4.17,4.09a1.5,1.5,0,0,0,2.1,0,1.437,1.437,0,0,0,0-2.06Zm-15.3-31.72a1.475,1.475,0,0,0,1.49-1.46v-5.79a1.49,1.49,0,0,0-2.98,0v5.79a1.481,1.481,0,0,0,1.49,1.46h0Zm-19.1,18.77a1.468,1.468,0,0,0-1.49-1.46h-5.91a1.46,1.46,0,1,0,0,2.92h5.91a1.475,1.475,0,0,0,1.49-1.46h0Zm45.61-1.46h-5.81a1.46,1.46,0,1,0,0,2.92h5.81a1.46,1.46,0,1,0,0-2.92h0Z" transform="translate(-1758 -1133)"/>
</svg>
