<svg xmlns="http://www.w3.org/2000/svg" width="37" height="41" viewBox="0 0 37 41">
  <defs>
    <style>
      .cls-1 {
        fill: #3ea2ee;
        fill-rule: evenodd;
      }
    </style>
  </defs>
  <path id="icon-menu-inner-2.svg" class="cls-1" d="M1890.29,1055a2.555,2.555,0,0,0-2.59,2.51v0.22a3.4,3.4,0,0,0-1.69.76,3.034,3.034,0,0,0,0,4.52,3.4,3.4,0,0,0,1.69.76v0.19a2.555,2.555,0,0,0,2.59,2.51h23.85a2.555,2.555,0,0,0,2.59-2.51v-1.28h1.04a1.115,1.115,0,0,1,.26.02,3.867,3.867,0,0,0,0,.4v5.55l-15.82,7.06,0.11-.03a2.071,2.071,0,0,0-1.04.58,1.734,1.734,0,0,0-.41,1.14v5.9h-0.65a0.649,0.649,0,0,0-.66.64v8.85a3.119,3.119,0,0,0,1.1,2.44,3.593,3.593,0,0,0,4.42,0,3.144,3.144,0,0,0,1.09-2.44v-8.85a0.643,0.643,0,0,0-.66-0.64h-0.7l0.03-4.82,15.83-6.7a1.832,1.832,0,0,0,1.17-.84,1.865,1.865,0,0,0,.17-1.08v-9.02a2.175,2.175,0,0,0-.36-1.29,2.037,2.037,0,0,0-1.66-.75h-3.26v-1.29a2.555,2.555,0,0,0-2.59-2.51h-23.85Zm0,1.28h3.99v3.93a1.961,1.961,0,0,0,1.98,1.93h0.04a1.94,1.94,0,0,0,1.94-1.93v-1.4a0.586,0.586,0,0,1,.67-0.56,0.567,0.567,0,0,1,.52.18,0.556,0.556,0,0,1,.14.38v1.4a1.94,1.94,0,0,0,1.94,1.93h0.04a1.946,1.946,0,0,0,1.94-1.93v-0.66a0.612,0.612,0,0,1,.66-0.67,0.623,0.623,0,0,1,.67.68v0.65a1.961,1.961,0,0,0,1.98,1.93h0.04a1.957,1.957,0,0,0,1.96-1.93v-3.93h5.34a1.232,1.232,0,0,1,1.27,1.23v1.8a0.615,0.615,0,0,0-.01.13v2.59a0.528,0.528,0,0,0,.01.13v1.8a1.232,1.232,0,0,1-1.27,1.23h-23.85a1.232,1.232,0,0,1-1.27-1.23v-0.13h0.01v-6.16h-0.01v-0.16A1.232,1.232,0,0,1,1890.29,1056.28Zm5.31,0.04h11.88v3.89a0.64,0.64,0,0,1-.64.65h-0.04a0.664,0.664,0,0,1-.66-0.65v-0.65a1.985,1.985,0,0,0-3.97-.01v0.66a0.618,0.618,0,0,1-.62.65h-0.04a0.612,0.612,0,0,1-.62-0.65v-1.4a1.836,1.836,0,0,0-.46-1.23,2.059,2.059,0,0,0-1.52-.61,1.928,1.928,0,0,0-1.99,1.84v1.4a0.612,0.612,0,0,1-.62.65h-0.04a0.664,0.664,0,0,1-.66-0.65v-3.89Zm-7.9,2.86v3.14a2.151,2.151,0,0,1-.81-0.27,1.767,1.767,0,0,1,0-2.6A2.151,2.151,0,0,1,1887.7,1059.18Zm29.03,0.9h3.26a0.543,0.543,0,0,1,.57.2,1.077,1.077,0,0,1,.13.56v9.07a1.259,1.259,0,0,1-.03.45c-0.01.04-.04,0.11-0.42,0.21l-0.09.03-16.23,6.87a0.638,0.638,0,0,0-.4.58l-0.03,5.13h-1.29v-5.78a0.381,0.381,0,0,1,.08-0.3,0.843,0.843,0,0,1,.38-0.19,0.381,0.381,0,0,0,.1-0.03l16.21-7.24a0.635,0.635,0,0,0,.38-0.58v-5.96a1.8,1.8,0,0,0-.15-1.06,1.181,1.181,0,0,0-.61-0.53,2.227,2.227,0,0,0-.83-0.12h-1.03v-1.31Zm-15.84,24.5h3.96v8.21a1.755,1.755,0,0,1-.63,1.46,2.2,2.2,0,0,1-1.35.46,2.232,2.232,0,0,1-1.36-.46,1.75,1.75,0,0,1-.62-1.46v-8.21Z" transform="translate(-1885 -1055)"/>
</svg>
