<svg xmlns="http://www.w3.org/2000/svg" width="38" height="68" viewBox="0 0 38 68">
  <defs>
    <style>
      .cls-1 {
        fill: #3ea2ee;
        fill-rule: evenodd;
      }
    </style>
  </defs>
  <path id="icon-popular-3.svg" class="cls-1" d="M1397.04,1186.66a2.186,2.186,0,1,1-2.25,2.19A2.222,2.222,0,0,1,1397.04,1186.66Zm14.02-59.66h-28.04a4.944,4.944,0,0,0-5.01,4.86v58.28a4.95,4.95,0,0,0,5.01,4.86h27.96a4.957,4.957,0,0,0,5.01-4.86v-58.28A4.825,4.825,0,0,0,1411.06,1127Zm3.34,63.14a3.3,3.3,0,0,1-3.34,3.24h-28.04a3.3,3.3,0,0,1-3.34-3.24v-58.28a3.3,3.3,0,0,1,3.34-3.24h27.96a3.3,3.3,0,0,1,3.34,3.24v58.28h0.08Zm-21.2-56.26h7.68a0.81,0.81,0,1,0,0-1.62h-7.68A0.811,0.811,0,1,0,1393.2,1133.88Zm-9.52,34.24a0.878,0.878,0,0,0,.75.41,0.79,0.79,0,0,0,.42-0.08l25.21-14.17a0.87,0.87,0,0,0,.33-1.13,0.93,0.93,0,0,0-1.16-.33l-25.21,14.17A0.8,0.8,0,0,0,1383.68,1168.12Zm19.54-7.85-13.19,7.37a0.884,0.884,0,0,0-.34,1.13,0.9,0.9,0,0,0,.75.41,0.7,0.7,0,0,0,.42-0.09l13.19-7.36a0.88,0.88,0,0,0,.33-1.14A0.855,0.855,0,0,0,1403.22,1160.27Zm-12.78.81a0.772,0.772,0,0,0,.42-0.08l13.19-7.37a0.87,0.87,0,0,0,.33-1.13,0.915,0.915,0,0,0-1.16-.32l-13.19,7.36a0.894,0.894,0,0,0-.34,1.14A1.011,1.011,0,0,0,1390.44,1161.08Zm19.2,21.61h-25.21a0.81,0.81,0,1,0,0,1.62h25.21A0.811,0.811,0,1,0,1409.64,1182.69Zm0-45.57h-25.21a0.81,0.81,0,1,0,0,1.62h25.21A0.811,0.811,0,1,0,1409.64,1137.12Z" transform="translate(-1378 -1127)"/>
</svg>
