<svg xmlns="http://www.w3.org/2000/svg" width="20.41" height="31.906" viewBox="0 0 20.41 31.906">
  <defs>
    <style>
      .cls-1 {
        fill: #fff;
        fill-rule: evenodd;
      }
    </style>
  </defs>
  <path id="light.svg" class="cls-1" d="M1295.51,978.1c-5.94,0-10.21,4.361-10.21,10.389,0,3.506,1.59,5.772,2.97,7.739,1.08,1.539,1.99,2.864,1.99,4.448,0,2.09,3.49,2.99,5.25,2.99s5.26-.9,5.26-2.99c0-1.626.95-2.952,1.98-4.448,1.38-1.967,2.98-4.233,2.98-7.739A9.971,9.971,0,0,0,1295.51,978.1Zm6.21,17.4c-1.17,1.625-2.24,3.164-2.24,5.175,0,0.85-2.29,1.71-3.97,1.71s-3.96-.86-3.96-1.71c0-2.011-1.08-3.55-2.24-5.175-1.34-1.924-2.76-3.891-2.76-7.012a8.728,8.728,0,0,1,8.92-9.106,8.876,8.876,0,0,1,6.46,2.608l-0.38,1.881-1.56-.727a0.607,0.607,0,0,0-.6.043,0.655,0.655,0,0,0-.3.513l-0.13,2.694-1.77.128a0.734,0.734,0,0,0-.56.385l-1.63,3.42a0.645,0.645,0,0,0,.3.855,0.7,0.7,0,0,0,.3.043,0.645,0.645,0,0,0,.6-0.385l1.47-3.078,1.94-.128a0.615,0.615,0,0,0,.6-0.6l0.13-2.266,1.42,0.641a0.64,0.64,0,0,0,.56,0,0.717,0.717,0,0,0,.35-0.427l0.34-1.625a9.644,9.644,0,0,1,1.42,5.173C1304.43,991.614,1303.05,993.581,1301.72,995.505Zm-10.86,9.025a8.938,8.938,0,0,0,9.35,0,0.631,0.631,0,0,0,.13-0.9,0.641,0.641,0,0,0-.91-0.13,6.355,6.355,0,0,1-3.87,1.07,6.546,6.546,0,0,1-3.93-1.07,0.668,0.668,0,0,0-.9.13A0.593,0.593,0,0,0,1290.86,1004.53Zm8.57,1.24a6.689,6.689,0,0,1-3.87.94,6.3,6.3,0,0,1-3.93-.99,0.678,0.678,0,0,0-.9.13,0.656,0.656,0,0,0,.13.9,6.176,6.176,0,0,0,2.11.94,2.6,2.6,0,0,0,5.17,0,5.682,5.682,0,0,0,2.07-.94A0.627,0.627,0,1,0,1299.43,1005.77Zm-3.92,2.99a1.3,1.3,0,0,1-1.2-.81c0.38,0.04.82,0.04,1.2,0.04s0.78,0,1.21-.04A1.276,1.276,0,0,1,1295.51,1008.76Zm-0.47-27.663a0.606,0.606,0,0,0-.73-0.513,7.6,7.6,0,0,0-4.92,3.036,0.658,0.658,0,0,0,.09.9,0.7,0.7,0,0,0,.39.129,0.652,0.652,0,0,0,.51-0.257,6.553,6.553,0,0,1,4.14-2.565A0.659,0.659,0,0,0,1295.04,981.1Z" transform="translate(-1285.31 -978.094)"/>
</svg>
