<svg xmlns="http://www.w3.org/2000/svg" width="21" height="21" viewBox="0 0 21 21">
  <defs>
    <style>
      .cls-1 {
        fill: #20599c;
        fill-rule: evenodd;
      }
    </style>
  </defs>
  <path id="mail-2.svg" class="cls-1" d="M1454,993.715a1.312,1.312,0,0,0-.26-0.623h0l-0.04-.033a0.693,0.693,0,0,0-.23-0.23l-3.41-3.446V987.25a0.654,0.654,0,0,0-.65-0.657h-2.07l-2.4-2.034a2,2,0,0,0-2.79,0l-2.39,2.034h-2.17a0.654,0.654,0,0,0-.65.657v2.166l-3.35,3.347a1.271,1.271,0,0,0-.59,1.083v9.844a1.314,1.314,0,0,0,1.31,1.31h18.38a1.314,1.314,0,0,0,1.31-1.31v-9.975Zm-15.49,5.185-4.2,3.91v-7.618Zm1.28,0.591a0.54,0.54,0,0,0,.23-0.164c0.03-.033.07-0.1,0.1-0.131l2.82-2.626a0.824,0.824,0,0,1,.53-0.2,0.815,0.815,0,0,1,.49.164l7.87,7.123h-16.57Zm8.76-.525,4.14-3.643v7.417Zm2.86-6.4h0l1.11,1.149-2.46,2.2v-4.726Zm-8.34-7.055a0.655,0.655,0,0,1,.46-0.2,0.638,0.638,0,0,1,.46.2l1.31,1.115h-3.54Zm5.68,2.428v9.124l-1.18,1.05-2.79-2.527a2.169,2.169,0,0,0-2.69.032l-2.59,2.4-1.25-1.083v-8.992h10.5Zm-13.62,5.153,1.81-1.8v4.463l-2.4-2.1,0.59-.557h0Z" transform="translate(-1433 -984)"/>
</svg>
