<svg xmlns="http://www.w3.org/2000/svg" width="29" height="32.56" viewBox="0 0 29 32.56">
  <defs>
    <style>
      .cls-1 {
        fill: #20599c;
        fill-rule: evenodd;
      }
    </style>
  </defs>
  <path id="pipe.svg" class="cls-1" d="M1336.88,1003.2a0.515,0.515,0,0,0-.44-0.23,0.569,0.569,0,0,0-.44.23l-1.57,2.28a3.284,3.284,0,0,0,.05,4.25,2.757,2.757,0,0,0,1.96.83,2.722,2.722,0,0,0,1.96-.83c0.74-.76,1.35-2.11.06-4.24Zm0.76,5.75a1.69,1.69,0,0,1-2.39,0,2.152,2.152,0,0,1,.06-2.82l1.13-1.65,1.13,1.62C1338.66,1007.9,1337.89,1008.69,1337.64,1008.95Zm21.36-16.6h-1.61v-1.1a0.545,0.545,0,0,0-.54-0.551h-3.22a0.545,0.545,0,0,0-.54.551v1.1h-8.34a1.343,1.343,0,0,1-1.32-1.363V984.07h1.07a0.546,0.546,0,0,0,.54-0.552v-3.311a0.546,0.546,0,0,0-.54-0.552h-1.07V978h-9.67v1.656h-1.08a0.544,0.544,0,0,0-.53.552v3.311a0.544,0.544,0,0,0,.53.552h1.08v10.172a8.12,8.12,0,0,0,2.79,6.148,0.487,0.487,0,0,0,.24.19,7.643,7.643,0,0,0,4.79,1.7h11.51v1.1a0.54,0.54,0,0,0,.54.55h3.22a0.54,0.54,0,0,0,.54-0.55v-1.1H1359v-9.931ZM1334.83,979.1h7.52v0.552h-7.52V979.1Zm-1.61,3.864v-2.208h10.74v2.208h-10.74Zm8.36,18.213a6.582,6.582,0,0,1-4.06-1.413v-1.346h1.61a0.553,0.553,0,0,0,.54-0.553v-1.656h1.61a0.552,0.552,0,0,0,0-1.1h-2.15a0.546,0.546,0,0,0-.54.552v1.656h-1.61a0.552,0.552,0,0,0-.54.551v0.861a7.023,7.023,0,0,1-1.61-4.487V984.07h7.52v6.916a2.437,2.437,0,0,0,2.4,2.467h8.34v7.727h-11.51Zm14.73,1.66h-2.14V991.8h2.14v11.043Zm1.62-1.66h-0.54v-7.727h0.54v7.727Zm-25.63-.39-1.07,1.1a0.562,0.562,0,0,0,0,.78,0.533,0.533,0,0,0,.38.17,0.565,0.565,0,0,0,.38-0.16l1.08-1.11a0.562,0.562,0,0,0,0-.78A0.54,0.54,0,0,0,1332.3,1000.79Zm0.38-1.266a0.544,0.544,0,0,0-.53-0.552h-1.61a0.554,0.554,0,0,0,0,1.108h1.61A0.547,0.547,0,0,0,1332.68,999.524Zm-0.69-3.151a0.527,0.527,0,0,0-.76,0,0.579,0.579,0,0,0,0,.778l1.08,1.1a0.507,0.507,0,0,0,.37.166,0.567,0.567,0,0,0,.39-0.161,0.559,0.559,0,0,0,0-.778Z" transform="translate(-1330 -978)"/>
</svg>
