<svg xmlns="http://www.w3.org/2000/svg" width="16.37" height="12.219" viewBox="0 0 16.37 12.219">
  <defs>
    <style>
      .cls-1 {
        fill: #eaecef;
        fill-rule: evenodd;
      }
    </style>
  </defs>
  <path id="quote.svg" class="cls-1" d="M1798.91,929.236c0,2.875,1.93,4.522,4.07,4.522a3.7,3.7,0,0,0,3.65-3.68,3.064,3.064,0,0,0-3.05-3.26,2.7,2.7,0,0,0-.91.14,6.907,6.907,0,0,1,3.18-3.365l-2.55-2.068A9.434,9.434,0,0,0,1798.91,929.236Zm8.66,0c0,2.875,1.93,4.522,4.07,4.522a3.692,3.692,0,0,0,3.64-3.68,3.059,3.059,0,0,0-3.05-3.26,2.791,2.791,0,0,0-.91.14,6.971,6.971,0,0,1,3.19-3.365l-2.56-2.068A9.448,9.448,0,0,0,1807.57,929.236Z" transform="translate(-1798.91 -921.531)"/>
</svg>
