<svg xmlns="http://www.w3.org/2000/svg" width="24.44" height="24.437" viewBox="0 0 24.44 24.437">
  <defs>
    <style>
      .cls-1 {
        fill: #20599c;
        stroke: #20599c;
        stroke-width: 0.44px;
        fill-rule: evenodd;
      }
    </style>
  </defs>
  <path id="reaction-happy.svg" class="cls-1" d="M1493,982a12,12,0,1,0,12,12A12.011,12.011,0,0,0,1493,982Zm0,23.2a11.2,11.2,0,1,1,11.2-11.2A11.214,11.214,0,0,1,1493,1005.2Zm-4.2-15.8a1.683,1.683,0,0,0-1.8,1.8h0.8a1,1,0,1,1,2,0h0.8A1.683,1.683,0,0,0,1488.8,989.4Zm8.4,0.8a0.874,0.874,0,0,1,1,1h0.8a1.8,1.8,0,1,0-3.6,0h0.8A0.874,0.874,0,0,1,1497.2,990.2Zm-3.33,10.711a5.036,5.036,0,0,1-2.21-.6l-0.35.74a5.717,5.717,0,0,0,2.56.65,5.991,5.991,0,0,0,5.8-5.7h-0.8A5.171,5.171,0,0,1,1493.87,1000.91Z" transform="translate(-1480.78 -981.783)"/>
</svg>
