<svg xmlns="http://www.w3.org/2000/svg" width="25.03" height="25" viewBox="0 0 25.03 25">
    <defs>
        <style>
            .cls-1 {
            fill: #8f9bae;
            fill-rule: evenodd;
            }
        </style>
    </defs>
    <path id="search.svg" class="cls-1" d="M1986.66,1004.07l-6.98-7.01a9.915,9.915,0,1,0-7.78,3.75,9.793,9.793,0,0,0,6.16-2.161l7.01,7.011A1.124,1.124,0,0,0,1986.66,1004.07ZM1964.27,990.9a7.635,7.635,0,1,1,7.63,7.662A7.632,7.632,0,0,1,1964.27,990.9Zm7.63-6.072a6.082,6.082,0,0,0-6.07,6.072,1.135,1.135,0,1,0,2.27,0,3.8,3.8,0,0,1,3.8-3.8A1.135,1.135,0,1,0,1971.9,984.83Z" transform="translate(-1962 -981)" />
</svg>
