<svg xmlns="http://www.w3.org/2000/svg" width="29" height="29" viewBox="0 0 29 29">
  <defs>
    <style>
      .cls-1 {
        fill: #8f9bae;
        fill-rule: evenodd;
      }
    </style>
  </defs>
  <path id="time.svg" class="cls-1" d="M1865.98,928.575A14.761,14.761,0,0,1,1850.85,943a14.408,14.408,0,0,1-10.38-5.05c-0.55.3-.97,0.533-1.02,0.559a0.306,0.306,0,0,1-.45-0.288c0-.214.02-4.5,0.03-4.869a0.29,0.29,0,0,1,.45-0.25c0.23,0.138,3.91,2.412,4.17,2.579a0.3,0.3,0,0,1,0,.527c-0.08.046-.68,0.373-1.4,0.767a12.441,12.441,0,0,0,8.67,4.027,12.8,12.8,0,0,0,13.12-12.5,12.491,12.491,0,0,0-.04-1.5h0.01a1,1,0,0,1,.9-1,0.974,0.974,0,0,1,1.04.925,0.7,0.7,0,0,1,0,.145h0.01A14.969,14.969,0,0,1,1865.98,928.575Zm-15.49-6.077a1,1,0,0,1,2,0l0.42,5.434,2.56,3.123a1,1,0,0,1-1.42,1.414l-3.19-2.615A1.157,1.157,0,0,1,1850,929V928.9a1.41,1.41,0,0,1,.03-0.4Zm13.05,0.937c-0.23-.129-4.03-2.254-4.3-2.412a0.3,0.3,0,0,1-.02-0.525c0.09-.049.68-0.4,1.39-0.819a12.606,12.606,0,0,0-8.89-3.682,12.872,12.872,0,0,0-12.76,12.972,14.727,14.727,0,0,0,.09,1.5h-0.01a0.978,0.978,0,0,1-1.95.145,0.7,0.7,0,0,1,0-.145h-0.02c-0.04-.492-0.07-0.991-0.07-1.5A14.845,14.845,0,0,1,1851.72,914a14.547,14.547,0,0,1,10.64,4.637c0.55-.325.96-0.57,1.01-0.6a0.311,0.311,0,0,1,.47.27c0.01,0.213.14,4.493,0.15,4.859A0.3,0.3,0,0,1,1863.54,923.435Z" transform="translate(-1837 -914)"/>
</svg>
