<svg xmlns="http://www.w3.org/2000/svg" width="45" height="51" viewBox="0 0 45 51">
  <defs>
    <style>
      .cls-1 {
        fill: #ffd01e;
        fill-rule: evenodd;
      }
    </style>
  </defs>
  <path id="utp_4.svg" class="cls-1" d="M1411.41,1064.81a22.466,22.466,0,0,0-4.02-3.08c-2.23-1.18-3.64-3.31-5-5.38-1.7-2.63-3.48-5.34-6.86-5.36h-0.05c-3.38.02-5.15,2.73-6.86,5.36a16.032,16.032,0,0,1-4.47,5.07,22.318,22.318,0,0,0-4.56,3.39,21.312,21.312,0,0,0,0,30.82,23.028,23.028,0,0,0,31.82,0A21.312,21.312,0,0,0,1411.41,1064.81Zm-15.91,24.6a9.552,9.552,0,0,1-6.71-2.69,9,9,0,0,1,0-13.01,9.726,9.726,0,0,1,13.43,0,9.012,9.012,0,0,1,0,13.01A9.593,9.593,0,0,1,1395.5,1089.41Zm0-28.91a20.708,20.708,0,0,1,10.34,2.75l-5.14,6.89a11.868,11.868,0,0,0-10.38-.01l-5.14-6.89A20.729,20.729,0,0,1,1395.5,1060.5Zm10.41,14.7,7.12-4.98a19.072,19.072,0,0,1-.01,20.01l-7.12-4.98A10.969,10.969,0,0,0,1405.91,1075.2Zm5.93-6.71-7.06,4.94a10.557,10.557,0,0,0-1.05-1.18,11.563,11.563,0,0,0-1.21-1.01l5.11-6.84a22.408,22.408,0,0,1,2.27,1.88A20.19,20.19,0,0,1,1411.84,1068.49Zm-21.41-11.04c1.77-2.71,2.97-4.38,5.08-4.38s3.3,1.67,5.07,4.38c0.4,0.61.82,1.24,1.27,1.86a23.278,23.278,0,0,0-12.68,0Q1389.845,1058.365,1390.43,1057.45Zm-9.32,8.83a19.541,19.541,0,0,1,2.28-1.89l5.1,6.84a11.568,11.568,0,0,0-1.22,1.02,11.45,11.45,0,0,0-1.04,1.17l-7.06-4.95A19,19,0,0,1,1381.11,1066.28Zm-3.13,3.92,7.12,4.98a10.989,10.989,0,0,0-.01,10.06l-7.12,4.98A19.089,19.089,0,0,1,1377.98,1070.2Zm1.18,21.75,7.06-4.95a10.647,10.647,0,0,0,1.05,1.19,11.464,11.464,0,0,0,1.21,1l-5.1,6.84A18.567,18.567,0,0,1,1379.16,1091.95Zm6,5.24,5.14-6.89a11.946,11.946,0,0,0,5.2,1.19,12.069,12.069,0,0,0,5.19-1.18l5.14,6.89A20.828,20.828,0,0,1,1385.16,1097.19Zm24.73-3.03a19.455,19.455,0,0,1-2.28,1.88l-5.1-6.83a13.179,13.179,0,0,0,1.22-1.02,12.621,12.621,0,0,0,1.04-1.17l7.06,4.94A19.094,19.094,0,0,1,1409.89,1094.16Z" transform="translate(-1373 -1051)"/>
</svg>
