<svg xmlns="http://www.w3.org/2000/svg" width="42" height="48" viewBox="0 0 42 48">
  <defs>
    <style>
      .cls-1 {
        fill: #ffd01e;
        fill-rule: evenodd;
      }
    </style>
  </defs>
  <path id="utp_3.svg" class="cls-1" d="M1664.51,1099.99a1.444,1.444,0,0,1-.57-0.11l-5.96-2.4a0.737,0.737,0,0,0-.25.01l-5.92,2.39a1.393,1.393,0,0,1-1.96-1.31l0.32-6.78a1.425,1.425,0,0,0-.05-0.2l-0.05-.06-4.02-5.18a1.415,1.415,0,0,1-.25-1.3,1.463,1.463,0,0,1,.97-0.95l6.23-1.73a1.118,1.118,0,0,0,.21-0.17l3.51-5.61a1.381,1.381,0,0,1,2.42.01l3.48,5.6a0.457,0.457,0,0,0,.16.11l6.12,1.77a1.375,1.375,0,0,1,.98.8,1.461,1.461,0,0,1-.11,1.37l-0.07.1-4.03,5.18a1.016,1.016,0,0,0-.09.31l0.32,6.68a1.451,1.451,0,0,1-.62,1.24A1.416,1.416,0,0,1,1664.51,1099.99Zm-6.62-4.65a2.313,2.313,0,0,1,.89.16l4.92,1.98-0.27-5.59a2.929,2.929,0,0,1,.54-1.65l3.4-4.38-5.12-1.48a2.531,2.531,0,0,1-1.46-1.07l-2.86-4.6-2.98,4.75a2.894,2.894,0,0,1-1.4.98l-5.16,1.43,3.35,4.32a2.671,2.671,0,0,1,.58,1.65l-0.27,5.64,4.97-2.01A2.867,2.867,0,0,1,1657.89,1095.34Zm-7.79-3.78h0Zm7.21-13.84,0.01,0.01Zm-7.06,15.4h-20.32a2.11,2.11,0,0,1-1.93-2.35v-36.74a1.914,1.914,0,0,1,1.93-2.03h30.98a1.919,1.919,0,0,1,1.98,2.03v28.34a1.07,1.07,0,0,1-2.14,0v-28.23h-30.6v36.63a0.291,0.291,0,0,0,.05.22h20.05A1.065,1.065,0,1,1,1650.25,1093.12Zm4.59-29.37h-18.79a1.07,1.07,0,0,1,0-2.14h18.79A1.07,1.07,0,0,1,1654.84,1063.75Zm0,6.41h-18.79a1.07,1.07,0,1,1,0-2.14h18.79A1.07,1.07,0,1,1,1654.84,1070.16Zm-3.76,6.41h-15.03a1.07,1.07,0,1,1,0-2.14h15.03A1.07,1.07,0,1,1,1651.08,1076.57Z" transform="translate(-1628 -1052)"/>
</svg>
