<svg xmlns="http://www.w3.org/2000/svg" width="36" height="68" viewBox="0 0 36 68">
  <defs>
    <style>
      .cls-1 {
        fill: #ffd01e;
        fill-rule: evenodd;
      }
    </style>
  </defs>
  <path id="utp_5.svg" class="cls-1" d="M1576.95,1080.59h-23.91a6.042,6.042,0,0,0-1.07,11.99v2.45a1.071,1.071,0,0,0,1.07,1.07h0.65v11.4a1.06,1.06,0,1,0,2.12,0v-11.4h3v12.54a1.065,1.065,0,0,0,2.13,0V1096.1h2.99v12.83a1.065,1.065,0,1,0,2.13,0V1096.1h2.99v12.54a1.065,1.065,0,0,0,2.13,0V1096.1h3v11.4a1.065,1.065,0,1,0,2.13,0v-11.4h0.65a1.069,1.069,0,0,0,1.06-1.07v-2.45A6.042,6.042,0,0,0,1576.95,1080.59Zm-1.06,13.38H1554.1v-1.39a6.039,6.039,0,0,0,3.07-1.55h15.65a6.039,6.039,0,0,0,3.07,1.55v1.39Zm1.06-3.42a3.924,3.924,0,0,1-3.91-3.92,1.054,1.054,0,0,0-1.06-1.06,1.069,1.069,0,0,0-1.07,1.06,5.93,5.93,0,0,0,.45,2.27h-12.73a5.93,5.93,0,0,0,.45-2.27,1.065,1.065,0,0,0-2.13,0,3.915,3.915,0,1,1-3.91-3.91h23.91A3.915,3.915,0,1,1,1576.95,1090.55Zm-23.04-11.42h22.17a1.065,1.065,0,0,0,0-2.13h-22.17A1.065,1.065,0,0,0,1553.91,1079.13Zm-0.51-4.13a4.3,4.3,0,0,1-3.12-1.33,4.664,4.664,0,0,1,0-6.44l5.3-5.47a0.647,0.647,0,0,1,.94,0,0.726,0.726,0,0,0,1.25-.54,0.808,0.808,0,0,0-.2-0.55,0.7,0.7,0,0,1,0-.96l1.33-1.37a0.635,0.635,0,0,1,.93,0l5.3,5.47a0.7,0.7,0,0,1,0,.97l-1.32,1.37a0.664,0.664,0,0,1-.94,0,0.761,0.761,0,0,0-1.05,0,0.821,0.821,0,0,0,0,1.08,0.7,0.7,0,0,1,0,.97l-5.3,5.47A4.3,4.3,0,0,1,1553.4,1075Zm2.73-11.87-4.91,5.07a3.262,3.262,0,0,0,0,4.5,3.02,3.02,0,0,0,4.36,0l4.92-5.07a2.2,2.2,0,0,1,.38-2.45,2.048,2.048,0,0,1,2.38-.4l0.47-.49-4.36-4.5-0.48.48a2.237,2.237,0,0,1-.38,2.46A2.063,2.063,0,0,1,1556.13,1063.13Zm-2.73,8a0.629,0.629,0,0,1-.47-0.2,0.664,0.664,0,0,1-.19-0.48,0.68,0.68,0,0,1,.19-0.48l4.64-4.79a0.647,0.647,0,0,1,.94,0,0.68,0.68,0,0,1,.19.48,0.7,0.7,0,0,1-.19.49l-4.64,4.78A0.629,0.629,0,0,1,1553.4,1071.13Zm9.28-11.01a0.668,0.668,0,0,1-.47-0.2l-4.9-5.06a6.2,6.2,0,0,1-5.7-1.78,6.627,6.627,0,0,1-1.26-7.41,0.66,0.66,0,0,1,.49-0.38,0.634,0.634,0,0,1,.58.19l3.78,3.9a1.178,1.178,0,0,0,1.71,0,1.287,1.287,0,0,0,0-1.77l-3.78-3.9a0.694,0.694,0,0,1-.18-0.6,0.665,0.665,0,0,1,.37-0.5,6.2,6.2,0,0,1,7.18,1.3,6.684,6.684,0,0,1,1.72,5.88l4.9,5.06a0.688,0.688,0,0,1,0,.97l-3.97,4.1A0.668,0.668,0,0,1,1562.68,1060.12Zm-5.17-6.7a0.668,0.668,0,0,1,.47.2l4.7,4.85,3.04-3.14-4.7-4.85a0.684,0.684,0,0,1-.17-0.67,5.253,5.253,0,0,0-1.29-4.94,4.924,4.924,0,0,0-4.75-1.36l3.04,3.13a2.708,2.708,0,0,1,0,3.71,2.488,2.488,0,0,1-3.59,0l-3.04-3.14a5.184,5.184,0,0,0,1.32,4.9,4.846,4.846,0,0,0,4.79,1.33A1.1,1.1,0,0,1,1557.51,1053.42Zm17.21,20.8a6.258,6.258,0,0,1-4.49-1.92,6.661,6.661,0,0,1-1.73-5.88l-4.9-5.06a0.7,0.7,0,0,1,0-.97l3.98-4.1a0.635,0.635,0,0,1,.93,0l4.91,5.06a5.949,5.949,0,0,1,5.7,1.79,6.623,6.623,0,0,1,1.25,7.4,0.662,0.662,0,0,1-.48.38,0.653,0.653,0,0,1-.59-0.19l-3.77-3.9a1.225,1.225,0,0,0-1.72,0,1.287,1.287,0,0,0,0,1.77l3.78,3.9a0.694,0.694,0,0,1,.18.6,0.643,0.643,0,0,1-.37.5A6.046,6.046,0,0,1,1574.72,1074.22Zm-9.71-13.35,4.7,4.86a0.68,0.68,0,0,1,.16.67,5.228,5.228,0,0,0,1.29,4.93,4.913,4.913,0,0,0,4.75,1.37l-3.03-3.13a2.688,2.688,0,0,1,0-3.71,2.547,2.547,0,0,1,3.58,0l3.04,3.14a5.2,5.2,0,0,0-1.31-4.9,4.716,4.716,0,0,0-4.8-1.34,0.639,0.639,0,0,1-.65-0.17l-4.7-4.85Zm-2.27,1.99a0.629,0.629,0,0,1-.45-0.19l-1.33-1.3a0.72,0.72,0,0,1-.2-0.5,0.71,0.71,0,0,1,.18-0.47,0.655,0.655,0,0,1,.94-0.02l1.32,1.3a0.672,0.672,0,0,1,.21.5,0.692,0.692,0,0,1-.19.47A0.645,0.645,0,0,1,1562.74,1062.86Zm-0.06.07a0.668,0.668,0,0,1-.47-0.2l-1.33-1.37a0.721,0.721,0,0,1,0-.97l11.22-11.58,0.62-1.9a0.627,0.627,0,0,1,.16-0.27l2.65-2.73a0.635,0.635,0,0,1,.93,0l2.65,2.73a0.7,0.7,0,0,1,0,.97l-2.65,2.74a0.633,0.633,0,0,1-.26.16l-1.83.63-11.22,11.59A0.668,0.668,0,0,1,1562.68,1062.93Zm-0.39-2.06,0.39,0.41,10.86-11.22a0.633,0.633,0,0,1,.26-0.16l1.84-.64,2.07-2.13-1.72-1.77-2.07,2.14-0.61,1.89a0.67,0.67,0,0,1-.16.27Z" transform="translate(-1547 -1042)"/>
</svg>
