<svg xmlns="http://www.w3.org/2000/svg" width="69" height="57" viewBox="0 0 69 57">
  <defs>
    <style>
      .cls-1 {
        fill: #ffd01e;
        fill-rule: evenodd;
      }
    </style>
  </defs>
  <path id="utp_1.svg" class="cls-1" d="M1305.32,1050.41a18.169,18.169,0,0,1,20.47,27.58l-7.76-7.75a0.8,0.8,0,0,0-1.11,0l-6.18,6.18-4.45-4.2a0.8,0.8,0,0,0-1.02-.05l-8.76,6.77a18.134,18.134,0,0,1-3.03-16.68,0.791,0.791,0,0,0-.52-0.99,0.781,0.781,0,0,0-.98.52,19.7,19.7,0,0,0,3.77,18.72h0l0.01,0.01c0.35,0.4.7,0.8,1.08,1.18l13.4,13.41a0.8,0.8,0,0,0,1.12,0l13.4-13.41a19.748,19.748,0,0,0,0-27.92,20.25,20.25,0,0,0-1.64-1.45,2.789,2.789,0,0,1,5.33-.98,0.773,0.773,0,0,0,1.07.37,2,2,0,0,1,.87-0.22,1.91,1.91,0,0,1,0,3.82,0.785,0.785,0,0,0,0,1.57,3.48,3.48,0,0,0,0-6.96,3.332,3.332,0,0,0-.88.12,4.348,4.348,0,0,0-7.79,1.24,19.644,19.644,0,0,0-16.87-2.38A0.786,0.786,0,1,0,1305.32,1050.41Zm18.32,30.18-12.84,12.85-12.84-12.85c-0.15-.15-0.29-0.3-0.43-0.45l8.16-6.31,4.52,4.27a0.8,0.8,0,0,0,1.1-.02l6.17-6.17,7.36,7.36Q1324.27,1079.96,1323.64,1080.59Zm-19.2-18.26a0.741,0.741,0,0,0,.55.23,1.079,1.079,0,0,0,.19-0.03,7.616,7.616,0,0,0-1.99,4.27h-2.49a0.785,0.785,0,0,0,0,1.57h2.47a6.979,6.979,0,0,0,.28,1.58,0.78,0.78,0,0,0,.75.56,0.969,0.969,0,0,0,.23-0.03,0.78,0.78,0,0,0,.52-0.98,6.1,6.1,0,1,1,11.95-1.76,0.785,0.785,0,0,0,.79.79c0.01,0,.01-0.01.02-0.01a0.106,0.106,0,0,0,.05.02h3.2a0.79,0.79,0,0,0,0-1.58h-2.52a7.7,7.7,0,0,0-2.02-4.43,1.079,1.079,0,0,0,.19.03,0.741,0.741,0,0,0,.55-0.23l1.35-1.35a0.785,0.785,0,0,0-1.11-1.11l-1.35,1.35a0.768,0.768,0,0,0-.19.76,7.584,7.584,0,0,0-4.59-1.89,0.781,0.781,0,0,0,.32-0.62v-2.36a0.79,0.79,0,0,0-1.58,0v2.36a0.8,0.8,0,0,0,.31.62,7.581,7.581,0,0,0-4.58,1.89,0.774,0.774,0,0,0-.19-0.76l-1.35-1.35a0.785,0.785,0,0,0-1.11,1.11Zm-12.64-4.55a2.542,2.542,0,0,0,1.6-.57,4.045,4.045,0,0,0,4.19-.07,3.181,3.181,0,0,0,1.91.64,3.225,3.225,0,0,0,0-6.45,2.856,2.856,0,0,0-.77.1,4.014,4.014,0,0,0-7.18,1.29A2.537,2.537,0,0,0,1291.8,1057.78Zm0-3.49a1.038,1.038,0,0,1,.23.03,0.8,0.8,0,0,0,.97-0.72,2.442,2.442,0,0,1,4.67-.87,0.808,0.808,0,0,0,.46.41,0.785,0.785,0,0,0,.62-0.04,1.641,1.641,0,1,1-.51,2.51,0.76,0.76,0,0,0-.55-0.28h-0.05a0.74,0.74,0,0,0-.53.21,2.487,2.487,0,0,1-3.3.03,0.8,0.8,0,0,0-.63-0.19,0.778,0.778,0,0,0-.56.36,0.948,0.948,0,0,1-.81.46A0.955,0.955,0,0,1,1291.8,1054.29Zm-2.22,25.74a0.781,0.781,0,0,0-.78-0.78h-12.03a0.785,0.785,0,0,0,0,1.57h12.03A0.783,0.783,0,0,0,1289.58,1080.03Zm8.82,16.93h-6.36a0.833,0.833,0,0,0,.07-0.32v-4.33a3.165,3.165,0,0,0,1.45.35,3.225,3.225,0,1,0-.76-6.35,4.019,4.019,0,0,0-7.31,2.08,0.786,0.786,0,1,0,1.57.09,2.442,2.442,0,0,1,4.67-.87,0.825,0.825,0,0,0,.46.42,0.835,0.835,0,0,0,.62-0.05,1.648,1.648,0,1,1-.51,2.51,0.8,0.8,0,0,0-.55-0.28,0.832,0.832,0,0,0-.58.21,2.406,2.406,0,0,1-3.3.03,0.79,0.79,0,0,0-1.11.07,0.781,0.781,0,0,0,.07,1.11,4.078,4.078,0,0,0,3.7.88v4.13a0.833,0.833,0,0,0,.07.32h-4.32a0.79,0.79,0,1,0,0,1.58h12.12A0.79,0.79,0,0,0,1298.4,1096.96Zm22.56,6.47h-20.33a0.785,0.785,0,0,0,0,1.57h20.33A0.785,0.785,0,1,0,1320.96,1103.43Zm-18.26-6.47a0.79,0.79,0,1,0,0,1.58h2.02a0.79,0.79,0,1,0,0-1.58h-2.02Zm41.52-17.71H1332.2a0.785,0.785,0,1,0,0,1.57h12.02A0.785,0.785,0,1,0,1344.22,1079.25Zm-11.98,14.52h-3v-1.42a0.78,0.78,0,0,0-.51-0.73,2.92,2.92,0,0,0,1.78-.78,0.785,0.785,0,1,0-1.07-1.15,1.412,1.412,0,0,1-.97.38,1.389,1.389,0,0,1-.94-0.37,0.79,0.79,0,0,0-1.05,1.18,3,3,0,0,0,1.71.74,0.766,0.766,0,0,0-.52.73v1.42h-3.66a0.785,0.785,0,1,0,0,1.57h8.23A0.785,0.785,0,0,0,1332.24,1093.77Zm-13.29,0a0.785,0.785,0,0,0,0,1.57h0.65a0.785,0.785,0,1,0,0-1.57h-0.65Zm9.53-8.13a2.993,2.993,0,0,0-2.99,2.82,0.786,0.786,0,0,0,.73.84h0.05a0.789,0.789,0,0,0,.79-0.74,1.417,1.417,0,0,1,2.71-.51,0.785,0.785,0,1,0,1.43-.65A3.008,3.008,0,0,0,1328.48,1085.64Z" transform="translate(-1276 -1048)"/>
</svg>
